<?xml version="1.0" standalone="no"?>
<!DOCTYPE svg PUBLIC "-//W3C//DTD SVG 1.1//EN" "http://www.w3.org/Graphics/SVG/1.1/DTD/svg11.dtd" >
<svg xmlns="http://www.w3.org/2000/svg" xmlns:xlink="http://www.w3.org/1999/xlink" version="1.1">
<metadata>
Created by FontForge 20190801 at Sat Feb 27 00:33:37 2021
 By Jimmy Wärting
</metadata>
<defs>
<font id="OTS-derived-font" horiz-adv-x="0" >
  <font-face 
    font-family="icons normal"
    font-weight="400"
    font-stretch="normal"
    units-per-em="1000"
    panose-1="0 0 5 0 0 0 0 0 0 0"
    ascent="782"
    descent="-218"
    x-height="510"
    cap-height="690"
    bbox="-35 -220 1046 780"
    underline-thickness="50"
    underline-position="-100"
    unicode-range="U+0020-FE40"
  />
<missing-glyph horiz-adv-x="500" 
d="M93 -220v1000h317v-1000h-317zM267 680h66v33h-165v-33h65v-37h-66v-33h166v33h-66v37zM333 514h-66v70h-100v-104h166v34zM200 514v36h33v-36h-33zM267 420h66v33h-166v-33h66v-37h-66v-33h100v70zM167 293h166v100h-33v-66h-133v-34zM167 158h166v113h-100v-56h34v23
h33v-47h-100v80h-33v-113zM167 -15h166v113h-166v-113zM200 18v47h100v-47h-100zM301 -71h32v33h-166v-33h70l-70 -47v-33h166v33h-102z" />
    <glyph glyph-name="fi" unicode="fi" horiz-adv-x="588" 
d="M216 510h299v-510h-69v415h-230v-415h-69v415h-113v95h113v77q0 138 143 138h54v-94h-49q-79 0 -79 -64v-57zM436 704q18 16 45 16t45 -16t18 -39t-18 -38.5t-45 -15.5t-45 15.5t-18 38.5t18 39z" />
    <glyph glyph-name="fl" unicode="fl" horiz-adv-x="609" 
d="M147 510v77q0 138 143 138h77v-94h-72q-79 0 -79 -64v-57h151v-95h-151v-415h-69v415h-113v95h113zM536 0h-68v720h68v-720z" />
    <glyph glyph-name="f_f.liga" unicode="ff" 
 />
    <glyph glyph-name="f_f_i.liga" unicode="ffi" 
 />
    <glyph glyph-name=".notdef" horiz-adv-x="500" 
d="M93 -220v1000h317v-1000h-317zM267 680h66v33h-165v-33h65v-37h-66v-33h166v33h-66v37zM333 514h-66v70h-100v-104h166v34zM200 514v36h33v-36h-33zM267 420h66v33h-166v-33h66v-37h-66v-33h100v70zM167 293h166v100h-33v-66h-133v-34zM167 158h166v113h-100v-56h34v23
h33v-47h-100v80h-33v-113zM167 -15h166v113h-166v-113zM200 18v47h100v-47h-100zM301 -71h32v33h-166v-33h70l-70 -47v-33h166v33h-102z" />
    <glyph glyph-name=".null" 
 />
    <glyph glyph-name="nonmarkingreturn" horiz-adv-x="333" 
 />
    <glyph glyph-name="space" unicode=" " horiz-adv-x="247" 
 />
    <glyph glyph-name="exclam" 
 />
    <glyph glyph-name="quotedbl" 
 />
    <glyph glyph-name="numbersign" 
 />
    <glyph glyph-name="dollar" 
 />
    <glyph glyph-name="percent" 
 />
    <glyph glyph-name="ampersand" 
 />
    <glyph glyph-name="quotesingle" unicode="'" horiz-adv-x="213" 
d="M148 690l-6 -241h-70l-7 241h83z" />
    <glyph glyph-name="parenleft" unicode="(" horiz-adv-x="323" 
d="M318 -190h-100q-64 85 -103 213.5t-39 256.5t39 256.5t103 213.5h100q-76 -85 -122.5 -213.5t-46.5 -256.5t46.5 -256.5t122.5 -213.5z" />
    <glyph glyph-name="parenright" unicode=")" horiz-adv-x="323" 
d="M105 -190h-100q76 85 122.5 213.5t46.5 256.5t-46.5 256.5t-122.5 213.5h100q64 -85 103 -213.5t39 -256.5t-39 -256.5t-103 -213.5z" />
    <glyph glyph-name="asterisk" unicode="*" horiz-adv-x="383" 
d="M338 613l-77 -36l-20 -7l97 -43l-33 -59l-72 46l-18 14l4 -22v-87h-55v87l4 22l-18 -14l-71 -46l-34 59l77 35l21 8l-21 8l-77 35l34 58l72 -46l17 -14l-4 22v87h55v-87l-3 -22l17 14l72 46z" />
    <glyph glyph-name="plus" unicode="+" horiz-adv-x="534" 
d="M298 499v-158h173v-91h-173v-159h-62v159h-173v91h173v158h62z" />
    <glyph glyph-name="comma" unicode="," horiz-adv-x="249" 
d="M125 126q34 0 54.5 -22t20.5 -59q0 -54 -18.5 -110t-47.5 -93h-96q38 28 67 71t39 84q-8 -4 -23 -4q-31 0 -51 18.5t-20 47.5t21 48t54 19z" />
    <glyph glyph-name="hyphen" unicode="-" horiz-adv-x="724" 
d="M46 690h632v-100h-632v100z" />
    <glyph glyph-name="period" unicode="." horiz-adv-x="249" 
d="M50 59q0 29 21.5 48t53.5 19t53.5 -19.5t21.5 -47.5t-21.5 -47t-53.5 -19t-53.5 19t-21.5 47z" />
    <glyph glyph-name="slash" 
 />
    <glyph glyph-name="zero" unicode="0" horiz-adv-x="643" 
d="M322 -12q-118 0 -192 99.5t-74 257.5t74 257.5t192 99.5q117 0 191 -99.5t74 -257.5t-74 -257.5t-191 -99.5zM186 161q53 -71 136 -71t136 71t53 184t-53 184t-136 71t-136 -71t-53 -184t53 -184z" />
    <glyph glyph-name="one" unicode="1" horiz-adv-x="388" 
d="M36 482v110l201 98h64v-690h-74v575z" />
    <glyph glyph-name="two" 
 />
    <glyph glyph-name="three" unicode="3" horiz-adv-x="568" 
d="M405 358q52 -23 83 -68.5t31 -102.5q0 -85 -68 -142t-169 -57q-100 0 -168 59t-68 146h77q0 -44 45 -73.5t113 -29.5q70 0 115.5 30.5t45.5 77.5q0 50 -41.5 81.5t-106.5 31.5h-104v91h104q58 0 95.5 29t37.5 74q0 41 -41 68t-104 27q-62 0 -103 -26t-41 -66h-77
q0 83 63 138.5t158 55.5t158 -53.5t63 -133.5q0 -50 -26.5 -91.5t-71.5 -65.5z" />
    <glyph glyph-name="four" unicode="4" horiz-adv-x="575" 
d="M452 690v-444h95v-97h-95v-149h-74v149h-345v74l303 467h116zM378 602h-8l-242 -356h250v356z" />
    <glyph glyph-name="five" unicode="5" horiz-adv-x="588" 
d="M313 438q101 0 168.5 -64t67.5 -161q0 -96 -70 -160.5t-174 -64.5q-100 0 -168.5 59t-74.5 149h77q9 -46 55.5 -76t110.5 -30q71 0 119 36t48 89t-48 89t-119 36q-44 0 -87 -14t-64 -35h-77l34 399h396v-100h-333l-15 -207q26 24 68.5 39.5t85.5 15.5z" />
    <glyph glyph-name="six" unicode="6" horiz-adv-x="565" 
d="M314 436q95 0 159.5 -63.5t64.5 -157.5q0 -97 -68.5 -162t-172.5 -65q-111 0 -182.5 82.5t-71.5 214.5q0 178 114 295.5t292 117.5v-100q-132 0 -221 -72.5t-100 -192.5q27 46 77 74.5t109 28.5zM294 90q71 0 119.5 35.5t48.5 87.5t-47 88t-116 36q-71 0 -119.5 -35.5
t-48.5 -88.5q0 -52 47 -87.5t116 -35.5z" />
    <glyph glyph-name="seven" 
 />
    <glyph glyph-name="eight" unicode="8" horiz-adv-x="591" 
d="M423 358q54 -25 86 -70.5t32 -100.5q0 -85 -71 -142t-175 -57t-174.5 57t-70.5 142q0 55 31.5 100t86.5 71q-47 25 -74 66.5t-27 91.5q0 79 65.5 132.5t162.5 53.5q98 0 163.5 -53.5t65.5 -132.5q0 -103 -101 -158zM295 600q-65 0 -108 -26.5t-43 -66.5q0 -44 43 -72.5
t108 -28.5q66 0 109 28.5t43 72.5q0 40 -43 66.5t-109 26.5zM295 90q74 0 121.5 29.5t47.5 75.5q0 49 -47.5 80.5t-121.5 31.5q-73 0 -121 -31.5t-48 -80.5q0 -46 48 -75.5t121 -29.5z" />
    <glyph glyph-name="nine" 
 />
    <glyph glyph-name="colon" 
 />
    <glyph glyph-name="semicolon" 
 />
    <glyph glyph-name="less" 
 />
    <glyph glyph-name="equal" 
 />
    <glyph glyph-name="greater" 
 />
    <glyph glyph-name="question" 
 />
    <glyph glyph-name="at" 
 />
    <glyph glyph-name="A" unicode="A" horiz-adv-x="723" 
d="M421 690l281 -690h-79l-69 162h-380l-69 -162h-85l282 690h119zM378 574h-29l-133 -312h295z" />
    <glyph glyph-name="B" 
 />
    <glyph glyph-name="C" unicode="C" horiz-adv-x="793" 
d="M406 -12q-154 0 -257.5 102.5t-103.5 254.5t103.5 254.5t257.5 102.5q127 0 222.5 -72.5t125.5 -188.5h-80q-31 72 -102.5 115.5t-165.5 43.5q-121 0 -202.5 -73t-81.5 -182t81.5 -182t202.5 -73q94 0 165.5 43.5t102.5 115.5h80q-30 -116 -125.5 -188.5t-222.5 -72.5z
" />
    <glyph glyph-name="D" 
 />
    <glyph glyph-name="E" 
 />
    <glyph glyph-name="F" 
 />
    <glyph glyph-name="G" 
 />
    <glyph glyph-name="H" 
 />
    <glyph glyph-name="I" unicode="I" horiz-adv-x="237" 
d="M155 690v-690h-74v690h74z" />
    <glyph glyph-name="J" 
 />
    <glyph glyph-name="K" 
 />
    <glyph glyph-name="L" 
 />
    <glyph glyph-name="M" 
 />
    <glyph glyph-name="N" 
 />
    <glyph glyph-name="O" 
 />
    <glyph glyph-name="P" unicode="P" horiz-adv-x="648" 
d="M81 690h310q97 0 161.5 -63.5t64.5 -158.5t-64.5 -159t-161.5 -64h-236v-245h-74v690zM155 345h234q67 0 109.5 34.5t42.5 88.5t-42.5 88t-109.5 34h-234v-245z" />
    <glyph glyph-name="Q" 
 />
    <glyph glyph-name="R" 
 />
    <glyph glyph-name="S" 
 />
    <glyph glyph-name="T" unicode="T" horiz-adv-x="606" 
d="M28 590v100h549v-100h-237v-590h-74v590h-238z" />
    <glyph glyph-name="U" unicode="U" horiz-adv-x="693" 
d="M346 -12q-119 0 -199.5 79t-80.5 197v426h74v-424q0 -75 59 -125.5t147 -50.5q89 0 148 50.5t59 125.5v424h74v-426q0 -118 -80.5 -197t-200.5 -79z" />
    <glyph glyph-name="V" 
 />
    <glyph glyph-name="W" unicode="W" horiz-adv-x="1070" 
d="M518 517l-170 -517h-96l-227 690h79l185 -536h26l181 536h74l182 -536h25l185 536h84l-228 -690h-96l-170 517h-34z" />
    <glyph glyph-name="X" 
 />
    <glyph glyph-name="Y" 
 />
    <glyph glyph-name="Z" 
 />
    <glyph glyph-name="bracketleft" unicode="[" horiz-adv-x="324" 
d="M86 750h216v-95h-145v-750h145v-95h-216v940z" />
    <glyph glyph-name="backslash" unicode="\" horiz-adv-x="492" 
d="M81 750l400 -900h-70l-400 900h70z" />
    <glyph glyph-name="bracketright" unicode="]" horiz-adv-x="324" 
d="M167 655h-145v95h216v-940h-216v95h145v750z" />
    <glyph glyph-name="asciicircum" unicode="^" horiz-adv-x="419" 
d="M207 607l-85 -158h-77l125 241h80l124 -241h-73l-85 158h-9z" />
    <glyph glyph-name="underscore" unicode="_" horiz-adv-x="511" 
d="M476 -80v-87h-441v87h441z" />
    <glyph glyph-name="grave" unicode="`" horiz-adv-x="229" 
d="M125 706l104 -130h-95l-134 130h125z" />
    <glyph glyph-name="a" unicode="a" horiz-adv-x="654" 
d="M513 379v131h68v-510h-68v131q-29 -66 -86 -104.5t-130 -38.5q-109 0 -182 76.5t-73 190.5t73 190.5t182 76.5q73 0 130 -38.5t86 -104.5zM170 133.5q57 -48.5 143 -48.5t143 48.5t57 121.5t-57 121.5t-143 48.5t-143 -48.5t-57 -121.5t57 -121.5z" />
    <glyph glyph-name="b" unicode="b" horiz-adv-x="654" 
d="M357 522q109 0 182.5 -76.5t73.5 -190.5t-73.5 -190.5t-182.5 -76.5q-73 0 -130 38.5t-86 104.5v-131h-68v720h68v-341q29 66 86 104.5t130 38.5zM198 133.5q57 -48.5 143 -48.5t143 48.5t57 121.5t-57 121.5t-143 48.5t-143 -48.5t-57 -121.5t57 -121.5z" />
    <glyph glyph-name="c" unicode="c" horiz-adv-x="610" 
d="M312 -12q-116 0 -194 76.5t-78 190.5t78 190.5t194 76.5q97 0 168.5 -55t92.5 -144h-75q-22 46 -72 74t-114 28q-86 0 -143 -48.5t-57 -121.5t57 -121.5t143 -48.5q64 0 114 28t72 74h75q-21 -89 -92.5 -144t-168.5 -55z" />
    <glyph glyph-name="d" unicode="d" horiz-adv-x="654" 
d="M513 379v341h68v-720h-68v131q-29 -66 -86 -104.5t-130 -38.5q-109 0 -182 76.5t-73 190.5t73 190.5t182 76.5q73 0 130 -38.5t86 -104.5zM170 133.5q57 -48.5 143 -48.5t143 48.5t57 121.5t-57 121.5t-143 48.5t-143 -48.5t-57 -121.5t57 -121.5z" />
    <glyph glyph-name="e" unicode="e" horiz-adv-x="622" 
d="M583 253q0 -12 -2 -34h-468q14 -59 69 -96t132 -37q117 0 175 61h83q-32 -73 -101.5 -116t-157.5 -43q-117 0 -195 76.5t-78 190.5t78 190.5t194 76.5t193.5 -76.5t77.5 -192.5z" />
    <glyph glyph-name="f" unicode="f" horiz-adv-x="393" 
d="M367 631h-72q-79 0 -79 -64v-57h151v-95h-151v-415h-69v415h-113v95h113v77q0 138 143 138h77v-94z" />
    <glyph glyph-name="g" unicode="g" horiz-adv-x="653" 
d="M514 381v129h68v-455q0 -116 -71.5 -186.5t-188.5 -70.5q-95 0 -161.5 48.5t-89.5 132.5h72q21 -41 68.5 -64.5t110.5 -23.5q86 0 139 45t53 120v83q-29 -65 -86.5 -103t-130.5 -38q-109 0 -182 74.5t-73 187.5q0 112 73 187t182 75q73 0 130.5 -38t86.5 -103zM514 260
q0 72 -57.5 121t-142.5 49q-86 0 -143 -49t-57 -121q0 -73 57 -121.5t143 -48.5t143 48.5t57 121.5z" />
    <glyph glyph-name="h" unicode="h" horiz-adv-x="616" 
d="M343 522q93 0 150 -56.5t57 -150.5v-315h-68v288q0 62 -45.5 99.5t-121.5 37.5q-78 0 -126 -38t-48 -101v-286h-68v720h68v-329q27 63 79.5 97t122.5 34z" />
    <glyph glyph-name="i" unicode="i" horiz-adv-x="214" 
d="M152 626.5q-18 -15.5 -45 -15.5t-45 15.5t-18 38.5t18 39t45 16t45 -16t18 -39t-18 -38.5zM141 510v-510h-68v510h68z" />
    <glyph glyph-name="j" unicode="j" horiz-adv-x="221" 
d="M114 611q-27 0 -45.5 15.5t-18.5 38.5t18.5 39t45.5 16q26 0 44.5 -16t18.5 -39t-18.5 -38.5t-44.5 -15.5zM-35 -202v96q114 0 114 90v526h69v-534q0 -178 -183 -178z" />
    <glyph glyph-name="k" unicode="k" horiz-adv-x="540" 
d="M289 269l248 -269h-89l-215 222l-92 -69v-153h-68v720h68v-440h22l243 230h125z" />
    <glyph glyph-name="l" unicode="l" horiz-adv-x="214" 
d="M141 720v-720h-68v720h68z" />
    <glyph glyph-name="m" unicode="m" horiz-adv-x="932" 
d="M682 522q83 0 133.5 -52t50.5 -138v-332h-68v308q0 53 -39.5 85t-103.5 32q-68 0 -109.5 -33t-41.5 -86v-306h-69v308q0 53 -39.5 85t-103.5 32q-68 0 -109.5 -33t-41.5 -86v-306h-68v510h68v-105q51 117 178 117q66 0 112.5 -33.5t63.5 -91.5q24 60 72 92.5t115 32.5z
" />
    <glyph glyph-name="n" unicode="n" horiz-adv-x="616" 
d="M343 522q93 0 150 -56.5t57 -150.5v-315h-68v288q0 62 -45.5 99.5t-121.5 37.5q-78 0 -126 -38t-48 -101v-286h-68v510h68v-117q27 62 79.5 95.5t122.5 33.5z" />
    <glyph glyph-name="o" unicode="o" horiz-adv-x="623" 
d="M505.5 64.5q-77.5 -76.5 -193.5 -76.5t-194 76.5t-78 190.5t78 190.5t194 76.5t193.5 -76.5t77.5 -190.5t-77.5 -190.5zM169 133.5q57 -48.5 143 -48.5t143 48.5t57 121.5t-57 121.5t-143 48.5t-143 -48.5t-57 -121.5t57 -121.5z" />
    <glyph glyph-name="p" unicode="p" horiz-adv-x="654" 
d="M357 522q109 0 182.5 -76.5t73.5 -190.5t-73.5 -190.5t-182.5 -76.5q-73 0 -130 38.5t-86 104.5v-321h-68v700h68v-131q29 66 86 104.5t130 38.5zM198 133.5q57 -48.5 143 -48.5t143 48.5t57 121.5t-57 121.5t-143 48.5t-143 -48.5t-57 -121.5t57 -121.5z" />
    <glyph glyph-name="q" unicode="q" horiz-adv-x="654" 
d="M513 379v131h68v-700h-68v321q-29 -66 -86 -104.5t-130 -38.5q-109 0 -182 76.5t-73 190.5t73 190.5t182 76.5q73 0 130 -38.5t86 -104.5zM170 133.5q57 -48.5 143 -48.5t143 48.5t57 121.5t-57 121.5t-143 48.5t-143 -48.5t-57 -121.5t57 -121.5z" />
    <glyph glyph-name="r" unicode="r" horiz-adv-x="371" 
d="M141 510v-135q27 67 79.5 105t121.5 38v-117q-94 0 -147.5 -42.5t-53.5 -116.5v-242h-68v510h68z" />
    <glyph glyph-name="s" unicode="s" horiz-adv-x="529" 
d="M264 -12q-98 0 -161 48.5t-63 122.5h68q0 -34 44 -55.5t113 -21.5t112 18t43 47q0 27 -42 43t-131 28q-198 29 -198 153q0 69 60.5 110t153.5 41q96 0 157 -46.5t61 -117.5h-70q0 31 -41 50.5t-107 19.5q-64 0 -104.5 -17t-40.5 -44q0 -46 168 -69q204 -28 204 -153
q0 -72 -63.5 -114.5t-162.5 -42.5z" />
    <glyph glyph-name="t" unicode="t" horiz-adv-x="397" 
d="M365 510v-95h-166v-258q0 -61 80 -61h76v-96h-82q-143 0 -143 138v277h-110v95h110v133l69 17v-150h166z" />
    <glyph glyph-name="u" unicode="u" horiz-adv-x="597" 
d="M455 215v295h69v-510h-69v112q-55 -124 -191 -124q-89 0 -144 55t-55 146v321h69v-297q0 -58 43 -93t114 -35q74 0 119 36t45 94z" />
    <glyph glyph-name="v" unicode="v" horiz-adv-x="543" 
d="M529 510l-206 -510h-103l-206 510h73l170 -395h22l170 395h80z" />
    <glyph glyph-name="w" unicode="w" horiz-adv-x="839" 
d="M406 374l-122 -374h-89l-177 510h71l141 -379h22l129 379h71l128 -379h22l141 379h78l-177 -510h-89l-121 374h-28z" />
    <glyph glyph-name="x" unicode="x" horiz-adv-x="552" 
d="M287 318l153 192h88l-190 -256l189 -254h-81l-156 193h-23l-156 -193h-87l192 257l-186 253h81l153 -192h23z" />
    <glyph glyph-name="y" unicode="y" horiz-adv-x="543" 
d="M257 115h22l170 395h80l-282 -700h-90l90 190h-27l-206 510h73z" />
    <glyph glyph-name="z" unicode="z" horiz-adv-x="519" 
d="M470 510v-66l-314 -349h321v-95h-436v66l314 349h-310v95h425z" />
    <glyph glyph-name="braceleft" 
 />
    <glyph glyph-name="bar" 
 />
    <glyph glyph-name="braceright" 
 />
    <glyph glyph-name="asciitilde" 
 />
    <glyph glyph-name="exclamdown" 
 />
    <glyph glyph-name="cent" 
 />
    <glyph glyph-name="sterling" 
 />
    <glyph glyph-name="currency" 
 />
    <glyph glyph-name="yen" 
 />
    <glyph glyph-name="brokenbar" 
 />
    <glyph glyph-name="section" 
 />
    <glyph glyph-name="dieresis" 
 />
    <glyph glyph-name="copyright" 
 />
    <glyph glyph-name="ordfeminine" 
 />
    <glyph glyph-name="guillemotleft" 
 />
    <glyph glyph-name="registered" 
 />
    <glyph glyph-name="macron" 
 />
    <glyph glyph-name="degree" 
 />
    <glyph glyph-name="plusminus" 
 />
    <glyph glyph-name="uni00B2" 
 />
    <glyph glyph-name="uni00B3" 
 />
    <glyph glyph-name="acute" 
 />
    <glyph glyph-name="paragraph" 
 />
    <glyph glyph-name="periodcentered" 
 />
    <glyph glyph-name="cedilla" 
 />
    <glyph glyph-name="uni00B9" 
 />
    <glyph glyph-name="ordmasculine" 
 />
    <glyph glyph-name="guillemotright" 
 />
    <glyph glyph-name="onequarter" 
 />
    <glyph glyph-name="onehalf" 
 />
    <glyph glyph-name="threequarters" 
 />
    <glyph glyph-name="questiondown" 
 />
    <glyph glyph-name="Agrave" 
 />
    <glyph glyph-name="Aacute" 
 />
    <glyph glyph-name="Acircumflex" 
 />
    <glyph glyph-name="Atilde" 
 />
    <glyph glyph-name="Adieresis" 
 />
    <glyph glyph-name="Aring" 
 />
    <glyph glyph-name="AE" 
 />
    <glyph glyph-name="Ccedilla" 
 />
    <glyph glyph-name="Egrave" 
 />
    <glyph glyph-name="Eacute" 
 />
    <glyph glyph-name="Ecircumflex" 
 />
    <glyph glyph-name="Edieresis" 
 />
    <glyph glyph-name="Igrave" 
 />
    <glyph glyph-name="Iacute" 
 />
    <glyph glyph-name="Icircumflex" 
 />
    <glyph glyph-name="Idieresis" 
 />
    <glyph glyph-name="Eth" 
 />
    <glyph glyph-name="Ntilde" 
 />
    <glyph glyph-name="Ograve" 
 />
    <glyph glyph-name="Oacute" 
 />
    <glyph glyph-name="Ocircumflex" 
 />
    <glyph glyph-name="Otilde" 
 />
    <glyph glyph-name="Odieresis" 
 />
    <glyph glyph-name="multiply" unicode="&#xd7;" horiz-adv-x="776" 
d="M656 557l-211 -212l211 -211l-56 -57l-213 212l-210 -212l-57 57l212 211l-212 212l57 56l210 -212l213 212z" />
    <glyph glyph-name="Oslash" 
 />
    <glyph glyph-name="Ugrave" 
 />
    <glyph glyph-name="Uacute" 
 />
    <glyph glyph-name="Ucircumflex" 
 />
    <glyph glyph-name="Udieresis" 
 />
    <glyph glyph-name="Yacute" 
 />
    <glyph glyph-name="Thorn" 
 />
    <glyph glyph-name="germandbls" 
 />
    <glyph glyph-name="agrave" 
 />
    <glyph glyph-name="aacute" 
 />
    <glyph glyph-name="acircumflex" 
 />
    <glyph glyph-name="atilde" 
 />
    <glyph glyph-name="adieresis" 
 />
    <glyph glyph-name="aring" 
 />
    <glyph glyph-name="ae" 
 />
    <glyph glyph-name="ccedilla" 
 />
    <glyph glyph-name="egrave" 
 />
    <glyph glyph-name="eacute" 
 />
    <glyph glyph-name="ecircumflex" 
 />
    <glyph glyph-name="edieresis" 
 />
    <glyph glyph-name="igrave" 
 />
    <glyph glyph-name="iacute" 
 />
    <glyph glyph-name="icircumflex" 
 />
    <glyph glyph-name="idieresis" 
 />
    <glyph glyph-name="eth" 
 />
    <glyph glyph-name="ntilde" 
 />
    <glyph glyph-name="ograve" 
 />
    <glyph glyph-name="oacute" 
 />
    <glyph glyph-name="ocircumflex" 
 />
    <glyph glyph-name="otilde" 
 />
    <glyph glyph-name="odieresis" 
 />
    <glyph glyph-name="divide" 
 />
    <glyph glyph-name="oslash" 
 />
    <glyph glyph-name="ugrave" 
 />
    <glyph glyph-name="uacute" 
 />
    <glyph glyph-name="ucircumflex" 
 />
    <glyph glyph-name="udieresis" 
 />
    <glyph glyph-name="yacute" 
 />
    <glyph glyph-name="thorn" 
 />
    <glyph glyph-name="ydieresis" 
 />
    <glyph glyph-name="Amacron" 
 />
    <glyph glyph-name="amacron" 
 />
    <glyph glyph-name="Abreve" 
 />
    <glyph glyph-name="abreve" 
 />
    <glyph glyph-name="Aogonek" 
 />
    <glyph glyph-name="aogonek" 
 />
    <glyph glyph-name="Cacute" 
 />
    <glyph glyph-name="cacute" 
 />
    <glyph glyph-name="Ccircumflex" 
 />
    <glyph glyph-name="ccircumflex" 
 />
    <glyph glyph-name="Cdotaccent" 
 />
    <glyph glyph-name="cdotaccent" 
 />
    <glyph glyph-name="Ccaron" 
 />
    <glyph glyph-name="ccaron" 
 />
    <glyph glyph-name="Dcaron" 
 />
    <glyph glyph-name="dcaron" 
 />
    <glyph glyph-name="Dcroat" 
 />
    <glyph glyph-name="dcroat" 
 />
    <glyph glyph-name="Emacron" 
 />
    <glyph glyph-name="emacron" 
 />
    <glyph glyph-name="Ebreve" 
 />
    <glyph glyph-name="ebreve" 
 />
    <glyph glyph-name="Edotaccent" 
 />
    <glyph glyph-name="edotaccent" 
 />
    <glyph glyph-name="Eogonek" 
 />
    <glyph glyph-name="eogonek" 
 />
    <glyph glyph-name="Ecaron" 
 />
    <glyph glyph-name="ecaron" 
 />
    <glyph glyph-name="Gcircumflex" 
 />
    <glyph glyph-name="gcircumflex" 
 />
    <glyph glyph-name="Gbreve" 
 />
    <glyph glyph-name="gbreve" 
 />
    <glyph glyph-name="Gdotaccent" 
 />
    <glyph glyph-name="gdotaccent" 
 />
    <glyph glyph-name="uni0122" 
 />
    <glyph glyph-name="uni0123" 
 />
    <glyph glyph-name="Hcircumflex" 
 />
    <glyph glyph-name="hcircumflex" 
 />
    <glyph glyph-name="Hbar" 
 />
    <glyph glyph-name="hbar" 
 />
    <glyph glyph-name="Itilde" 
 />
    <glyph glyph-name="itilde" 
 />
    <glyph glyph-name="Imacron" 
 />
    <glyph glyph-name="imacron" 
 />
    <glyph glyph-name="Ibreve" 
 />
    <glyph glyph-name="ibreve" 
 />
    <glyph glyph-name="Iogonek" 
 />
    <glyph glyph-name="iogonek" 
 />
    <glyph glyph-name="Idotaccent" 
 />
    <glyph glyph-name="dotlessi" 
 />
    <glyph glyph-name="IJ" 
 />
    <glyph glyph-name="ij" 
 />
    <glyph glyph-name="Jcircumflex" 
 />
    <glyph glyph-name="jcircumflex" 
 />
    <glyph glyph-name="uni0136" 
 />
    <glyph glyph-name="uni0137" 
 />
    <glyph glyph-name="Lacute" 
 />
    <glyph glyph-name="lacute" 
 />
    <glyph glyph-name="uni013B" 
 />
    <glyph glyph-name="uni013C" 
 />
    <glyph glyph-name="Lcaron" 
 />
    <glyph glyph-name="lcaron" 
 />
    <glyph glyph-name="Ldot" 
 />
    <glyph glyph-name="ldot" 
 />
    <glyph glyph-name="Lslash" 
 />
    <glyph glyph-name="lslash" 
 />
    <glyph glyph-name="Nacute" 
 />
    <glyph glyph-name="nacute" 
 />
    <glyph glyph-name="uni0145" 
 />
    <glyph glyph-name="uni0146" 
 />
    <glyph glyph-name="Ncaron" 
 />
    <glyph glyph-name="ncaron" 
 />
    <glyph glyph-name="Eng" 
 />
    <glyph glyph-name="eng" 
 />
    <glyph glyph-name="Omacron" 
 />
    <glyph glyph-name="omacron" 
 />
    <glyph glyph-name="Obreve" 
 />
    <glyph glyph-name="obreve" 
 />
    <glyph glyph-name="Ohungarumlaut" 
 />
    <glyph glyph-name="ohungarumlaut" 
 />
    <glyph glyph-name="OE" 
 />
    <glyph glyph-name="oe" 
 />
    <glyph glyph-name="Racute" 
 />
    <glyph glyph-name="racute" 
 />
    <glyph glyph-name="uni0156" 
 />
    <glyph glyph-name="uni0157" 
 />
    <glyph glyph-name="Rcaron" 
 />
    <glyph glyph-name="rcaron" 
 />
    <glyph glyph-name="Sacute" 
 />
    <glyph glyph-name="sacute" 
 />
    <glyph glyph-name="Scircumflex" 
 />
    <glyph glyph-name="scircumflex" 
 />
    <glyph glyph-name="Scedilla" 
 />
    <glyph glyph-name="scedilla" 
 />
    <glyph glyph-name="Scaron" 
 />
    <glyph glyph-name="scaron" 
 />
    <glyph glyph-name="uni0162" 
 />
    <glyph glyph-name="uni0163" 
 />
    <glyph glyph-name="Tcaron" 
 />
    <glyph glyph-name="tcaron" 
 />
    <glyph glyph-name="Tbar" 
 />
    <glyph glyph-name="tbar" 
 />
    <glyph glyph-name="Utilde" 
 />
    <glyph glyph-name="utilde" 
 />
    <glyph glyph-name="Umacron" 
 />
    <glyph glyph-name="umacron" 
 />
    <glyph glyph-name="Ubreve" 
 />
    <glyph glyph-name="ubreve" 
 />
    <glyph glyph-name="Uring" 
 />
    <glyph glyph-name="uring" 
 />
    <glyph glyph-name="Uhungarumlaut" 
 />
    <glyph glyph-name="uhungarumlaut" 
 />
    <glyph glyph-name="Uogonek" 
 />
    <glyph glyph-name="uogonek" 
 />
    <glyph glyph-name="Wcircumflex" 
 />
    <glyph glyph-name="wcircumflex" 
 />
    <glyph glyph-name="Ycircumflex" 
 />
    <glyph glyph-name="ycircumflex" 
 />
    <glyph glyph-name="Ydieresis" 
 />
    <glyph glyph-name="Zacute" 
 />
    <glyph glyph-name="zacute" 
 />
    <glyph glyph-name="Zdotaccent" 
 />
    <glyph glyph-name="zdotaccent" 
 />
    <glyph glyph-name="Zcaron" 
 />
    <glyph glyph-name="zcaron" 
 />
    <glyph glyph-name="florin" 
 />
    <glyph glyph-name="uni01C4" 
 />
    <glyph glyph-name="uni01C5" 
 />
    <glyph glyph-name="uni01C6" 
 />
    <glyph glyph-name="uni01C7" 
 />
    <glyph glyph-name="uni01C8" 
 />
    <glyph glyph-name="uni01C9" 
 />
    <glyph glyph-name="uni01CA" 
 />
    <glyph glyph-name="uni01CB" 
 />
    <glyph glyph-name="uni01CC" 
 />
    <glyph glyph-name="uni01CD" 
 />
    <glyph glyph-name="uni01CE" 
 />
    <glyph glyph-name="Gcaron" 
 />
    <glyph glyph-name="gcaron" 
 />
    <glyph glyph-name="uni01EA" 
 />
    <glyph glyph-name="uni01EB" 
 />
    <glyph glyph-name="uni01F1" 
 />
    <glyph glyph-name="uni01F2" 
 />
    <glyph glyph-name="uni01F3" 
 />
    <glyph glyph-name="uni01F4" 
 />
    <glyph glyph-name="uni01F5" 
 />
    <glyph glyph-name="AEacute" 
 />
    <glyph glyph-name="aeacute" 
 />
    <glyph glyph-name="Oslashacute" 
 />
    <glyph glyph-name="oslashacute" 
 />
    <glyph glyph-name="uni0200" 
 />
    <glyph glyph-name="uni0201" 
 />
    <glyph glyph-name="uni0202" 
 />
    <glyph glyph-name="uni0203" 
 />
    <glyph glyph-name="uni0204" 
 />
    <glyph glyph-name="uni0205" 
 />
    <glyph glyph-name="uni0206" 
 />
    <glyph glyph-name="uni0207" 
 />
    <glyph glyph-name="uni0208" 
 />
    <glyph glyph-name="uni0209" 
 />
    <glyph glyph-name="uni020A" 
 />
    <glyph glyph-name="uni020B" 
 />
    <glyph glyph-name="uni020C" 
 />
    <glyph glyph-name="uni020D" 
 />
    <glyph glyph-name="uni020E" 
 />
    <glyph glyph-name="uni020F" 
 />
    <glyph glyph-name="uni0210" 
 />
    <glyph glyph-name="uni0211" 
 />
    <glyph glyph-name="uni0212" 
 />
    <glyph glyph-name="uni0213" 
 />
    <glyph glyph-name="uni0214" 
 />
    <glyph glyph-name="uni0215" 
 />
    <glyph glyph-name="uni0216" 
 />
    <glyph glyph-name="uni0217" 
 />
    <glyph glyph-name="uni0218" 
 />
    <glyph glyph-name="uni0219" 
 />
    <glyph glyph-name="uni021A" 
 />
    <glyph glyph-name="uni021B" 
 />
    <glyph glyph-name="uni0232" 
 />
    <glyph glyph-name="uni0233" 
 />
    <glyph glyph-name="uni0237" 
 />
    <glyph glyph-name="uni02BC" 
 />
    <glyph glyph-name="circumflex" 
 />
    <glyph glyph-name="caron" 
 />
    <glyph glyph-name="breve" 
 />
    <glyph glyph-name="dotaccent" 
 />
    <glyph glyph-name="ring" 
 />
    <glyph glyph-name="ogonek" 
 />
    <glyph glyph-name="tilde" 
 />
    <glyph glyph-name="hungarumlaut" 
 />
    <glyph glyph-name="gravecomb" 
 />
    <glyph glyph-name="acutecomb" 
 />
    <glyph glyph-name="uni0302" 
 />
    <glyph glyph-name="tildecomb" 
 />
    <glyph glyph-name="uni0304" 
 />
    <glyph glyph-name="uni0306" 
 />
    <glyph glyph-name="uni0307" 
 />
    <glyph glyph-name="uni0308" 
 />
    <glyph glyph-name="uni030A" 
 />
    <glyph glyph-name="uni030B" 
 />
    <glyph glyph-name="uni030C" 
 />
    <glyph glyph-name="uni030F" 
 />
    <glyph glyph-name="uni0311" 
 />
    <glyph glyph-name="uni0312" 
 />
    <glyph glyph-name="dotbelowcomb" 
 />
    <glyph glyph-name="uni0326" 
 />
    <glyph glyph-name="uni0327" 
 />
    <glyph glyph-name="uni0328" 
 />
    <glyph glyph-name="uni0335" 
 />
    <glyph glyph-name="uni0336" 
 />
    <glyph glyph-name="uni0337" 
 />
    <glyph glyph-name="uni0338" 
 />
    <glyph glyph-name="uni1E0C" 
 />
    <glyph glyph-name="uni1E0D" 
 />
    <glyph glyph-name="uni1E24" 
 />
    <glyph glyph-name="uni1E25" 
 />
    <glyph glyph-name="uni1E44" 
 />
    <glyph glyph-name="uni1E45" 
 />
    <glyph glyph-name="uni1E5A" 
 />
    <glyph glyph-name="uni1E5B" 
 />
    <glyph glyph-name="uni1E62" 
 />
    <glyph glyph-name="uni1E63" 
 />
    <glyph glyph-name="uni1E6C" 
 />
    <glyph glyph-name="uni1E6D" 
 />
    <glyph glyph-name="Wgrave" 
 />
    <glyph glyph-name="wgrave" 
 />
    <glyph glyph-name="Wacute" 
 />
    <glyph glyph-name="wacute" 
 />
    <glyph glyph-name="Wdieresis" 
 />
    <glyph glyph-name="wdieresis" 
 />
    <glyph glyph-name="uni1E92" 
 />
    <glyph glyph-name="uni1E93" 
 />
    <glyph glyph-name="uni1E9E" 
 />
    <glyph glyph-name="uni1EA0" 
 />
    <glyph glyph-name="uni1EA1" 
 />
    <glyph glyph-name="uni1EB8" 
 />
    <glyph glyph-name="uni1EB9" 
 />
    <glyph glyph-name="uni1EBC" 
 />
    <glyph glyph-name="uni1EBD" 
 />
    <glyph glyph-name="uni1ECA" 
 />
    <glyph glyph-name="uni1ECB" 
 />
    <glyph glyph-name="uni1ECC" 
 />
    <glyph glyph-name="uni1ECD" 
 />
    <glyph glyph-name="uni1EE4" 
 />
    <glyph glyph-name="uni1EE5" 
 />
    <glyph glyph-name="Ygrave" 
 />
    <glyph glyph-name="ygrave" 
 />
    <glyph glyph-name="uni1EF8" 
 />
    <glyph glyph-name="uni1EF9" 
 />
    <glyph glyph-name="endash" 
 />
    <glyph glyph-name="emdash" 
 />
    <glyph glyph-name="quoteleft" 
 />
    <glyph glyph-name="quoteright" unicode="&#x2019;" horiz-adv-x="242" 
d="M125 702q34 0 54.5 -22t20.5 -59q0 -54 -18.5 -109.5t-47.5 -93.5h-96q38 29 67 71.5t39 83.5q-8 -4 -23 -4q-31 0 -51 19t-20 48t21 47.5t54 18.5z" />
    <glyph glyph-name="quotesinglbase" unicode="&#x201a;" horiz-adv-x="249" 
d="M125 126q34 0 54.5 -22t20.5 -59q0 -54 -18.5 -110t-47.5 -93h-96q38 28 67 71t39 84q-8 -4 -23 -4q-31 0 -51 18.5t-20 47.5t21 48t54 19z" />
    <glyph glyph-name="quotedblleft" unicode="&#x201c;" horiz-adv-x="453" 
d="M108 702h96q-38 -29 -67 -72t-39 -83q9 4 23 4q31 0 51 -19t20 -48t-21 -47.5t-54 -18.5q-34 0 -54 23.5t-20 61.5q0 53 18 107.5t47 91.5zM332 551q31 0 51 -19t20 -48q0 -28 -21.5 -47t-53.5 -19q-34 0 -54.5 23.5t-20.5 61.5q0 53 18 107.5t48 91.5h95
q-37 -29 -66 -71.5t-40 -83.5q9 4 24 4z" />
    <glyph glyph-name="quotedblright" unicode="&#x201d;" horiz-adv-x="453" 
d="M125 702q34 0 54.5 -22t20.5 -59q0 -54 -18.5 -109.5t-47.5 -93.5h-96q38 29 67 71.5t39 83.5q-8 -4 -23 -4q-31 0 -51 19t-20 48t21 47.5t54 18.5zM335 702q34 0 54.5 -22t20.5 -59q0 -54 -18 -110t-48 -93h-95q38 29 67 72t39 83q-9 -4 -23 -4q-31 0 -51.5 19t-20.5 48
q0 28 21.5 47t53.5 19z" />
    <glyph glyph-name="quotedblbase" 
 />
    <glyph glyph-name="dagger" 
 />
    <glyph glyph-name="daggerdbl" 
 />
    <glyph glyph-name="bullet" 
 />
    <glyph glyph-name="ellipsis" 
 />
    <glyph glyph-name="perthousand" 
 />
    <glyph glyph-name="guilsinglleft" 
 />
    <glyph glyph-name="guilsinglright" 
 />
    <glyph glyph-name="fraction" 
 />
    <glyph glyph-name="uni2070" 
 />
    <glyph glyph-name="uni2074" 
 />
    <glyph glyph-name="uni2075" 
 />
    <glyph glyph-name="uni2076" 
 />
    <glyph glyph-name="uni2077" 
 />
    <glyph glyph-name="uni2078" 
 />
    <glyph glyph-name="uni2079" 
 />
    <glyph glyph-name="franc" 
 />
    <glyph glyph-name="lira" 
 />
    <glyph glyph-name="peseta" 
 />
    <glyph glyph-name="uni20A8" 
 />
    <glyph glyph-name="Euro" 
 />
    <glyph glyph-name="uni20B1" 
 />
    <glyph glyph-name="uni20B5" 
 />
    <glyph glyph-name="uni20B9" 
 />
    <glyph glyph-name="uni2116" 
 />
    <glyph glyph-name="trademark" 
 />
    <glyph glyph-name="uni2150" 
 />
    <glyph glyph-name="uni2151" 
 />
    <glyph glyph-name="uni2152" 
 />
    <glyph glyph-name="uni2153" 
 />
    <glyph glyph-name="uni2154" 
 />
    <glyph glyph-name="uni2155" 
 />
    <glyph glyph-name="uni2156" 
 />
    <glyph glyph-name="uni2157" 
 />
    <glyph glyph-name="uni2158" 
 />
    <glyph glyph-name="uni2159" 
 />
    <glyph glyph-name="uni215A" 
 />
    <glyph glyph-name="oneeighth" 
 />
    <glyph glyph-name="threeeighths" 
 />
    <glyph glyph-name="fiveeighths" 
 />
    <glyph glyph-name="seveneighths" 
 />
    <glyph glyph-name="uni215F" 
 />
    <glyph glyph-name="uni2189" 
 />
    <glyph glyph-name="arrowleft" 
 />
    <glyph glyph-name="arrowup" 
 />
    <glyph glyph-name="arrowright" 
 />
    <glyph glyph-name="arrowdown" 
 />
    <glyph glyph-name="minus" unicode="&#x2212;" horiz-adv-x="724" 
d="M46 396h632v-100h-632v100z" />
    <glyph glyph-name="approxequal" 
 />
    <glyph glyph-name="notequal" 
 />
    <glyph glyph-name="lessequal" 
 />
    <glyph glyph-name="greaterequal" 
 />
    <glyph glyph-name="uni279D" 
 />
    <glyph glyph-name="uni27F5" 
 />
    <glyph glyph-name="uni27F6" 
 />
    <glyph glyph-name="A.swsh" 
 />
    <glyph glyph-name="B.swsh" 
 />
    <glyph glyph-name="D.swsh" 
 />
    <glyph glyph-name="E.swsh" 
 />
    <glyph glyph-name="F.swsh" 
 />
    <glyph glyph-name="H.swsh" 
 />
    <glyph glyph-name="I.swsh" 
 />
    <glyph glyph-name="K.swsh" 
 />
    <glyph glyph-name="L.swsh" 
 />
    <glyph glyph-name="M.swsh" 
 />
    <glyph glyph-name="N.swsh" 
 />
    <glyph glyph-name="P.swsh" 
 />
    <glyph glyph-name="R.swsh" 
 />
    <glyph glyph-name="T.swsh" 
 />
    <glyph glyph-name="U.swsh" 
 />
    <glyph glyph-name="V.swsh" 
 />
    <glyph glyph-name="W.swsh" 
 />
    <glyph glyph-name="Y.swsh" 
 />
    <glyph glyph-name="currency_acutecomb" 
 />
    <glyph glyph-name="J.ss02" 
 />
    <glyph glyph-name="currency_acutecomb.ss02" 
 />
    <glyph glyph-name="Jcircumflex.ss02" 
 />
    <glyph glyph-name="I.ss03" 
 />
    <glyph glyph-name="Iacute.ss03" 
 />
    <glyph glyph-name="Ibreve.ss03" 
 />
    <glyph glyph-name="Icircumflex.ss03" 
 />
    <glyph glyph-name="uni0208.ss03" 
 />
    <glyph glyph-name="Idieresis.ss03" 
 />
    <glyph glyph-name="Idotaccent.ss03" 
 />
    <glyph glyph-name="uni1ECA.ss03" 
 />
    <glyph glyph-name="Igrave.ss03" 
 />
    <glyph glyph-name="uni020A.ss03" 
 />
    <glyph glyph-name="Imacron.ss03" 
 />
    <glyph glyph-name="Iogonek.ss03" 
 />
    <glyph glyph-name="Itilde.ss03" 
 />
    <glyph glyph-name="i.loclTRK" 
 />
    <glyph glyph-name="j_acutecomb" 
 />
    <glyph glyph-name="a.ss01" 
 />
    <glyph glyph-name="aacute.ss01" 
 />
    <glyph glyph-name="abreve.ss01" 
 />
    <glyph glyph-name="uni01CE.ss01" 
 />
    <glyph glyph-name="acircumflex.ss01" 
 />
    <glyph glyph-name="uni0201.ss01" 
 />
    <glyph glyph-name="adieresis.ss01" 
 />
    <glyph glyph-name="uni1EA1.ss01" 
 />
    <glyph glyph-name="agrave.ss01" 
 />
    <glyph glyph-name="uni0203.ss01" 
 />
    <glyph glyph-name="amacron.ss01" 
 />
    <glyph glyph-name="aogonek.ss01" 
 />
    <glyph glyph-name="aring.ss01" 
 />
    <glyph glyph-name="atilde.ss01" 
 />
    <glyph glyph-name="f_t.dlig" 
 />
    <glyph glyph-name="t_t.dlig" 
 />
    <glyph glyph-name="zero.zero" 
 />
    <glyph glyph-name="zero.subs" 
 />
    <glyph glyph-name="one.subs" 
 />
    <glyph glyph-name="two.subs" 
 />
    <glyph glyph-name="three.subs" 
 />
    <glyph glyph-name="four.subs" 
 />
    <glyph glyph-name="five.subs" 
 />
    <glyph glyph-name="six.subs" 
 />
    <glyph glyph-name="seven.subs" 
 />
    <glyph glyph-name="eight.subs" 
 />
    <glyph glyph-name="nine.subs" 
 />
    <glyph glyph-name="zero.dnom" 
 />
    <glyph glyph-name="one.dnom" 
 />
    <glyph glyph-name="two.dnom" 
 />
    <glyph glyph-name="three.dnom" 
 />
    <glyph glyph-name="four.dnom" 
 />
    <glyph glyph-name="five.dnom" 
 />
    <glyph glyph-name="six.dnom" 
 />
    <glyph glyph-name="seven.dnom" 
 />
    <glyph glyph-name="eight.dnom" 
 />
    <glyph glyph-name="nine.dnom" 
 />
    <glyph glyph-name="zero.numr" 
 />
    <glyph glyph-name="one.numr" 
 />
    <glyph glyph-name="two.numr" 
 />
    <glyph glyph-name="three.numr" 
 />
    <glyph glyph-name="four.numr" 
 />
    <glyph glyph-name="five.numr" 
 />
    <glyph glyph-name="six.numr" 
 />
    <glyph glyph-name="seven.numr" 
 />
    <glyph glyph-name="eight.numr" 
 />
    <glyph glyph-name="nine.numr" 
 />
    <glyph glyph-name="exclamdown.case" 
 />
    <glyph glyph-name="questiondown.case" 
 />
    <glyph glyph-name="periodcentered.case" 
 />
    <glyph glyph-name="bullet.case" 
 />
    <glyph glyph-name="asterisk.case" 
 />
    <glyph glyph-name="slash.case" 
 />
    <glyph glyph-name="backslash.case" 
 />
    <glyph glyph-name="parenleft.case" 
 />
    <glyph glyph-name="parenright.case" 
 />
    <glyph glyph-name="braceleft.case" 
 />
    <glyph glyph-name="braceright.case" 
 />
    <glyph glyph-name="bracketleft.case" 
 />
    <glyph glyph-name="bracketright.case" 
 />
    <glyph glyph-name="hyphen.case" horiz-adv-x="724" 
d="M46 690h632v-100h-632v100z" />
    <glyph glyph-name="endash.case" 
 />
    <glyph glyph-name="emdash.case" 
 />
    <glyph glyph-name="guillemotleft.case" 
 />
    <glyph glyph-name="guillemotright.case" 
 />
    <glyph glyph-name="guilsinglleft.case" 
 />
    <glyph glyph-name="guilsinglright.case" 
 />
    <glyph glyph-name="plus.case" 
 />
    <glyph glyph-name="at.case" 
 />
    <glyph glyph-name="uni030C.alt" 
 />
    <glyph glyph-name="caron.alt" 
 />
    <glyph glyph-name="uni3008" unicode="&#x3008;" horiz-adv-x="424" 
d="M383 667l-267 -321l268 -321l-29 -25l-285 348l285 342z" />
    <glyph glyph-name="uni3009" unicode="&#x3009;" horiz-adv-x="424" 
d="M41 23l267 321l-268 321l29 25l285 -348l-285 -342z" />
    <glyph glyph-name="uniFE3F" unicode="&#xfe3f;" horiz-adv-x="770" 
d="M66 189l-26 26l349 286l341 -285l-20 -27l-323 266z" />
    <glyph glyph-name="uniFE40" unicode="&#xfe40;" horiz-adv-x="770" 
d="M389 188l-349 285l26 29l321 -268l320 267l23 -28z" />
    <glyph glyph-name="equivalence" unicode="&#x2261;" horiz-adv-x="724" 
d="M46 690h632v-100h-632v100zM46 396h632v-100h-632v100zM46 100h632v-100h-632v100z" />
    <glyph glyph-name="uni2225" unicode="&#x2225;" horiz-adv-x="782" 
d="M146 690l1 -690h-100l-1 690h100zM441 690l1 -691l-100 1v690h99zM736 690v-689h-100v689h100z" />
    <glyph glyph-name="uni207B" unicode="&#x207b;" horiz-adv-x="724" 
d="M46 690h632v-100h-632v100z" />
    <glyph glyph-name="uni208B" unicode="&#x208b;" horiz-adv-x="724" 
d="M46 100h632v-100h-632v100z" />
    </font>
</defs>
</svg>
