<?xml version="1.0" encoding="utf-8"?>
<!-- Generator: Adobe Illustrator 22.0.1, SVG Export Plug-In . SVG Version: 6.00 Build 0)  -->
<svg version="1.1" id="Layer_1" xmlns="http://www.w3.org/2000/svg" xmlns:xlink="http://www.w3.org/1999/xlink" x="0px" y="0px"
	 viewBox="0 0 288 474" style="enable-background:new 0 0 288 474;" xml:space="preserve">
<style type="text/css">
	.st0{fill:#56C2ED;}
</style>
<g>
	<path class="st0" d="M261.5,340.2H288V474h-98.5V340.2h-22.4v-54.3c-7.5,1.4-14.9,2-23.1,2s-15.6-0.7-23.1-2v54.3H97.8V474H0V340.2
		h25.8V226.8C9.5,203.7,0,175.1,0,144.6c0-79.5,64.5-144,144-144s144,64.5,144,144c0,31.2-9.5,59.8-26.5,82.9V340.2z M144,196.2
		c25.1,0,45.5-23.1,45.5-51.6c0-29.2-20.4-52.3-45.5-52.3c-25.8,0-46.2,23.1-46.2,52.3C97.8,173.1,118.2,196.2,144,196.2z"/>
</g>
</svg>
