<?xml version="1.0" encoding="utf-8"?>
<!-- Generator: Adobe Illustrator 25.4.1, SVG Export Plug-In . SVG Version: 6.00 Build 0)  -->
<svg version="1.1" id="Layer_1" xmlns="http://www.w3.org/2000/svg" xmlns:xlink="http://www.w3.org/1999/xlink" x="0px" y="0px"
	 viewBox="0 0 1960 1000" style="enable-background:new 0 0 1960 1000;" xml:space="preserve">
<style type="text/css">
	.st0{fill:#FF0000;}
</style>
<g>
	<g>
		<path class="st0" d="M196.1,484.5c-60.6-12.6-108.4-30.4-143.4-53.3C17.5,408.3,0,381.9,0,351.8c0-30.1,17.5-56.5,52.6-79.4
			s82.9-40.7,143.4-53.3c60.5-12.6,127.6-19,201.1-19c76.9,0,145.3,8.4,205.8,25c60.3,16.7,106.5,38.4,138.4,65.1v123.2
			c-32,27.2-78.1,49-138.4,65.5c-60.3,16.4-128.9,24.6-205.7,24.6C323.6,503.5,256.6,497.1,196.1,484.5z M553.2,459.5
			c53.4-11.2,96-26.4,127.7-45.5c31.7-19.1,47.6-39.9,47.6-62.2c0-22.9-15.9-43.9-47.6-63c-31.7-19.1-74.3-34.1-127.7-45.1
			s-110.9-16.4-172.5-16.4c-64.5,0-123.4,5.8-177.1,17.5c-53.6,11.7-95.9,27.2-126.7,46.5c-30.7,19.3-46.1,39.4-46.1,60.4
			c0,21,15.4,41.1,46.1,60.4c30.7,19.3,73,34.9,126.7,46.5c53.6,11.7,112.7,17.5,177.1,17.5C442.3,476.3,499.7,470.7,553.2,459.5z
			 M692.8,441.2l48.7-89.5l-48.7-82.3l-125.3-52.3h183.2v275.5H536L692.8,441.2z"/>
		<path class="st0" d="M801.1,4.7h62.2v253.4v36.5v110.2v88h-62.2V4.7z M868.7,469.9c-19.3-22.4-30.6-53.4-34-93.1l-1.5-25
			c0-47.3,9.9-84.3,29.7-111.3c19.8-26.9,45.7-40.4,77.6-40.4c19.5,0,37.5,6.8,54.1,20.4c16.4,13.6,29.5,32,39,55.1
			c9.5,23.1,14.3,48.6,14.3,76.2c0,27.7-4.8,53.1-14.3,76.2c-9.5,23.1-22.6,41.6-39,55.1c-16.4,13.6-34.5,20.4-54.1,20.4
			C912.1,503.5,888,492.2,868.7,469.9z M979.6,459.5c12.2-11.2,21.8-26.4,28.9-45.5c7.2-19.1,10.7-39.9,10.7-62.2
			c0-22.4-3.6-43.1-10.7-62.2c-7.2-19.1-16.9-34.2-28.9-45.5c-12.2-11.2-24.9-16.9-38.3-16.9c-14.3,0-27.4,5.5-39,16.4
			c-11.7,11-20.8,26-27.2,45.1c-6.5,19.1-9.6,40.1-9.6,63s3.2,43.9,9.6,63c6.5,19.1,15.5,34.1,27.2,45.1c11.7,11,24.7,16.4,39,16.4
			C954.7,476.3,967.5,470.7,979.6,459.5z"/>
		<path class="st0" d="M1079.2,4.7h98.1v488.1h-98.1V4.7z"/>
		<path class="st0" d="M1401.1,484.5c-60.6-12.6-108.4-30.4-143.4-53.3c-35.1-22.9-52.6-49.4-52.6-79.4c0-30,17.5-56.5,52.6-79.4
			c35.1-22.9,82.9-40.7,143.4-53.3c60.5-12.6,127.6-19,201.1-19c78.8,0,149.8,7.3,213.3,21.8c63.4,14.5,111.2,34.5,143.1,59.8
			l-27.9,16.4c-31.1-21-75.8-38.1-134.2-51.2c-58.4-13.1-123.2-19.7-194.3-19.7c-67.7,0-129.6,5.8-185.7,17.5
			c-56.1,11.7-100.2,27.2-132.4,46.5s-48.3,39.4-48.3,60.4c0,21,16.1,41.1,48.3,60.4c32.2,19.3,76.3,34.9,132.4,46.5
			c56.1,11.7,118,17.5,185.7,17.5c71.6,0,136.4-6.5,194.6-19.3c58.2-12.9,102.8-29.8,133.8-50.8l29.4,15.8
			c-32,25.3-79.8,45.2-143.4,59.8c-63.7,14.5-135.2,21.8-214.4,21.8C1528.8,503.5,1461.7,497.1,1401.1,484.5z M1461.2,364.7
			l457.3-216.2l35.1,51.5l-458,216.2L1461.2,364.7z"/>
	</g>
	<g>
		<path class="st0" d="M66,978c-17-10-30.5-23.4-40.5-40.5c-10-17-14.9-35.6-14.9-56c0-20.4,5-39,14.9-56S49,795,66,785
			c17-10,35.6-14.9,56-14.9c21.7,0,41,5.8,57.9,17.6s29.8,27.5,38.9,47.1v93.6c-8.8,19.6-21.6,35.3-38.7,47.1
			c-17,11.8-36.4,17.6-58.1,17.6C101.7,992.9,83,987.9,66,978z M163,960.6c13.7-8.3,24.5-19.4,32.3-33.4c7.8-14,11.9-29.3,11.9-45.8
			c0-16.4-4-31.7-12.1-45.8c-8.1-14-18.9-25.1-32.3-33.4c-13.5-8.3-28-12.4-43.4-12.4c-16.4,0-31.5,4-44.9,12.1
			C61.1,809.9,50.5,821,42.7,835c-7.7,14-11.6,29.5-11.6,46.2c0,16.9,3.8,32.2,11.6,46.2c7.7,14,18.3,25,31.8,33.1
			c13.5,8.1,28.5,12.1,44.9,12.1C134.8,973,149.4,968.9,163,960.6z M201.4,948.3l17.4-66.8l-17.4-66.8L152,782.6h73.6v202.5h-72.1
			L201.4,948.3z"/>
		<path class="st0" d="M261.1,626.4h73.6v158.8l-62.5,49.4v93.6l61,56.8H261V626.4H261.1z M306.6,975.3
			c-17-11.8-29.9-27.5-38.7-47.1v-93.6c9.1-19.6,22-35.3,38.9-47.1c16.9-11.8,36.1-17.6,57.9-17.6c20.4,0,39,5,56,14.9
			c17,10,30.5,23.5,40.5,40.5c10,17,14.9,35.6,14.9,56s-5,39-14.9,56c-10,17-23.5,30.5-40.5,40.5c-17,10-35.6,14.9-56,14.9
			C342.9,992.9,323.5,987.1,306.6,975.3z M412.3,960.9c13.5-8.1,24.1-19.1,31.8-33.1c7.7-14,11.6-29.5,11.6-46.2
			c0-16.9-3.8-32.2-11.6-46.2s-18.3-25-31.8-33.1c-13.5-8.1-28.5-12.1-44.9-12.1c-15.5,0-29.9,4.1-43.4,12.4
			c-13.5,8.3-24.3,19.4-32.3,33.4c-8.1,14-12.1,29.3-12.1,45.8c0,16.4,3.9,31.7,11.9,45.8c7.8,14,18.7,25.1,32.3,33.4
			c13.7,8.3,28.2,12.4,43.7,12.4C383.8,973,398.8,969,412.3,960.9z"/>
		<path class="st0" d="M499,626.4h144.1v358.6H499V626.4z"/>
		<path class="st0" d="M764.4,979c-31.2-9.3-55.9-22.4-73.9-39.2c-18-16.9-27-36.3-27-58.4c0-22,9-41.6,27-58.4
			c18-16.9,42.7-29.9,73.9-39.2c31.2-9.3,65.7-13.9,103.6-13.9c40.3,0,76.8,5.3,109.4,16c32.7,10.7,57.1,25.3,73.6,43.9l-14.2,12.1
			c-15.8-15.4-38.7-28-68.9-37.6c-30.1-9.6-63.5-14.4-99.9-14.4c-34.7,0-65.9,4.3-93.8,12.9c-27.9,8.6-49.7,19.9-65.5,33.9
			c-15.8,14-23.6,28.9-23.6,44.7s7.8,30.6,23.6,44.7c15.8,14,37.6,25.3,65.5,33.9c27.9,8.6,59.2,12.9,93.8,12.9
			c36.8,0,70.2-4.8,100.2-14.2s52.8-21.9,68.6-37.3L1052,933c-16.4,18.6-41.1,33.2-73.9,43.9c-32.8,10.7-69.5,16-110.1,16
			C830.2,992.9,795.7,988.3,764.4,979z M846,844.1h293.4v45.3H846V844.1z"/>
	</g>
</g>
</svg>
