<?xml version="1.0" encoding="utf-8"?>
<!-- Generator: Adobe Illustrator 22.0.1, SVG Export Plug-In . SVG Version: 6.00 Build 0)  -->
<svg version="1.1" id="Layer_1" xmlns="http://www.w3.org/2000/svg" xmlns:xlink="http://www.w3.org/1999/xlink" x="0px" y="0px"
	 viewBox="0 0 196.5 201.7" style="enable-background:new 0 0 196.5 201.7;" xml:space="preserve">
<style type="text/css">
	.st0{fill:#FFFFFF;}
</style>
<g>
	<g>
		
			<rect x="97.3" y="74.5" transform="matrix(0.5316 -0.847 0.847 0.5316 -17.0398 118.6354)" class="st0" width="2.9" height="0.5"/>
		
			<rect x="97.1" y="72.8" transform="matrix(0.2951 -0.9555 0.9555 0.2951 -0.6408 145.8745)" class="st0" width="2.9" height="1.1"/>
		<rect x="96.7" y="59.1" transform="matrix(0.4895 -0.872 0.872 0.4895 -3.366 115.4477)" class="st0" width="0.4" height="2.9"/>
		
			<rect x="99.9" y="72.5" transform="matrix(6.080527e-02 -0.9981 0.9981 6.080527e-02 20.3613 169.4485)" class="st0" width="0.7" height="2.9"/>
		
			<rect x="93.3" y="63.3" transform="matrix(0.9646 -0.2638 0.2638 0.9646 -13.7394 27.0983)" class="st0" width="1.4" height="2.9"/>
		
			<rect x="104.4" y="75.1" transform="matrix(0.9049 -0.4256 0.4256 0.9049 -22.4268 52.2981)" class="st0" width="2.9" height="2.6"/>
		
			<rect x="104.2" y="68.5" transform="matrix(0.9211 -0.3894 0.3894 0.9211 -18.9327 46.5518)" class="st0" width="2.4" height="2.9"/>
		
			<rect x="89.5" y="62.1" transform="matrix(0.8079 -0.5894 0.5894 0.8079 -20.1956 65.247)" class="st0" width="0.9" height="2.9"/>
		<rect x="91" y="72" transform="matrix(0.8051 -0.5931 0.5931 0.8051 -25.18 69.0301)" class="st0" width="2.9" height="1.7"/>
		
			<rect x="90.6" y="78.3" transform="matrix(0.9973 -7.343738e-02 7.343738e-02 0.9973 -5.6114 6.946)" class="st0" width="2.1" height="2.9"/>
		
			<rect x="100.8" y="82.1" transform="matrix(0.8175 -0.5759 0.5759 0.8175 -29.3193 74.0597)" class="st0" width="2.9" height="2.5"/>
		<rect x="111.1" y="76.6" transform="matrix(0.204 -0.979 0.979 0.204 13.3747 172.0862)" class="st0" width="2.9" height="2.3"/>
		
			<rect x="85.9" y="68.5" transform="matrix(0.2864 -0.9581 0.9581 0.2864 -5.1334 133.0201)" class="st0" width="1.7" height="2.9"/>
		
			<rect x="91.1" y="68.8" transform="matrix(0.9457 -0.3249 0.3249 0.9457 -17.8106 33.8129)" class="st0" width="2.4" height="2.9"/>
		
			<rect x="107" y="74.8" transform="matrix(0.4924 -0.8704 0.8704 0.4924 -11.4458 132.9211)" class="st0" width="2.4" height="2.9"/>
		<rect x="99.1" y="68.2" transform="matrix(0.8802 -0.4746 0.4746 0.8802 -21.05 55.9359)" class="st0" width="2.5" height="2.9"/>
		
			<rect x="111.7" y="67" transform="matrix(0.9954 -9.598043e-02 9.598043e-02 0.9954 -6.0257 11.1779)" class="st0" width="2.9" height="2.4"/>
		
			<rect x="96.4" y="70" transform="matrix(0.9955 -9.499986e-02 9.499986e-02 0.9955 -6.3422 9.5899)" class="st0" width="2.2" height="2.9"/>
		
			<rect x="106.3" y="82.4" transform="matrix(0.1129 -0.9936 0.9936 0.1129 12.0117 181.0713)" class="st0" width="2.2" height="2.9"/>
		
			<rect x="94.2" y="75.4" transform="matrix(0.6229 -0.7823 0.7823 0.6229 -23.8753 103.7678)" class="st0" width="2.9" height="2.4"/>
		<rect x="96.7" y="82.2" transform="matrix(0.879 -0.4768 0.4768 0.879 -28.0496 56.7753)" class="st0" width="2.4" height="2.9"/>
		<rect x="102.5" y="71.3" transform="matrix(0.603 -0.7977 0.7977 0.603 -16.9668 111.48)" class="st0" width="2.1" height="2.9"/>
		
			<rect x="96.5" y="80.4" transform="matrix(0.1267 -0.9919 0.9919 0.1267 3.7052 167.9877)" class="st0" width="1.6" height="2.9"/>
		<rect x="90.3" y="79.9" transform="matrix(0.9052 -0.425 0.425 0.9052 -25.9088 46.5266)" class="st0" width="2.1" height="2.9"/>
		
			<rect x="84.3" y="86.8" transform="matrix(0.337 -0.9415 0.9415 0.337 -25.9771 139.0388)" class="st0" width="2.9" height="2.4"/>
		
			<rect x="88.7" y="83.1" transform="matrix(0.9633 -0.2686 0.2686 0.9633 -19.3183 27.3108)" class="st0" width="2.9" height="2.3"/>
		
			<rect x="96.1" y="86.4" transform="matrix(0.5375 -0.8433 0.8433 0.5375 -29.1112 122.6695)" class="st0" width="2.3" height="2.9"/>
		
			<rect x="99.5" y="87.2" transform="matrix(0.9706 -0.2405 0.2405 0.9706 -18.3847 26.7437)" class="st0" width="1.6" height="2.9"/>
		
			<rect x="116.3" y="77.4" transform="matrix(0.1269 -0.9919 0.9919 0.1269 25.5669 184.7782)" class="st0" width="2.9" height="1"/>
		<rect x="83.4" y="84.2" transform="matrix(0.8139 -0.581 0.581 0.8139 -33.2377 64.9911)" class="st0" width="2.9" height="0.4"/>
		
			<rect x="96.9" y="82.8" transform="matrix(0.6039 -0.7971 0.7971 0.6039 -28.6032 111.0245)" class="st0" width="0.9" height="2.9"/>
		
			<rect x="95.5" y="75.5" transform="matrix(0.8919 -0.4521 0.4521 0.8919 -24.0418 52.0945)" class="st0" width="2.9" height="1.7"/>
		
			<rect x="98.3" y="85.4" transform="matrix(0.4206 -0.9072 0.9072 0.4206 -20.801 140.6244)" class="st0" width="2.9" height="2.4"/>
		
			<rect x="107.8" y="80.5" transform="matrix(0.9992 -3.992662e-02 3.992662e-02 0.9992 -3.1663 4.4267)" class="st0" width="2.9" height="1.9"/>
		
			<rect x="102" y="72" transform="matrix(8.082712e-02 -0.9967 0.9967 8.082712e-02 22.1521 170.4519)" class="st0" width="2.9" height="2.3"/>
		
			<rect x="109" y="90.8" transform="matrix(2.728554e-02 -0.9996 0.9996 2.728554e-02 14.5554 199.4396)" class="st0" width="1.5" height="2.9"/>
		<rect x="110.7" y="79.3" transform="matrix(0.9827 -0.1851 0.1851 0.9827 -13.017 22.03)" class="st0" width="1.6" height="2.9"/>
		
			<rect x="120" y="89.2" transform="matrix(0.4214 -0.9069 0.9069 0.4214 -12.5369 161.5747)" class="st0" width="0.7" height="2.9"/>
		
			<rect x="75.5" y="92.8" transform="matrix(0.2917 -0.9565 0.9565 0.2917 -36.5553 139.1493)" class="st0" width="0.5" height="2.9"/>
		<rect x="90.1" y="80.7" transform="matrix(0.9741 -0.2261 0.2261 0.9741 -16.2251 22.597)" class="st0" width="1" height="2.9"/>
		
			<rect x="99.4" y="94.8" transform="matrix(0.9821 -0.1883 0.1883 0.9821 -16.129 20.6962)" class="st0" width="2.9" height="0.8"/>
		
			<rect x="99.7" y="77.7" transform="matrix(0.1282 -0.9917 0.9917 0.1282 10.7301 168.3962)" class="st0" width="2.9" height="0.8"/>
		<rect x="85" y="76.8" transform="matrix(0.7385 -0.6742 0.6742 0.7385 -30.3286 78.2309)" class="st0" width="1.3" height="2.9"/>
		
			<rect x="106.1" y="80.3" transform="matrix(0.8243 -0.5662 0.5662 0.8243 -27.0428 75.169)" class="st0" width="2.9" height="1.8"/>
		
			<rect x="96.2" y="76.6" transform="matrix(0.9495 -0.3137 0.3137 0.9495 -19.3898 34.547)" class="st0" width="2.9" height="1.8"/>
		
			<rect x="107.6" y="83.9" transform="matrix(5.205443e-02 -0.9986 0.9986 5.205443e-02 18.9364 189.0429)" class="st0" width="2.9" height="1.2"/>
		
			<rect x="101.3" y="85.9" transform="matrix(0.9945 -0.1044 0.1044 0.9945 -8.4729 11.1956)" class="st0" width="2.9" height="1.4"/>
		<rect x="97.9" y="78.3" transform="matrix(0.3384 -0.941 0.941 0.3384 -8.5132 145.6395)" class="st0" width="2.9" height="1.2"/>
		
			<rect x="109" y="93.3" transform="matrix(0.7098 -0.7044 0.7044 0.7098 -35.0378 104.3888)" class="st0" width="0.4" height="2.9"/>
		<polygon class="st0" points="94.6,87.2 92,86.1 92.1,85.8 94.8,86.9 		"/>
		
			<rect x="90.7" y="96.8" transform="matrix(0.7249 -0.6889 0.6889 0.7249 -42.5605 89.8443)" class="st0" width="1.1" height="2.9"/>
		
			<rect x="93.6" y="96.8" transform="matrix(0.9995 -3.108545e-02 3.108545e-02 0.9995 -2.9874 3.001)" class="st0" width="2.9" height="1.6"/>
		
			<rect x="88.1" y="81.9" transform="matrix(0.7255 -0.6882 0.6882 0.7255 -32.2244 84.2972)" class="st0" width="2.9" height="1.3"/>
		
			<rect x="102.9" y="85.3" transform="matrix(0.9742 -0.2257 0.2257 0.9742 -16.911 25.6142)" class="st0" width="1.3" height="2.9"/>
		
			<rect x="102.2" y="79.8" transform="matrix(0.5125 -0.8587 0.8587 0.5125 -19.6708 127.9255)" class="st0" width="1.3" height="2.9"/>
		
			<rect x="102.4" y="89.3" transform="matrix(0.7471 -0.6647 0.6647 0.7471 -34.2103 91.6317)" class="st0" width="1.8" height="2.9"/>
		
			<rect x="98.5" y="87.2" transform="matrix(0.2962 -0.9551 0.9551 0.2962 -13.6205 157.3463)" class="st0" width="2.9" height="1.5"/>
		
			<rect x="109.5" y="85.5" transform="matrix(0.6227 -0.7825 0.7825 0.6227 -26.5136 119.0035)" class="st0" width="1.3" height="2.9"/>
		
			<rect x="100.1" y="82.3" transform="matrix(0.8744 -0.4851 0.4851 0.8744 -27.9971 59.4001)" class="st0" width="1.2" height="2.9"/>
		
			<rect x="112.3" y="90.4" transform="matrix(0.5474 -0.8368 0.8368 0.5474 -25.7009 136.0746)" class="st0" width="1.3" height="2.9"/>
		
			<rect x="103.6" y="95.1" transform="matrix(1 -2.341914e-03 2.341914e-03 1 -0.223 0.2462)" class="st0" width="2.9" height="0.4"/>
		<polygon class="st0" points="74,81.8 72.1,79.7 72.4,79.3 74.4,81.4 		"/>
		<rect x="91.2" y="82.3" transform="matrix(0.855 -0.5186 0.5186 0.855 -30.1633 59.7031)" class="st0" width="1" height="2.9"/>
		<rect x="79.6" y="80.3" transform="matrix(0.638 -0.7701 0.7701 0.638 -33.0466 91.7267)" class="st0" width="2.9" height="1.4"/>
		
			<rect x="85.8" y="96.3" transform="matrix(0.4362 -0.8998 0.8998 0.4362 -38.0009 133.0735)" class="st0" width="2.9" height="1.2"/>
		<rect x="84" y="84" transform="matrix(0.7388 -0.6739 0.6739 0.7388 -35.4748 79.3416)" class="st0" width="1.3" height="2.9"/>
		
			<rect x="100.7" y="80.9" transform="matrix(0.4672 -0.8841 0.8841 0.4672 -17.5999 133.6853)" class="st0" width="2.9" height="1.1"/>
		
			<rect x="83.3" y="88.7" transform="matrix(0.3185 -0.9479 0.9479 0.3185 -26.8351 141.1929)" class="st0" width="2.9" height="1.1"/>
		
			<rect x="95.9" y="88.1" transform="matrix(0.2862 -0.9582 0.9582 0.2862 -16.9122 156.3774)" class="st0" width="1.2" height="2.9"/>
		
			<rect x="93.1" y="90.5" transform="matrix(0.4972 -0.8676 0.8676 0.4972 -31.5988 127.8659)" class="st0" width="2.9" height="1.4"/>
		
			<rect x="94.5" y="88.7" transform="matrix(0.9307 -0.3659 0.3659 0.9307 -26.0402 41.3026)" class="st0" width="2.9" height="1.3"/>
		
			<rect x="98.2" y="97.7" transform="matrix(0.1078 -0.9942 0.9942 0.1078 -8.821 186.8339)" class="st0" width="2.9" height="1.3"/>
		
			<rect x="107.6" y="90.9" transform="matrix(0.9884 -0.1518 0.1518 0.9884 -12.7688 17.4959)" class="st0" width="1.3" height="2.9"/>
		
			<rect x="108.3" y="83.3" transform="matrix(0.7577 -0.6526 0.6526 0.7577 -28.9323 91.5776)" class="st0" width="1.1" height="2.9"/>
		
			<rect x="114.6" y="100.6" transform="matrix(0.5044 -0.8635 0.8635 0.5044 -29.5266 150.201)" class="st0" width="2.9" height="0.4"/>
		
			<rect x="70.1" y="96.5" transform="matrix(0.9684 -0.2493 0.2493 0.9684 -22.1894 20.6453)" class="st0" width="0.7" height="2.9"/>
		
			<rect x="81.5" y="103.9" transform="matrix(0.656 -0.7548 0.7548 0.656 -50.4395 98.5707)" class="st0" width="2.9" height="1.5"/>
		
			<rect x="78.3" y="89.6" transform="matrix(0.2301 -0.9732 0.9732 0.2301 -28.0873 146.6115)" class="st0" width="0.6" height="2.9"/>
		
			<rect x="84.2" y="83.5" transform="matrix(0.6281 -0.7782 0.7782 0.6281 -34.7236 97.2977)" class="st0" width="0.5" height="2.9"/>
		
			<rect x="96.9" y="101.3" transform="matrix(0.1433 -0.9897 0.9897 0.1433 -16.5525 184.5976)" class="st0" width="2.9" height="1.2"/>
		
			<rect x="86.8" y="96.4" transform="matrix(5.334630e-02 -0.9986 0.9986 5.334630e-02 -13.3547 179.9455)" class="st0" width="2.9" height="1.2"/>
		
			<rect x="83.7" y="102.9" transform="matrix(0.7814 -0.6241 0.6241 0.7814 -45.9886 75.7694)" class="st0" width="2.9" height="1.3"/>
		
			<rect x="95.6" y="83.3" transform="matrix(9.081236e-02 -0.9959 0.9959 9.081236e-02 4.4647 173.1652)" class="st0" width="2.9" height="1.6"/>
		<rect x="94.6" y="90.5" transform="matrix(0.2547 -0.967 0.967 0.2547 -16.6104 160.843)" class="st0" width="2.9" height="1.4"/>
		
			<rect x="109" y="93.9" transform="matrix(0.2784 -0.9605 0.9605 0.2784 -11.1452 174.2808)" class="st0" width="2.9" height="1.3"/>
		
			<rect x="109.3" y="103" transform="matrix(0.9682 -0.2501 0.2501 0.9682 -22.6347 30.7563)" class="st0" width="0.8" height="2.9"/>
		
			<rect x="70.2" y="89.7" transform="matrix(0.7907 -0.6122 0.6122 0.7907 -41.0726 62.251)" class="st0" width="0.6" height="2.9"/>
		<rect x="72.8" y="99.4" transform="matrix(0.24 -0.9708 0.9708 0.24 -42.2702 147.6468)" class="st0" width="0.7" height="2.9"/>
		<rect x="72.7" y="85.7" transform="matrix(0.4749 -0.88 0.88 0.4749 -36.6107 110.3128)" class="st0" width="2.9" height="0.4"/>
		<rect x="75.8" y="96.4" transform="matrix(0.5836 -0.812 0.812 0.5836 -47.6523 102.855)" class="st0" width="1.3" height="2.9"/>
		
			<rect x="80.4" y="97.2" transform="matrix(0.9992 -4.070697e-02 4.070697e-02 0.9992 -3.9225 3.4145)" class="st0" width="2.9" height="1.6"/>
		
			<rect x="92.3" y="86.5" transform="matrix(0.6403 -0.7682 0.7682 0.6403 -33.2516 103.3432)" class="st0" width="2.9" height="1.4"/>
		
			<rect x="91.1" y="102.2" transform="matrix(9.095127e-03 -1 1 9.095127e-03 -12.5383 194.5551)" class="st0" width="1.6" height="2.9"/>
		
			<rect x="105.1" y="94" transform="matrix(0.8048 -0.5936 0.5936 0.8048 -36.0233 81.4549)" class="st0" width="1.4" height="2.9"/>
		
			<rect x="92.1" y="91.8" transform="matrix(0.9279 -0.3728 0.3728 0.9279 -27.7016 41.5544)" class="st0" width="2.9" height="1.3"/>
		
			<rect x="107.9" y="104.4" transform="matrix(0.9159 -0.4014 0.4014 0.9159 -33.3602 52.525)" class="st0" width="1.5" height="2.9"/>
		
			<rect x="103.7" y="105.7" transform="matrix(0.4472 -0.8944 0.8944 0.4472 -36.5546 152.5937)" class="st0" width="2.9" height="0.4"/>
		<polygon class="st0" points="67.6,97.5 65.7,95.3 65.8,95.2 67.7,97.4 		"/>
		<rect x="87.6" y="88.3" transform="matrix(0.7993 -0.601 0.601 0.7993 -35.6444 71.3999)" class="st0" width="2.9" height="1.4"/>
		<rect x="86" y="102" transform="matrix(0.9297 -0.3682 0.3682 0.9297 -31.663 39.4211)" class="st0" width="2.9" height="1.3"/>
		
			<rect x="79.6" y="106.5" transform="matrix(0.6656 -0.7463 0.7463 0.6656 -53.7507 95.9112)" class="st0" width="1.1" height="2.9"/>
		
			<rect x="75.1" y="89.3" transform="matrix(0.9998 -1.801509e-02 1.801509e-02 0.9998 -1.6026 1.3942)" class="st0" width="2.9" height="0.7"/>
		
			<rect x="92.3" y="95.9" transform="matrix(0.5589 -0.8292 0.8292 0.5589 -38.6057 120.2993)" class="st0" width="2.9" height="1.2"/>
		
			<rect x="91.8" y="87.9" transform="matrix(0.6272 -0.7789 0.7789 0.6272 -34.2808 105.7007)" class="st0" width="2.9" height="1.6"/>
		
			<rect x="86.3" y="105.3" transform="matrix(0.8874 -0.461 0.461 0.8874 -39.4149 52.1406)" class="st0" width="1.5" height="2.9"/>
		
			<rect x="97.3" y="105.7" transform="matrix(0.9153 -0.4027 0.4027 0.9153 -34.8423 48.5425)" class="st0" width="1.3" height="2.9"/>
		
			<rect x="97.7" y="103.6" transform="matrix(0.9985 -5.491028e-02 5.491028e-02 0.9985 -5.6188 5.565)" class="st0" width="1.5" height="2.9"/>
		
			<rect x="100.2" y="94.2" transform="matrix(0.7798 -0.626 0.626 0.7798 -37.0957 84.5543)" class="st0" width="2.9" height="1.5"/>
		
			<rect x="96.6" y="97.8" transform="matrix(0.6178 -0.7863 0.7863 0.6178 -39.5596 114.5762)" class="st0" width="2.9" height="0.4"/>
		
			<rect x="77.7" y="111.3" transform="matrix(0.3539 -0.9353 0.9353 0.3539 -53.2372 146.1595)" class="st0" width="2.9" height="0.7"/>
		<rect x="66.2" y="100.7" transform="matrix(0.994 -0.109 0.109 0.994 -10.7304 7.9507)" class="st0" width="2.3" height="2.9"/>
		
			<rect x="77.2" y="101.6" transform="matrix(0.8407 -0.5415 0.5415 0.8407 -42.8758 58.902)" class="st0" width="2.9" height="1.3"/>
		
			<rect x="82.3" y="96.9" transform="matrix(0.9984 -5.728284e-02 5.728284e-02 0.9984 -5.4354 4.9547)" class="st0" width="2.9" height="0.8"/>
		
			<rect x="82.4" y="92.6" transform="matrix(0.7572 -0.6532 0.6532 0.7572 -40.6216 77.4321)" class="st0" width="2.9" height="1.6"/>
		
			<rect x="90.8" y="109.6" transform="matrix(0.7825 -0.6226 0.6226 0.7825 -49.2112 81.1776)" class="st0" width="1.5" height="2.9"/>
		
			<rect x="93.3" y="109.1" transform="matrix(0.4702 -0.8826 0.8826 0.4702 -46.7499 141.8235)" class="st0" width="2.9" height="1.4"/>
		
			<rect x="92.2" y="91.2" transform="matrix(0.8464 -0.5325 0.5325 0.8464 -34.593 63.9698)" class="st0" width="2.9" height="1.5"/>
		
			<rect x="99.7" y="93.5" transform="matrix(0.4328 -0.9015 0.9015 0.4328 -27.5231 144.6227)" class="st0" width="2.9" height="1.3"/>
		
			<rect x="105.3" y="107.9" transform="matrix(0.6866 -0.727 0.727 0.6866 -46.4585 110.9791)" class="st0" width="0.4" height="2.9"/>
		
			<rect x="82.6" y="105.8" transform="matrix(0.7626 -0.6469 0.6469 0.7626 -48.6689 79.585)" class="st0" width="2.9" height="0.6"/>
		
			<rect x="77.1" y="104.3" transform="matrix(0.7958 -0.6056 0.6056 0.7958 -47.7038 69.0518)" class="st0" width="2.9" height="2"/>
		
			<rect x="84.3" y="105.3" transform="matrix(0.4866 -0.8736 0.8736 0.4866 -49.7282 128.8568)" class="st0" width="0.9" height="2.9"/>
		
			<rect x="80.1" y="106.1" transform="matrix(0.193 -0.9812 0.9812 0.193 -38.9971 166.1882)" class="st0" width="2.9" height="1.4"/>
		
			<rect x="98.4" y="105.5" transform="matrix(0.1924 -0.9813 0.9813 0.1924 -23.537 183.6658)" class="st0" width="2.9" height="1.3"/>
		
			<rect x="88.5" y="100.6" transform="matrix(0.8192 -0.5735 0.5735 0.8192 -41.833 69.8941)" class="st0" width="2.9" height="1.3"/>
		<rect x="99" y="96.2" transform="matrix(0.8366 -0.5478 0.5478 0.8366 -36.6696 70.8345)" class="st0" width="2.9" height="1.4"/>
		
			<rect x="111.9" y="103" transform="matrix(0.4129 -0.9108 0.9108 0.4129 -29.2055 163.6575)" class="st0" width="0.9" height="2.9"/>
		
			<rect x="89.8" y="113.9" transform="matrix(0.9951 -9.853640e-02 9.853640e-02 0.9951 -10.9273 9.454)" class="st0" width="0.8" height="2.9"/>
		
			<rect x="78.3" y="97.9" transform="matrix(0.9546 -0.2978 0.2978 0.9546 -26.0084 28.0283)" class="st0" width="1.4" height="2.9"/>
		
			<rect x="94.4" y="101.7" transform="matrix(0.4098 -0.9122 0.9122 0.4098 -37.8447 147.8234)" class="st0" width="1.8" height="2.9"/>
		
			<rect x="82.3" y="111.9" transform="matrix(0.8059 -0.5921 0.5921 0.8059 -50.9842 71.1808)" class="st0" width="1.5" height="2.9"/>
		
			<rect x="94.4" y="100.3" transform="matrix(0.1174 -0.9931 0.9931 0.1174 -15.7686 184.4334)" class="st0" width="2.9" height="1.6"/>
		<rect x="99.6" y="95.8" transform="matrix(0.8105 -0.5857 0.5857 0.8105 -38.0264 77.0367)" class="st0" width="1" height="2.9"/>
		
			<rect x="75.2" y="112" transform="matrix(0.6257 -0.7801 0.7801 0.6257 -60.2541 101.4005)" class="st0" width="0.7" height="2.9"/>
		
			<rect x="84.8" y="109.3" transform="matrix(0.8173 -0.5762 0.5762 0.8173 -47.6529 69.7791)" class="st0" width="2.9" height="1.5"/>
		
			<rect x="92.3" y="118.8" transform="matrix(0.9614 -0.2752 0.2752 0.9614 -29.4992 30.3379)" class="st0" width="2.1" height="2.9"/>
		
			<rect x="101.5" y="107.8" transform="matrix(0.939 -0.3438 0.3438 0.939 -31.2996 41.9865)" class="st0" width="2.4" height="2.9"/>
		
			<rect x="91.8" y="104.3" transform="matrix(0.8648 -0.5021 0.5021 0.8648 -40.5935 60.7314)" class="st0" width="1.4" height="2.9"/>
		
			<rect x="78" y="100.9" transform="matrix(0.5079 -0.8614 0.8614 0.5079 -49.5466 117.9035)" class="st0" width="0.9" height="2.9"/>
		
			<rect x="82.6" y="114.3" transform="matrix(0.238 -0.9713 0.9713 0.238 -47.8019 169.3792)" class="st0" width="2.9" height="1.7"/>
		
			<rect x="79.4" y="117.2" transform="matrix(0.6601 -0.7512 0.7512 0.6601 -61.6643 100.9549)" class="st0" width="2.6" height="2.9"/>
		
			<rect x="98.6" y="119.2" transform="matrix(0.1854 -0.9827 0.9827 0.1854 -37.8089 195.6076)" class="st0" width="1" height="2.9"/>
		
			<rect x="78.2" y="114.1" transform="matrix(0.9757 -0.2193 0.2193 0.9757 -23.4421 19.9915)" class="st0" width="0.3" height="2.9"/>
		
			<rect x="90.9" y="124.2" transform="matrix(0.9321 -0.3621 0.3621 0.9321 -39.2504 41.8339)" class="st0" width="2.2" height="2.9"/>
		
			<rect x="91.9" y="123.8" transform="matrix(0.9347 -0.3553 0.3553 0.9347 -38.3646 41.3238)" class="st0" width="2.9" height="2.6"/>
		
			<rect x="100.7" y="117.1" transform="matrix(0.7125 -0.7017 0.7017 0.7125 -52.9278 105.4336)" class="st0" width="2.9" height="0.4"/>
		
			<rect x="80.6" y="112.4" transform="matrix(5.990779e-02 -0.9982 0.9982 5.990779e-02 -35.6635 188.1515)" class="st0" width="2.9" height="1.3"/>
		
			<rect x="96.1" y="116.8" transform="matrix(0.4944 -0.8692 0.8692 0.4944 -52.6462 144.1644)" class="st0" width="2.9" height="1.1"/>
		
			<rect x="94.1" y="125.3" transform="matrix(0.5475 -0.8368 0.8368 0.5475 -62.4065 137.0799)" class="st0" width="2.9" height="1.8"/>
		
			<rect x="104.8" y="106.2" transform="matrix(0.6021 -0.7984 0.7984 0.6021 -42.7034 127.171)" class="st0" width="2.9" height="0.5"/>
		
			<rect x="75.4" y="117.7" transform="matrix(0.8225 -0.5688 0.5688 0.8225 -53.5262 64.6609)" class="st0" width="2.9" height="0.7"/>
		
			<rect x="98" y="121.8" transform="matrix(0.5839 -0.8118 0.8118 0.5839 -57.7351 131.5423)" class="st0" width="2.9" height="0.5"/>
		
			<rect x="89.4" y="116" transform="matrix(0.5674 -0.8234 0.8234 0.5674 -56.438 125.1226)" class="st0" width="2.9" height="0.6"/>
		
			<rect x="97.6" y="117.2" transform="matrix(0.9321 -0.3623 0.3623 0.9321 -36.2762 43.8212)" class="st0" width="2.2" height="2.9"/>
		
			<rect x="98" y="114.6" transform="matrix(0.9999 -1.045453e-02 1.045453e-02 0.9999 -1.2013 1.0456)" class="st0" width="2.9" height="1.6"/>
		
			<rect x="89.4" y="111.9" transform="matrix(0.8061 -0.5917 0.5917 0.8061 -49.6186 75.2048)" class="st0" width="1.2" height="2.9"/>
		
			<rect x="92.3" y="116.2" transform="matrix(0.5798 -0.8148 0.8148 0.5798 -57.0078 124.7582)" class="st0" width="0.3" height="2.9"/>
		
			<rect x="106.4" y="125.9" transform="matrix(0.5892 -0.808 0.808 0.5892 -59.0757 138.4637)" class="st0" width="0.4" height="2.9"/>
		
			<rect x="101.6" y="122.1" transform="matrix(0.1162 -0.9932 0.9932 0.1162 -31.2293 211.2208)" class="st0" width="2.9" height="2.1"/>
		
			<rect x="103.6" y="124.7" transform="matrix(0.9638 -0.2666 0.2666 0.9638 -29.853 32.4766)" class="st0" width="2.1" height="2.9"/>
		
			<rect x="78.4" y="114.8" transform="matrix(0.7944 -0.6075 0.6075 0.7944 -53.6091 72.1806)" class="st0" width="2.9" height="0.9"/>
		
			<rect x="93.4" y="119.6" transform="matrix(0.2121 -0.9772 0.9772 0.2121 -43.3151 187.8044)" class="st0" width="2.9" height="2.3"/>
		
			<rect x="104.6" y="114.1" transform="matrix(0.5274 -0.8496 0.8496 0.5274 -48.3228 144.2745)" class="st0" width="1.9" height="2.9"/>
		
			<rect x="105.5" y="121.6" transform="matrix(0.9547 -0.2977 0.2977 0.9547 -31.4742 37.3689)" class="st0" width="2.9" height="0.9"/>
		
			<rect x="89.1" y="123.4" transform="matrix(8.052186e-02 -0.9968 0.9968 8.052186e-02 -42.2018 203.9731)" class="st0" width="0.8" height="2.9"/>
		
			<rect x="86.1" y="118.5" transform="matrix(0.749 -0.6626 0.6626 0.749 -57.7556 87.4037)" class="st0" width="0.8" height="2.9"/>
		
			<rect x="99.2" y="120" transform="matrix(0.9614 -0.2752 0.2752 0.9614 -29.2052 32.3426)" class="st0" width="2.9" height="0.6"/>
		
			<rect x="101.7" y="120.1" transform="matrix(0.7215 -0.6924 0.6924 0.7215 -55.589 104.921)" class="st0" width="1.9" height="2.9"/>
		
			<rect x="105.9" y="116.6" transform="matrix(0.224 -0.9746 0.9746 0.224 -31.4067 195.9637)" class="st0" width="2.9" height="2.3"/>
		
			<rect x="95.5" y="121.5" transform="matrix(0.399 -0.9169 0.9169 0.399 -54.9892 162.0477)" class="st0" width="1.3" height="2.9"/>
	</g>
	<g>
		
			<rect x="119.9" y="109.9" transform="matrix(0.317 -0.9484 0.9484 0.317 -23.3023 190.3418)" class="st0" width="1.1" height="2.9"/>
		
			<rect x="109.8" y="125.5" transform="matrix(0.805 -0.5933 0.5933 0.805 -53.6725 90.6498)" class="st0" width="2.6" height="2.9"/>
		
			<rect x="125.6" y="118.8" transform="matrix(0.9986 -5.307044e-02 5.307044e-02 0.9986 -6.1474 6.9085)" class="st0" width="2.9" height="0.9"/>
		
			<rect x="125.2" y="124.1" transform="matrix(1.583333e-02 -0.9999 0.9999 1.583333e-02 -0.7547 249.9999)" class="st0" width="2.9" height="2.5"/>
		
			<rect x="95.6" y="112" transform="matrix(0.7331 -0.6801 0.6801 0.7331 -50.5194 96.0326)" class="st0" width="2.9" height="0.8"/>
		
			<rect x="115" y="144.6" transform="matrix(0.9895 -0.1444 0.1444 0.9895 -19.6809 18.3366)" class="st0" width="2.9" height="0.4"/>
		
			<rect x="100.9" y="123.9" transform="matrix(0.369 -0.9294 0.9294 0.369 -51.1613 173.7052)" class="st0" width="2.9" height="1.3"/>
		
			<rect x="103.9" y="96.4" transform="matrix(0.1885 -0.9821 0.9821 0.1885 -9.8595 182.2199)" class="st0" width="2.9" height="1.3"/>
		
			<rect x="114.3" y="118.7" transform="matrix(0.3554 -0.9347 0.9347 0.3554 -38.1869 184.877)" class="st0" width="1.3" height="2.9"/>
		
			<rect x="92.4" y="94.2" transform="matrix(0.5877 -0.8091 0.8091 0.5877 -38.9714 114.8661)" class="st0" width="1.6" height="2.9"/>
		
			<rect x="116.6" y="122.8" transform="matrix(0.8249 -0.5653 0.5653 0.8249 -49.0578 88.3161)" class="st0" width="2.9" height="1"/>
		
			<rect x="111.2" y="147.3" transform="matrix(0.8286 -0.5598 0.5598 0.8286 -63.735 88.5014)" class="st0" width="2.9" height="2.1"/>
		
			<rect x="110.6" y="127.8" transform="matrix(0.7721 -0.6355 0.6355 0.7721 -56.8448 100.0179)" class="st0" width="0.9" height="2.9"/>
		
			<rect x="96.8" y="93" transform="matrix(0.3979 -0.9174 0.9174 0.3979 -28.0329 146.2321)" class="st0" width="1.1" height="2.9"/>
		
			<rect x="74.6" y="95.6" transform="matrix(0.998 -6.295465e-02 6.295465e-02 0.998 -5.886 4.9778)" class="st0" width="2.9" height="0.5"/>
		
			<rect x="76.6" y="84.3" transform="matrix(0.9776 -0.2103 0.2103 0.9776 -16.2214 18.3227)" class="st0" width="2.9" height="2.2"/>
		
			<rect x="113.3" y="109.3" transform="matrix(0.2863 -0.9581 0.9581 0.2863 -25.124 187.6954)" class="st0" width="0.3" height="2.9"/>
		
			<rect x="114.1" y="141" transform="matrix(0.7716 -0.6361 0.6361 0.7716 -63.5673 105.8142)" class="st0" width="2.9" height="0.9"/>
		
			<rect x="84.6" y="91.6" transform="matrix(0.7792 -0.6268 0.6268 0.7792 -39.3601 74.2675)" class="st0" width="2.3" height="2.9"/>
		<rect x="79" y="97.9" transform="matrix(0.8115 -0.5843 0.5843 0.8115 -42.5705 65.6351)" class="st0" width="2.9" height="1.9"/>
		
			<rect x="77.4" y="85.8" transform="matrix(0.8155 -0.5788 0.5788 0.8155 -36.0643 61.2807)" class="st0" width="1.3" height="2.9"/>
		
			<rect x="92.6" y="108.8" transform="matrix(0.1224 -0.9925 0.9925 0.1224 -26.4471 189.6773)" class="st0" width="2.9" height="2.1"/>
		
			<rect x="80.6" y="117.3" transform="matrix(0.5735 -0.8192 0.8192 0.5735 -61.9582 117.6998)" class="st0" width="2.9" height="2.2"/>
		<rect x="88.7" y="108.8" transform="matrix(0.512 -0.859 0.859 0.512 -50.3447 131.0928)" class="st0" width="2.9" height="2.1"/>
		<polygon class="st0" points="103,97.5 102.5,97.3 103.8,94.7 104.2,94.9 		"/>
		<rect x="85.1" y="84.6" transform="matrix(0.969 -0.2472 0.2472 0.969 -18.5826 24.0335)" class="st0" width="2.6" height="2.9"/>
		
			<rect x="79.2" y="90.2" transform="matrix(0.3532 -0.9355 0.9355 0.3532 -34.1635 133.9228)" class="st0" width="1.2" height="2.9"/>
		<polygon class="st0" points="125.9,119 123.1,118 123.2,117.8 125.9,118.8 		"/>
		
			<rect x="107.8" y="136.7" transform="matrix(0.6975 -0.7166 0.7166 0.6975 -66.0592 119.7917)" class="st0" width="2.1" height="2.9"/>
		
			<rect x="74.6" y="104.1" transform="matrix(0.7875 -0.6163 0.6163 0.7875 -48.6534 69.1841)" class="st0" width="2.9" height="2.1"/>
		
			<rect x="107" y="136.5" transform="matrix(0.5394 -0.8421 0.8421 0.5394 -66.5782 154.2868)" class="st0" width="1.4" height="2.9"/>
		
			<rect x="96" y="123.6" transform="matrix(0.5091 -0.8607 0.8607 0.5091 -59.1484 144.8697)" class="st0" width="2.9" height="1.4"/>
		
			<rect x="75.9" y="93.8" transform="matrix(0.9987 -5.035761e-02 5.035761e-02 0.9987 -4.6967 3.9927)" class="st0" width="1.9" height="2.9"/>
		<rect x="89.5" y="115.5" transform="matrix(0.2509 -0.968 0.968 0.2509 -44.6652 175.2738)" class="st0" width="2.9" height="2"/>
		
			<rect x="112.9" y="123.4" transform="matrix(0.9999 -1.030873e-02 1.030873e-02 0.9999 -1.2753 1.1856)" class="st0" width="2.9" height="1.9"/>
		
			<rect x="110.9" y="118.1" transform="matrix(0.9975 -7.056484e-02 7.056484e-02 0.9975 -8.16 8.1936)" class="st0" width="2" height="2.9"/>
		
			<rect x="84" y="83.8" transform="matrix(5.762902e-02 -0.9983 0.9983 5.762902e-02 -3.9974 165.0533)" class="st0" width="2.9" height="1.7"/>
		
			<rect x="82.3" y="106.8" transform="matrix(8.877377e-02 -0.9961 0.9961 8.877377e-02 -32.4841 181.0256)" class="st0" width="0.8" height="2.9"/>
		
			<rect x="116.4" y="132.2" transform="matrix(0.9995 -3.161210e-02 3.161210e-02 0.9995 -4.1364 3.7906)" class="st0" width="2.9" height="1.1"/>
		
			<rect x="103.3" y="121.2" transform="matrix(9.011052e-02 -0.9959 0.9959 9.011052e-02 -27.225 215.4129)" class="st0" width="1.9" height="2.9"/>
		
			<rect x="100.2" y="111.7" transform="matrix(0.7306 -0.6828 0.6828 0.7306 -49.5204 99.7263)" class="st0" width="2.9" height="1.9"/>
		<rect x="84.1" y="97" transform="matrix(0.9151 -0.4032 0.4032 0.9151 -32.2484 42.799)" class="st0" width="2.9" height="1.9"/>
		
			<rect x="126.1" y="119.1" transform="matrix(0.9592 -0.2828 0.2828 0.9592 -28.9056 40.8511)" class="st0" width="1.8" height="2.9"/>
		
			<rect x="81.8" y="113.9" transform="matrix(0.2268 -0.9739 0.9739 0.2268 -47.4977 169.821)" class="st0" width="2.9" height="1.9"/>
		
			<rect x="89.7" y="81.9" transform="matrix(0.9519 -0.3065 0.3065 0.9519 -20.7931 31.8944)" class="st0" width="2.9" height="0.5"/>
		
			<rect x="83.6" y="85.7" transform="matrix(0.3455 -0.9384 0.9384 0.3455 -25.7122 136.6233)" class="st0" width="2.9" height="2.1"/>
		
			<rect x="67.9" y="90.5" transform="matrix(5.763496e-02 -0.9983 0.9983 5.763496e-02 -25.9328 155.4327)" class="st0" width="2.9" height="1.9"/>
		
			<rect x="79.5" y="82.9" transform="matrix(0.2392 -0.971 0.971 0.2392 -20.9615 141.8805)" class="st0" width="1.1" height="2.9"/>
		
			<rect x="95.5" y="94.3" transform="matrix(0.2104 -0.9776 0.9776 0.2104 -18.1158 169.0188)" class="st0" width="0.2" height="2.9"/>
		
			<rect x="101.5" y="94" transform="matrix(0.7891 -0.6143 0.6143 0.7891 -36.3183 83.1945)" class="st0" width="2.9" height="1.1"/>
		
			<rect x="111.7" y="116.7" transform="matrix(0.4013 -0.916 0.916 0.4013 -39.9897 174.0357)" class="st0" width="2.9" height="1.9"/>
		
			<rect x="104.6" y="96.5" transform="matrix(0.6601 -0.7512 0.7512 0.6601 -37.174 112.7914)" class="st0" width="2.9" height="1.9"/>
		<rect x="84.5" y="115" transform="matrix(0.983 -0.1838 0.1838 0.983 -19.9459 17.677)" class="st0" width="1.8" height="2.9"/>
		
			<rect x="72.6" y="82.3" transform="matrix(0.2771 -0.9609 0.9609 0.2771 -27.3517 131.2005)" class="st0" width="1.9" height="2.9"/>
		
			<rect x="69.9" y="98.5" transform="matrix(0.7963 -0.6048 0.6048 0.7963 -46.0119 63.1486)" class="st0" width="1.8" height="2.9"/>
		
			<rect x="94.4" y="116" transform="matrix(0.2197 -0.9756 0.9756 0.2197 -39.3227 184.7214)" class="st0" width="2.9" height="1.9"/>
		<rect x="82.5" y="83" transform="matrix(0.9279 -0.3728 0.3728 0.9279 -25.45 37.1808)" class="st0" width="1.9" height="2.9"/>
		
			<rect x="82.3" y="110.6" transform="matrix(0.9967 -8.134494e-02 8.134494e-02 0.9967 -8.8381 7.084)" class="st0" width="0.4" height="2.9"/>
		
			<rect x="114.7" y="107.2" transform="matrix(0.8102 -0.5861 0.5861 0.8102 -41.0843 88.5448)" class="st0" width="2.9" height="1.1"/>
		
			<rect x="88.3" y="115.8" transform="matrix(0.6377 -0.7703 0.7703 0.6377 -57.9594 111.3257)" class="st0" width="2.1" height="2.9"/>
		
			<rect x="101.4" y="121.7" transform="matrix(0.7805 -0.6252 0.6252 0.7805 -54.0554 91.2215)" class="st0" width="2.9" height="1.8"/>
		<rect x="89.8" y="123.4" transform="matrix(0.972 -0.2352 0.2352 0.972 -26.824 24.8109)" class="st0" width="1.7" height="2.9"/>
		
			<rect x="99.8" y="128.2" transform="matrix(0.9993 -3.770901e-02 3.770901e-02 0.9993 -4.7772 3.9097)" class="st0" width="2.9" height="0.7"/>
		
			<rect x="86.3" y="112.1" transform="matrix(0.9386 -0.3451 0.3451 0.9386 -33.8597 36.9503)" class="st0" width="1" height="2.9"/>
		
			<rect x="100.6" y="123.3" transform="matrix(0.5556 -0.8315 0.8315 0.5556 -57.4937 139.8515)" class="st0" width="2.9" height="0.8"/>
		
			<rect x="106.7" y="108.2" transform="matrix(0.9957 -9.210680e-02 9.210680e-02 0.9957 -9.5395 10.4268)" class="st0" width="2.9" height="0.8"/>
	</g>
	<g>
		<rect x="88.1" y="1.2" transform="matrix(0.2402 -0.9707 0.9707 0.2402 66.6499 88.0838)" class="st0" width="2.9" height="0.5"/>
		
			<rect x="94.2" y="100.3" transform="matrix(0.8948 -0.4465 0.4465 0.8948 -35.4493 53.0027)" class="st0" width="1.1" height="2.9"/>
		
			<rect x="28.9" y="20.9" transform="matrix(0.5166 -0.8562 0.8562 0.5166 -3.4372 36.2052)" class="st0" width="2.9" height="0.4"/>
		
			<rect x="38.7" y="41.4" transform="matrix(0.6093 -0.7929 0.7929 0.6093 -17.3911 48.1632)" class="st0" width="2.9" height="0.7"/>
		<rect x="65.1" y="61" transform="matrix(0.4763 -0.8793 0.8793 0.4763 -19.3912 90.8387)" class="st0" width="2.9" height="1.4"/>
		
			<rect x="111" y="96.1" transform="matrix(0.1496 -0.9887 0.9887 0.1496 -0.6265 193.9649)" class="st0" width="2.9" height="2.6"/>
		
			<rect x="105.5" y="21.6" transform="matrix(0.3871 -0.922 0.922 0.3871 44.1185 112.4643)" class="st0" width="2.4" height="2.9"/>
		
			<rect x="95.2" y="90.1" transform="matrix(0.6682 -0.744 0.744 0.6682 -36.3671 101.5637)" class="st0" width="0.9" height="2.9"/>
		
			<rect x="114.3" y="71.6" transform="matrix(9.939093e-02 -0.995 0.995 9.939093e-02 32.2007 180.445)" class="st0" width="2.9" height="1.7"/>
		
			<rect x="78.8" y="85.4" transform="matrix(0.9781 -0.2083 0.2083 0.9781 -16.2434 18.6199)" class="st0" width="2.9" height="2.1"/>
		<rect x="44.4" y="24.1" transform="matrix(0.7255 -0.6882 0.6882 0.7255 -4.886 38.5131)" class="st0" width="2.9" height="2.5"/>
		<rect x="123.2" y="58.9" transform="matrix(0.32 -0.9474 0.9474 0.32 27.8853 158.9214)" class="st0" width="2.9" height="2.3"/>
		
			<rect x="28.5" y="72.3" transform="matrix(0.5367 -0.8438 0.8438 0.5367 -47.8237 59.1526)" class="st0" width="2.9" height="1.7"/>
		
			<rect x="68.8" y="27.1" transform="matrix(0.9598 -0.2808 0.2808 0.9598 -5.2087 20.7935)" class="st0" width="2.4" height="2.9"/>
		
			<rect x="102.4" y="61.1" transform="matrix(0.7509 -0.6604 0.6604 0.7509 -15.281 84.1023)" class="st0" width="2.9" height="2.4"/>
		
			<rect x="98.9" y="86.2" transform="matrix(0.7181 -0.6959 0.6959 0.7181 -32.5877 94.4757)" class="st0" width="2.9" height="2.5"/>
		
			<rect x="105.9" y="10.8" transform="matrix(0.5337 -0.8457 0.8457 0.5337 39.6272 96.2851)" class="st0" width="2.4" height="2.9"/>
		
			<rect x="110.9" y="64.1" transform="matrix(0.2137 -0.9769 0.9769 0.2137 24.719 161.023)" class="st0" width="2.9" height="2.2"/>
		
			<rect x="84.3" y="79.5" transform="matrix(0.2562 -0.9666 0.9666 0.2562 -14.7705 142.7869)" class="st0" width="2.2" height="2.9"/>
		
			<rect x="57.5" y="107.7" transform="matrix(0.4878 -0.8729 0.8729 0.4878 -64.8524 107.2517)" class="st0" width="2.9" height="2.4"/>
		<rect x="68.8" y="80.2" transform="matrix(0.9269 -0.3753 0.3753 0.9269 -25.515 32.242)" class="st0" width="2.4" height="2.9"/>
		<rect x="51.3" y="13.4" transform="matrix(0.8321 -0.5547 0.5547 0.8321 0.8619 31.6551)" class="st0" width="2.9" height="2.1"/>
		<rect x="13.5" y="76.8" transform="matrix(0.9757 -0.219 0.219 0.9757 -16.7801 5.0214)" class="st0" width="1.6" height="2.9"/>
		
			<rect x="54.3" y="102.8" transform="matrix(0.3718 -0.9283 0.9283 0.3718 -62.009 116.8769)" class="st0" width="2.1" height="2.9"/>
		
			<rect x="51.1" y="57.1" transform="matrix(0.9996 -2.760695e-02 2.760695e-02 0.9996 -1.5898 1.4729)" class="st0" width="2.9" height="2.4"/>
		<rect x="33.5" y="21.7" transform="matrix(0.827 -0.5621 0.5621 0.827 -7.0187 23.4884)" class="st0" width="2.3" height="2.9"/>
		
			<rect x="81.3" y="87.7" transform="matrix(0.3315 -0.9434 0.9434 0.3315 -28.5112 137.448)" class="st0" width="2.9" height="2.3"/>
		
			<rect x="73.7" y="108.4" transform="matrix(1 -7.580645e-03 7.580645e-03 1 -0.8304 0.5681)" class="st0" width="1.7" height="2.9"/>
		
			<rect x="31.5" y="63.1" transform="matrix(2.617431e-02 -0.9997 0.9997 2.617431e-02 -31.4455 94.8937)" class="st0" width="2.9" height="1"/>
		<polygon class="st0" points="14.8,61.3 14.5,61.1 15.8,58.5 16.1,58.7 		"/>
		
			<rect x="85.5" y="77.2" transform="matrix(0.2115 -0.9774 0.9774 0.2115 -7.3065 146.2116)" class="st0" width="2.9" height="0.9"/>
		<rect x="40.9" y="17.4" transform="matrix(0.9815 -0.1915 0.1915 0.9815 -2.8313 8.3412)" class="st0" width="1.7" height="2.9"/>
		
			<rect x="17.3" y="112.6" transform="matrix(0.9966 -8.210818e-02 8.210818e-02 0.9966 -9.2805 1.9202)" class="st0" width="2.9" height="2.4"/>
		<rect x="78.1" y="44.8" transform="matrix(0.563 -0.8264 0.8264 0.563 -3.0686 85.7514)" class="st0" width="2.9" height="1.9"/>
		
			<rect x="132.3" y="93.2" transform="matrix(0.6837 -0.7297 0.7297 0.6837 -26.8304 127.3382)" class="st0" width="2.3" height="2.9"/>
		<rect x="47.7" y="116" transform="matrix(0.4767 -0.879 0.879 0.4767 -76.9047 104.2595)" class="st0" width="2.9" height="1.5"/>
		
			<rect x="116.8" y="65.4" transform="matrix(0.8566 -0.5161 0.5161 0.8566 -17.1819 70.5076)" class="st0" width="2.9" height="1.6"/>
		
			<rect x="57.3" y="96.7" transform="matrix(0.334 -0.9426 0.9426 0.334 -54.1695 119.7314)" class="st0" width="0.7" height="2.9"/>
		<rect x="19.1" y="64.4" transform="matrix(0.5034 -0.864 0.864 0.5034 -47.3383 49.3764)" class="st0" width="0.5" height="2.9"/>
		<rect x="31.8" y="114.7" transform="matrix(0.9903 -0.1386 0.1386 0.9903 -15.798 5.5924)" class="st0" width="1" height="2.9"/>
		<rect x="63.4" y="33" transform="matrix(0.5831 -0.8124 0.8124 0.5831 -1.384 66.2482)" class="st0" width="0.8" height="2.9"/>
		
			<rect x="111.6" y="116.1" transform="matrix(3.807083e-02 -0.9993 0.9993 3.807083e-02 -9.704 224.9876)" class="st0" width="0.8" height="2.9"/>
		
			<rect x="19.2" y="62.8" transform="matrix(2.004052e-02 -0.9998 0.9998 2.004052e-02 -43.1492 82.8292)" class="st0" width="2.9" height="1.3"/>
		
			<rect x="72.6" y="107.6" transform="matrix(0.2446 -0.9696 0.9696 0.2446 -50.2107 153.6771)" class="st0" width="1.8" height="2.9"/>
		
			<rect x="41.6" y="105.7" transform="matrix(0.4901 -0.8716 0.8716 0.4901 -70.9725 91.8292)" class="st0" width="2.9" height="1.8"/>
		
			<rect x="63.2" y="106.5" transform="matrix(0.4237 -0.9058 0.9058 0.4237 -59.7361 120.2749)" class="st0" width="2.9" height="1.2"/>
		
			<rect x="40.5" y="19.7" transform="matrix(0.7987 -0.6017 0.6017 0.7987 -4.4519 29.0715)" class="st0" width="1.4" height="2.9"/>
		
			<rect x="112.6" y="62.2" transform="matrix(0.7216 -0.6923 0.6923 0.7216 -12.5356 96.1255)" class="st0" width="1.2" height="2.9"/>
		
			<rect x="121" y="79.5" transform="matrix(0.5971 -0.8021 0.8021 0.5971 -16.1197 129.8243)" class="st0" width="0.4" height="2.9"/>
		<rect x="8.5" y="73.8" transform="matrix(0.95 -0.3123 0.3123 0.95 -23.0685 6.4608)" class="st0" width="0.3" height="2.9"/>
		
			<rect x="56.7" y="68.3" transform="matrix(0.1718 -0.9851 0.9851 0.1718 -21.3273 114.1268)" class="st0" width="1.1" height="2.9"/>
		
			<rect x="84.1" y="45.5" transform="matrix(0.2253 -0.9743 0.9743 0.2253 21.0965 119.189)" class="st0" width="2.9" height="1.6"/>
		
			<rect x="74.1" y="55.2" transform="matrix(0.1171 -0.9931 0.9931 0.1171 11.2838 124.2961)" class="st0" width="2.9" height="1.3"/>
		
			<rect x="115.4" y="104.6" transform="matrix(0.9179 -0.3968 0.3968 0.9179 -32.159 55.0194)" class="st0" width="2.9" height="1.3"/>
		
			<rect x="28.5" y="88" transform="matrix(8.810632e-02 -0.9961 0.9961 8.810632e-02 -61.0117 110.6671)" class="st0" width="2.9" height="1.3"/>
		<rect x="114.6" y="38.8" transform="matrix(0.7591 -0.651 0.651 0.7591 1.6013 84.901)" class="st0" width="1.8" height="2.9"/>
		
			<rect x="76.3" y="24.1" transform="matrix(0.9848 -0.1739 0.1739 0.9848 -3.1432 13.8996)" class="st0" width="2.9" height="1.5"/>
		
			<rect x="72.3" y="117.3" transform="matrix(0.7651 -0.6439 0.6439 0.7651 -58.6177 75.1738)" class="st0" width="2.9" height="1.3"/>
		<rect x="87.8" y="50.5" transform="matrix(0.8146 -0.58 0.58 0.8146 -13.1239 61.2587)" class="st0" width="2.9" height="1.2"/>
		
			<rect x="144.5" y="60.4" transform="matrix(0.5844 -0.8115 0.8115 0.5844 11.1341 143.799)" class="st0" width="2.9" height="1.3"/>
		
			<rect x="95.1" y="27.6" transform="matrix(0.4795 -0.8775 0.8775 0.4795 24.0713 98.7403)" class="st0" width="0.4" height="2.9"/>
		
			<rect x="91.7" y="122.2" transform="matrix(0.556 -0.8312 0.8312 0.556 -60.3995 131.8314)" class="st0" width="2.9" height="0.5"/>
		
			<rect x="62.1" y="103.8" transform="matrix(0.9833 -0.1819 0.1819 0.9833 -18.0991 13.1349)" class="st0" width="1" height="2.9"/>
		
			<rect x="16.1" y="99.8" transform="matrix(0.8856 -0.4644 0.4644 0.8856 -44.6571 19.6596)" class="st0" width="2.9" height="1.4"/>
		<rect x="80" y="94.2" transform="matrix(0.495 -0.8689 0.8689 0.495 -41.2526 118.6037)" class="st0" width="2.9" height="1.2"/>
		
			<rect x="51.8" y="113.7" transform="matrix(0.535 -0.8449 0.8449 0.535 -71.8898 98.1799)" class="st0" width="2.9" height="1.3"/>
		<rect x="62.3" y="83" transform="matrix(0.6875 -0.7262 0.7262 0.6875 -41.7001 72.0332)" class="st0" width="1.1" height="2.9"/>
		
			<rect x="38.5" y="75.2" transform="matrix(0.3613 -0.9325 0.9325 0.3613 -46.5445 85.4445)" class="st0" width="1.1" height="2.9"/>
		
			<rect x="93.6" y="44.2" transform="matrix(0.3929 -0.9196 0.9196 0.3929 16.4712 114.5987)" class="st0" width="2.9" height="1.2"/>
		<rect x="28" y="85.6" transform="matrix(0.6455 -0.7637 0.7637 0.6455 -55.4626 53.0552)" class="st0" width="2.9" height="1.4"/>
		<rect x="48" y="75.2" transform="matrix(0.7853 -0.6191 0.6191 0.7853 -36.3557 46.9274)" class="st0" width="2.9" height="1.3"/>
		
			<rect x="93.9" y="121.9" transform="matrix(0.8275 -0.5615 0.5615 0.8275 -52.3484 74.6816)" class="st0" width="2.9" height="1.3"/>
		
			<rect x="48.8" y="49.6" transform="matrix(0.9223 -0.3864 0.3864 0.9223 -15.8738 23.0648)" class="st0" width="1.3" height="2.9"/>
		<rect x="90.8" y="70" transform="matrix(0.5784 -0.8157 0.8157 0.5784 -19.7858 104.661)" class="st0" width="1.1" height="2.9"/>
		
			<rect x="50.3" y="97.5" transform="matrix(0.8684 -0.4958 0.4958 0.8684 -41.6166 38.5298)" class="st0" width="2.9" height="0.4"/>
		
			<rect x="52.4" y="64.8" transform="matrix(0.2961 -0.9551 0.9551 0.2961 -26.2014 96.996)" class="st0" width="0.7" height="2.9"/>
		
			<rect x="107" y="61.8" transform="matrix(0.5345 -0.8452 0.8452 0.5345 -2.3597 120.7272)" class="st0" width="2.9" height="1.5"/>
		
			<rect x="121.5" y="76.6" transform="matrix(0.4786 -0.878 0.878 0.4786 -3.4472 148.0039)" class="st0" width="2.9" height="0.6"/>
		
			<rect x="75.4" y="113.7" transform="matrix(0.5006 -0.8657 0.8657 0.5006 -60.2893 123.4807)" class="st0" width="2.9" height="0.5"/>
		
			<rect x="25.3" y="108.4" transform="matrix(0.274 -0.9617 0.9617 0.274 -86.8282 104.6719)" class="st0" width="1.2" height="2.9"/>
		
			<rect x="127.5" y="127.4" transform="matrix(0.816 -0.5781 0.5781 0.816 -50.9136 97.757)" class="st0" width="1.2" height="2.9"/>
		
			<rect x="52.3" y="51.6" transform="matrix(0.7126 -0.7015 0.7015 0.7126 -22.0007 52.3858)" class="st0" width="1.3" height="2.9"/>
		
			<rect x="42.1" y="25.1" transform="matrix(0.8079 -0.5893 0.5893 0.8079 -6.8866 30.6487)" class="st0" width="2.9" height="1.6"/>
		<rect x="99.7" y="58" transform="matrix(0.8633 -0.5047 0.5047 0.8633 -16.3084 58.7837)" class="st0" width="1.4" height="2.9"/>
		
			<rect x="111.6" y="30.2" transform="matrix(0.8994 -0.4372 0.4372 0.8994 -2.1135 52.5378)" class="st0" width="2.9" height="1.3"/>
		
			<rect x="46.5" y="69.8" transform="matrix(0.9952 -9.780887e-02 9.780887e-02 0.9952 -6.6334 5.0273)" class="st0" width="2.9" height="0.8"/>
		
			<rect x="64.6" y="31.5" transform="matrix(0.8082 -0.5889 0.5889 0.8082 -6.0469 45.0215)" class="st0" width="2.9" height="0.6"/>
		<rect x="30" y="89.8" transform="matrix(0.5875 -0.8092 0.8092 0.5875 -60.0209 62.6657)" class="st0" width="2.9" height="0.7"/>
		
			<rect x="104.9" y="63.7" transform="matrix(0.4114 -0.9115 0.9115 0.4114 4.3458 134.5081)" class="st0" width="2.9" height="0.4"/>
		
			<rect x="104.2" y="98" transform="matrix(0.9123 -0.4095 0.4095 0.9123 -31.5213 51.6574)" class="st0" width="1.3" height="2.9"/>
		
			<rect x="74.8" y="123.5" transform="matrix(8.452614e-02 -0.9964 0.9964 8.452614e-02 -54.0418 189.7237)" class="st0" width="2.9" height="1.6"/>
		
			<rect x="40" y="84.2" transform="matrix(0.9996 -2.805193e-02 2.805193e-02 0.9996 -2.3662 1.1948)" class="st0" width="2.9" height="1.4"/>
		
			<rect x="102.2" y="130.6" transform="matrix(0.9877 -0.1563 0.1563 0.9877 -19.3811 17.7126)" class="st0" width="1.6" height="2.9"/>
		
			<rect x="132.8" y="71.5" transform="matrix(0.1044 -0.9945 0.9945 0.1044 48.404 198.2424)" class="st0" width="2.9" height="1.4"/>
		<rect x="74.1" y="90.2" transform="matrix(0.647 -0.7625 0.7625 0.647 -42.5768 89.6633)" class="st0" width="2.9" height="1.3"/>
		
			<rect x="62.8" y="75.9" transform="matrix(0.9741 -0.2262 0.2262 0.9741 -15.8468 16.3833)" class="st0" width="1.5" height="2.9"/>
		
			<rect x="75.5" y="113.5" transform="matrix(0.9196 -0.393 0.393 0.9196 -38.4687 39.3612)" class="st0" width="2.9" height="0.4"/>
		<rect x="0" y="109.9" transform="matrix(0.987 -0.1607 0.1607 0.987 -17.6474 1.6606)" class="st0" width="2.9" height="0.2"/>
		<rect x="107.4" y="40.8" transform="matrix(0.7733 -0.634 0.634 0.7733 -2.2535 78.1449)" class="st0" width="1.4" height="2.9"/>
		<rect x="36.5" y="126.4" transform="matrix(0.9874 -0.158 0.158 0.9874 -19.7375 7.4679)" class="st0" width="1.3" height="2.9"/>
		
			<rect x="13.6" y="48.4" transform="matrix(0.4526 -0.8917 0.8917 0.4526 -35.3562 40.1985)" class="st0" width="2.9" height="1.1"/>
		
			<rect x="14.3" y="45.2" transform="matrix(0.7953 -0.6062 0.6062 0.7953 -24.3596 18.8923)" class="st0" width="2.9" height="0.7"/>
		
			<rect x="125.3" y="65.5" transform="matrix(0.5949 -0.8038 0.8038 0.5949 -2.8089 128.3414)" class="st0" width="1.2" height="2.9"/>
		
			<rect x="22.7" y="70.3" transform="matrix(0.9636 -0.2674 0.2674 0.9636 -18.3198 8.9033)" class="st0" width="1.6" height="2.9"/>
		
			<rect x="15.1" y="78.6" transform="matrix(0.7231 -0.6908 0.6908 0.7231 -50.9155 33.0935)" class="st0" width="1.5" height="2.9"/>
		
			<rect x="75.7" y="62.1" transform="matrix(0.1267 -0.9919 0.9919 0.1267 5.1473 131.3148)" class="st0" width="2.9" height="1.3"/>
		<rect x="81.5" y="62.4" transform="matrix(0.924 -0.3824 0.3824 0.924 -18.1724 36.3012)" class="st0" width="1.5" height="2.9"/>
		
			<rect x="131" y="45.6" transform="matrix(0.5535 -0.8328 0.8328 0.5535 20.5483 130.9745)" class="st0" width="2.9" height="1.5"/>
		
			<rect x="31.8" y="121.8" transform="matrix(0.9441 -0.3296 0.3296 0.9441 -38.8507 17.4218)" class="st0" width="0.4" height="2.9"/>
		
			<rect x="68.3" y="109.8" transform="matrix(1.027401e-02 -0.9999 0.9999 1.027401e-02 -43.3515 178.7521)" class="st0" width="0.7" height="2.9"/>
		<rect x="55.6" y="54.8" transform="matrix(0.9883 -0.1528 0.1528 0.9883 -7.8794 9.3736)" class="st0" width="2.9" height="2.3"/>
		
			<rect x="73.7" y="76.7" transform="matrix(7.277261e-02 -0.9973 0.9973 7.277261e-02 -7.4363 146.7123)" class="st0" width="2.9" height="1.3"/>
		
			<rect x="123.2" y="72.2" transform="matrix(0.9574 -0.2887 0.2887 0.9574 -15.6484 39.0787)" class="st0" width="2.9" height="0.8"/>
		
			<rect x="52.5" y="79.4" transform="matrix(0.4204 -0.9074 0.9074 0.4204 -41.4781 95.4727)" class="st0" width="2.9" height="1.6"/>
		<rect x="42.3" y="50.8" transform="matrix(0.985 -0.1728 0.1728 0.985 -8.254 8.3384)" class="st0" width="2.9" height="1.5"/>
		
			<rect x="48.4" y="47.1" transform="matrix(0.6493 -0.7606 0.7606 0.6493 -19.7226 54.3808)" class="st0" width="1.4" height="2.9"/>
		
			<rect x="64.9" y="97.4" transform="matrix(0.9279 -0.3729 0.3729 0.9279 -31.8208 31.8075)" class="st0" width="2.9" height="1.5"/>
		
			<rect x="99.8" y="42.9" transform="matrix(0.4257 -0.9049 0.9049 0.4257 17.5115 116.349)" class="st0" width="1.3" height="2.9"/>
		
			<rect x="140.1" y="34.8" transform="matrix(0.8907 -0.4547 0.4547 0.8907 -0.4166 68.1625)" class="st0" width="2.9" height="0.4"/>
		
			<rect x="48.8" y="77.6" transform="matrix(0.4016 -0.9158 0.9158 0.4016 -43.0398 92.2116)" class="st0" width="0.6" height="2.9"/>
		<rect x="50.5" y="133.4" transform="matrix(0.413 -0.9107 0.9107 0.413 -91.8966 126.1631)" class="st0" width="2.9" height="2"/>
		
			<rect x="80.3" y="89.3" transform="matrix(0.9497 -0.3132 0.3132 0.9497 -23.9888 30.1249)" class="st0" width="2.9" height="0.9"/>
		
			<rect x="130.5" y="125.9" transform="matrix(0.8515 -0.5244 0.5244 0.8515 -47.3081 87.7333)" class="st0" width="1.4" height="2.9"/>
		
			<rect x="85.3" y="35.7" transform="matrix(0.9347 -0.3554 0.3554 0.9347 -7.6044 32.9582)" class="st0" width="1.3" height="2.9"/>
		
			<rect x="50" y="120.8" transform="matrix(0.3465 -0.9381 0.9381 0.3465 -81.5319 127.3688)" class="st0" width="1.3" height="2.9"/>
		
			<rect x="130.6" y="76.2" transform="matrix(0.792 -0.6105 0.6105 0.792 -19.5002 96.6121)" class="st0" width="2.9" height="1.4"/>
		
			<rect x="27.9" y="36.6" transform="matrix(0.4362 -0.8999 0.8999 0.4362 -18.211 46.9842)" class="st0" width="0.9" height="2.9"/>
		
			<rect x="67.5" y="45.5" transform="matrix(0.3876 -0.9218 0.9218 0.3876 -4.419287e-02 91.6698)" class="st0" width="2.9" height="0.8"/>
		
			<rect x="78.8" y="50.7" transform="matrix(0.9873 -0.1588 0.1588 0.9873 -7.1516 13.3958)" class="st0" width="2.9" height="1.4"/>
		
			<rect x="21.9" y="70.6" transform="matrix(0.4923 -0.8704 0.8704 0.4923 -51.1338 56.3872)" class="st0" width="1.8" height="2.9"/>
		
			<rect x="80.7" y="112.2" transform="matrix(0.8889 -0.4581 0.4581 0.8889 -42.6001 50.1786)" class="st0" width="2.9" height="1.5"/>
		<rect x="20" y="62.3" transform="matrix(0.4193 -0.9079 0.9079 0.4193 -44.8059 56.0898)" class="st0" width="2.9" height="1.6"/>
		<rect x="104.5" y="93.5" transform="matrix(0.184 -0.9829 0.9829 0.184 -7.7131 180.6841)" class="st0" width="1" height="2.9"/>
		<rect x="30.9" y="44" transform="matrix(0.1064 -0.9943 0.9943 0.1064 -17.2764 71.6749)" class="st0" width="0.7" height="2.9"/>
		
			<rect x="79.2" y="88.2" transform="matrix(0.6822 -0.7311 0.7311 0.6822 -39.4147 87.2644)" class="st0" width="2.9" height="1.5"/>
		
			<rect x="125.3" y="79.6" transform="matrix(0.1903 -0.9817 0.9817 0.1903 22.7486 189.7726)" class="st0" width="2.1" height="2.9"/>
		
			<rect x="128.4" y="90.6" transform="matrix(0.6823 -0.7311 0.7311 0.6823 -26.1336 123.9847)" class="st0" width="2.4" height="2.9"/>
		<rect x="62.5" y="126.1" transform="matrix(0.57 -0.8216 0.8216 0.57 -76.6935 107.0767)" class="st0" width="2.9" height="1.4"/>
		
			<rect x="112.6" y="95.3" transform="matrix(9.707300e-02 -0.9953 0.9953 9.707300e-02 7.729 200.0034)" class="st0" width="2.9" height="0.9"/>
		<rect x="55.9" y="76.1" transform="matrix(0.8739 -0.486 0.486 0.8739 -30.1504 37.5776)" class="st0" width="2.9" height="1.7"/>
		<rect x="20.9" y="137.2" transform="matrix(0.75 -0.6614 0.6614 0.75 -86.1801 49.3596)" class="st0" width="2.6" height="2.9"/>
		<rect x="85.3" y="53" transform="matrix(0.9624 -0.2716 0.2716 0.9624 -11.2798 25.5671)" class="st0" width="2.9" height="1"/>
		<polygon class="st0" points="72,137.8 71.7,137.6 73.5,135.3 73.7,135.5 		"/>
		
			<rect x="91" y="89.7" transform="matrix(0.3735 -0.9276 0.9276 0.3735 -26.8538 142.5882)" class="st0" width="2.2" height="2.9"/>
		
			<rect x="57.9" y="62.1" transform="matrix(0.5538 -0.8326 0.8326 0.5538 -26.3305 77.6636)" class="st0" width="2.9" height="2.6"/>
		
			<rect x="80.2" y="58.6" transform="matrix(0.4767 -0.8791 0.8791 0.4767 -10.747 102.0809)" class="st0" width="0.4" height="2.9"/>
		
			<rect x="80.9" y="138" transform="matrix(0.5168 -0.8561 0.8561 0.5168 -78.8845 137.5141)" class="st0" width="2.9" height="1.3"/>
		
			<rect x="98.6" y="128.5" transform="matrix(0.9301 -0.3674 0.3674 0.9301 -40.8193 45.5056)" class="st0" width="1.1" height="2.9"/>
		
			<rect x="54.6" y="107.1" transform="matrix(0.6605 -0.7509 0.7509 0.6605 -62.0971 78.7442)" class="st0" width="2.9" height="1.8"/>
		
			<rect x="115" y="142.6" transform="matrix(0.6612 -0.7502 0.7502 0.6612 -69.0467 135.2486)" class="st0" width="0.5" height="2.9"/>
		
			<rect x="39.4" y="82.1" transform="matrix(0.6461 -0.7633 0.7633 0.6461 -49.6999 59.9308)" class="st0" width="0.7" height="2.9"/>
		
			<rect x="14.7" y="110.5" transform="matrix(0.7239 -0.6899 0.6899 0.7239 -71.9212 41.6873)" class="st0" width="2.9" height="0.5"/>
		
			<rect x="51.6" y="121.2" transform="matrix(0.4637 -0.886 0.886 0.4637 -79.2052 112.149)" class="st0" width="2.9" height="0.6"/>
		
			<rect x="105.3" y="148.6" transform="matrix(0.5426 -0.84 0.84 0.5426 -77.3584 158.0372)" class="st0" width="2.2" height="2.9"/>
		<rect x="20.4" y="91.8" transform="matrix(0.8885 -0.459 0.459 0.8885 -40.4439 20.1389)" class="st0" width="1.6" height="2.9"/>
		<rect x="99.1" y="105.7" transform="matrix(0.88 -0.475 0.475 0.88 -38.985 60.0102)" class="st0" width="0.3" height="2.9"/>
		
			<rect x="46.7" y="147.5" transform="matrix(0.6758 -0.7371 0.7371 0.6758 -93.543 83.4865)" class="st0" width="2.9" height="1.2"/>
		
			<rect x="32.1" y="79.9" transform="matrix(0.9835 -0.1811 0.1811 0.9835 -14.2022 7.1861)" class="st0" width="0.3" height="2.9"/>
		
			<rect x="36.6" y="106.4" transform="matrix(0.5965 -0.8026 0.8026 0.5965 -70.2167 73.522)" class="st0" width="2.9" height="0.4"/>
		
			<rect x="41.9" y="155.5" transform="matrix(0.5287 -0.8488 0.8488 0.5287 -112.9653 110.4815)" class="st0" width="2.1" height="2.9"/>
		
			<rect x="59.2" y="116.5" transform="matrix(0.9855 -0.1696 0.1696 0.9855 -19.1265 11.9268)" class="st0" width="2.1" height="2.9"/>
		
			<rect x="119" y="82.5" transform="matrix(9.583436e-02 -0.9954 0.9954 9.583436e-02 24.4936 194.8142)" class="st0" width="0.9" height="2.9"/>
		
			<rect x="54.6" y="134.7" transform="matrix(0.8392 -0.5439 0.5439 0.8392 -64.4734 52.1992)" class="st0" width="2.9" height="0.9"/>
		
			<rect x="61" y="113.1" transform="matrix(0.9899 -0.1418 0.1418 0.9899 -15.4272 10.0017)" class="st0" width="2.9" height="0.4"/>
		<rect x="105" y="75.4" transform="matrix(0.9811 -0.1936 0.1936 0.9811 -12.735 22.0425)" class="st0" width="2.9" height="1.6"/>
		
			<rect x="104.9" y="138.1" transform="matrix(0.108 -0.9941 0.9941 0.108 -43.6061 229.9454)" class="st0" width="2.9" height="2.3"/>
		
			<rect x="113.2" y="137.5" transform="matrix(0.1605 -0.987 0.987 0.1605 -41.2536 229.2934)" class="st0" width="1.9" height="2.9"/>
		<rect x="67" y="123.2" transform="matrix(0.8672 -0.4979 0.4979 0.8672 -52.4823 50.512)" class="st0" width="2.9" height="0.9"/>
		
			<rect x="16.6" y="84.1" transform="matrix(0.5295 -0.8483 0.8483 0.5295 -64.5939 54.6831)" class="st0" width="0.8" height="2.9"/>
		
			<rect x="65.5" y="129.8" transform="matrix(0.3626 -0.9319 0.9319 0.3626 -80.3682 145.0401)" class="st0" width="0.8" height="2.9"/>
		
			<rect x="132.8" y="108.1" transform="matrix(0.2857 -0.9583 0.9583 0.2857 -9.8992 205.7747)" class="st0" width="0.6" height="2.9"/>
		<rect x="139.1" y="74" transform="matrix(0.854 -0.5203 0.5203 0.854 -18.8179 83.8561)" class="st0" width="1.9" height="2.9"/>
		
			<rect x="143.4" y="121.2" transform="matrix(0.8996 -0.4367 0.4367 0.8996 -39.0389 75.4325)" class="st0" width="2.3" height="2.9"/>
		
			<rect x="106.2" y="148.1" transform="matrix(0.1674 -0.9859 0.9859 0.1674 -57.0543 230.0189)" class="st0" width="2.9" height="1.3"/>
		
			<rect x="101.2" y="162.3" transform="matrix(0.9816 -0.1909 0.1909 0.9816 -29.3755 22.42)" class="st0" width="1.1" height="2.9"/>
		
			<rect x="110.9" y="120.5" transform="matrix(0.7884 -0.6152 0.6152 0.7884 -50.9907 94.8382)" class="st0" width="2.9" height="2.1"/>
		
			<rect x="10.2" y="161.6" transform="matrix(0.6627 -0.7489 0.7489 0.6627 -118.6607 62.7527)" class="st0" width="0.3" height="2.9"/>
		
			<rect x="34.3" y="134.3" transform="matrix(0.5235 -0.8521 0.8521 0.5235 -98.9018 94.7359)" class="st0" width="1.9" height="2.9"/>
		
			<rect x="63.3" y="154.4" transform="matrix(0.9343 -0.3565 0.3565 0.9343 -51.1727 33.292)" class="st0" width="2.9" height="2.2"/>
		
			<rect x="130.9" y="100.4" transform="matrix(0.8534 -0.5212 0.5212 0.8534 -33.1511 83.7397)" class="st0" width="2.9" height="0.7"/>
		<rect x="13.1" y="76.5" transform="matrix(0.9433 -0.332 0.332 0.9433 -24.8911 9.2281)" class="st0" width="2.9" height="1.9"/>
		
			<rect x="62.4" y="141.2" transform="matrix(0.7912 -0.6116 0.6116 0.7912 -74.1143 68.1496)" class="st0" width="0.8" height="2.9"/>
		
			<rect x="121.6" y="73.4" transform="matrix(0.8032 -0.5958 0.5958 0.8032 -19.7259 87.8486)" class="st0" width="2.9" height="0.8"/>
		
			<rect x="125.4" y="122.9" transform="matrix(0.9848 -0.1735 0.1735 0.9848 -19.5781 23.8875)" class="st0" width="2.9" height="2.2"/>
		
			<rect x="113.6" y="123.1" transform="matrix(0.9694 -0.2456 0.2456 0.9694 -26.9761 32.0697)" class="st0" width="2.9" height="2.1"/>
		
			<rect x="147.7" y="149.9" transform="matrix(0.9466 -0.3224 0.3224 0.9466 -40.514 56.1087)" class="st0" width="2.9" height="1"/>
		
			<rect x="74.5" y="140.3" transform="matrix(0.5686 -0.8226 0.8226 0.5686 -82.7247 123.0292)" class="st0" width="2.9" height="0.1"/>
		<rect x="5.9" y="153.8" transform="matrix(0.9467 -0.322 0.322 0.9467 -49.372 10.5911)" class="st0" width="2.9" height="1.5"/>
		<rect x="83" y="92.5" transform="matrix(0.8498 -0.5271 0.5271 0.8498 -36.8963 58.505)" class="st0" width="2.4" height="2.9"/>
		
			<rect x="61.9" y="93.9" transform="matrix(0.3606 -0.9327 0.9327 0.3606 -49.1903 118.8887)" class="st0" width="0.4" height="2.9"/>
		
			<rect x="40.3" y="167.4" transform="matrix(0.5389 -0.8424 0.8424 0.5389 -122.5809 112.7779)" class="st0" width="2.9" height="1.8"/>
		
			<rect x="144.9" y="92" transform="matrix(0.1388 -0.9903 0.9903 0.1388 33.8145 225.0944)" class="st0" width="2.9" height="2.1"/>
		
			<rect x="149.6" y="118.7" transform="matrix(0.9776 -0.2103 0.2103 0.9776 -21.8101 34.4317)" class="st0" width="2.9" height="2.1"/>
		
			<rect x="57.9" y="141.5" transform="matrix(0.7933 -0.6089 0.6089 0.7933 -74.3041 65.5011)" class="st0" width="2.9" height="1.3"/>
		
			<rect x="94.6" y="124.4" transform="matrix(0.9417 -0.3363 0.3363 0.9417 -36.3144 39.5633)" class="st0" width="2.9" height="0.5"/>
		<rect x="1.7" y="73.8" transform="matrix(0.9925 -0.1225 0.1225 0.9925 -9.2038 0.8291)" class="st0" width="0.9" height="2.9"/>
		<rect x="99.5" y="142.5" transform="matrix(0.5104 -0.86 0.86 0.5104 -74.1989 157.1673)" class="st0" width="2.9" height="2.6"/>
		<rect x="109" y="143" transform="matrix(0.9113 -0.4117 0.4117 0.9113 -49.7391 57.9326)" class="st0" width="1.2" height="2.9"/>
		
			<rect x="68.5" y="146.3" transform="matrix(0.7923 -0.6101 0.6101 0.7923 -75.8283 72.7761)" class="st0" width="1.1" height="2.9"/>
		<rect x="78.1" y="118.1" transform="matrix(0.6271 -0.779 0.779 0.6271 -63.6041 106.1744)" class="st0" width="2" height="2.9"/>
		
			<rect x="129.1" y="164.3" transform="matrix(0.7895 -0.6138 0.6138 0.7895 -74.3309 114.7761)" class="st0" width="2" height="2.9"/>
		
			<rect x="150.2" y="166.5" transform="matrix(0.1278 -0.9918 0.9918 0.1278 -34.7108 296.3434)" class="st0" width="1.8" height="2.9"/>
		
			<rect x="48" y="116.1" transform="matrix(3.992095e-02 -0.9992 0.9992 3.992095e-02 -70.4522 161.7213)" class="st0" width="1.8" height="2.9"/>
		
			<rect x="171.4" y="69.6" transform="matrix(0.3111 -0.9504 0.9504 0.3111 50.8916 212.3866)" class="st0" width="1.1" height="2.9"/>
		
			<rect x="18.4" y="163.8" transform="matrix(0.9393 -0.3431 0.3431 0.9393 -55.0856 16.7748)" class="st0" width="2.9" height="0.6"/>
		
			<rect x="58.2" y="92.1" transform="matrix(0.6912 -0.7227 0.7227 0.6912 -48.6255 71.7802)" class="st0" width="2.9" height="1.4"/>
		
			<rect x="96.8" y="92.4" transform="matrix(0.9097 -0.4152 0.4152 0.9097 -30.2344 48.6932)" class="st0" width="0.1" height="2.9"/>
		
			<rect x="120.9" y="89.5" transform="matrix(0.9999 -1.347587e-02 1.347587e-02 0.9999 -1.2152 1.651)" class="st0" width="2.1" height="2.9"/>
		
			<rect x="120.8" y="136.1" transform="matrix(0.1211 -0.9926 0.9926 0.1211 -29.4871 241.8035)" class="st0" width="2.1" height="2.9"/>
		
			<rect x="110.9" y="166.2" transform="matrix(0.5927 -0.8054 0.8054 0.5927 -89.4748 158.4029)" class="st0" width="1.9" height="2.9"/>
		<rect x="33" y="80.7" transform="matrix(0.8238 -0.5669 0.5669 0.8238 -40.6475 33.5835)" class="st0" width="1.4" height="2.9"/>
		
			<rect x="121.9" y="90.4" transform="matrix(0.9768 -0.2141 0.2141 0.9768 -16.8338 28.3832)" class="st0" width="1.4" height="2.9"/>
		
			<rect x="135.8" y="97.6" transform="matrix(0.9749 -0.2228 0.2228 0.9749 -18.5083 33.0669)" class="st0" width="2.9" height="1.9"/>
		<rect x="129.4" y="109.6" transform="matrix(0.2432 -0.97 0.97 0.2432 -8.1985 210.5707)" class="st0" width="2.9" height="1.9"/>
		<rect x="48.9" y="72" transform="matrix(0.9832 -0.1828 0.1828 0.9832 -12.5862 10.3613)" class="st0" width="2.1" height="2.9"/>
		
			<rect x="70.5" y="126.6" transform="matrix(0.9906 -0.1369 0.1369 0.9906 -16.7589 11.0511)" class="st0" width="2.9" height="1.5"/>
		
			<rect x="137.6" y="166.8" transform="matrix(0.5737 -0.819 0.819 0.5737 -77.9115 185.2718)" class="st0" width="2.9" height="1.5"/>
		
			<rect x="118.7" y="108.2" transform="matrix(0.9686 -0.2485 0.2485 0.9686 -23.2875 33.2849)" class="st0" width="2.9" height="1.4"/>
		
			<rect x="124.8" y="173.4" transform="matrix(0.6501 -0.7599 0.7599 0.6501 -88.8629 156.742)" class="st0" width="1.8" height="2.9"/>
		
			<rect x="48.8" y="167.9" transform="matrix(0.9077 -0.4197 0.4197 0.9077 -66.2443 36.6947)" class="st0" width="2.9" height="2.1"/>
		
			<rect x="112.7" y="143" transform="matrix(0.6706 -0.7418 0.7418 0.6706 -69.197 132.0987)" class="st0" width="2.9" height="1.9"/>
		
			<rect x="126.4" y="126.7" transform="matrix(0.4604 -0.8877 0.8877 0.4604 -44.394 182.3707)" class="st0" width="2.9" height="2"/>
		
			<rect x="70.5" y="158.7" transform="matrix(0.9566 -0.2913 0.2913 0.9566 -43.4019 27.8848)" class="st0" width="2.9" height="2"/>
		
			<rect x="54.9" y="125.2" transform="matrix(0.8357 -0.5492 0.5492 0.8357 -60.3745 51.5289)" class="st0" width="2" height="2.9"/>
		
			<rect x="138.6" y="99.9" transform="matrix(0.6559 -0.7548 0.7548 0.6559 -27.9654 140.4278)" class="st0" width="2.9" height="1.9"/>
		
			<rect x="132.8" y="77" transform="matrix(0.6568 -0.7541 0.7541 0.6568 -12.6989 128.0286)" class="st0" width="2.9" height="1.9"/>
		
			<rect x="61.7" y="115.8" transform="matrix(0.3203 -0.9473 0.9473 0.3203 -68.5252 139.0757)" class="st0" width="1.9" height="2.9"/>
		<rect x="142.7" y="80.8" transform="matrix(0.3571 -0.9341 0.9341 0.3571 15.545 187.1007)" class="st0" width="2" height="2.9"/>
		<rect x="117.8" y="118" transform="matrix(0.862 -0.5069 0.5069 0.862 -43.8592 76.8915)" class="st0" width="2.9" height="2"/>
		
			<rect x="116.3" y="177.8" transform="matrix(0.9004 -0.435 0.435 0.9004 -65.7787 68.9696)" class="st0" width="2.9" height="0.7"/>
		
			<rect x="129.6" y="97.9" transform="matrix(0.8586 -0.5126 0.5126 0.8586 -31.8252 81.0746)" class="st0" width="2.9" height="0.6"/>
		
			<rect x="79.7" y="156.5" transform="matrix(0.2687 -0.9632 0.9632 0.2687 -93.2565 193.1169)" class="st0" width="1.6" height="2.9"/>
		
			<rect x="77.6" y="165" transform="matrix(0.5987 -0.801 0.801 0.5987 -100.5786 129.6201)" class="st0" width="2.9" height="0.4"/>
		
			<rect x="60.3" y="175.3" transform="matrix(5.518680e-03 -1 1 5.518680e-03 -114.7428 236.9001)" class="st0" width="2.9" height="1.8"/>
		
			<rect x="82.9" y="138" transform="matrix(0.8044 -0.5941 0.5941 0.8044 -66.1596 77.3411)" class="st0" width="2.9" height="2.2"/>
		
			<rect x="90.4" y="111.7" transform="matrix(0.9544 -0.2985 0.2985 0.9544 -29.5981 32.4672)" class="st0" width="2.3" height="2.9"/>
		
			<rect x="32.5" y="112.1" transform="matrix(0.225 -0.9744 0.9744 0.225 -85.2133 119.9631)" class="st0" width="0.6" height="2.9"/>
		
			<rect x="72.7" y="89.9" transform="matrix(0.3477 -0.9376 0.9376 0.3477 -36.2042 128.325)" class="st0" width="2.9" height="0.5"/>
		
			<rect x="51.6" y="147.8" transform="matrix(0.9974 -7.226454e-02 7.226454e-02 0.9974 -10.6464 4.1999)" class="st0" width="2.2" height="2.9"/>
		
			<rect x="140.1" y="95.1" transform="matrix(0.3434 -0.9392 0.9392 0.3434 1.9635 195.8403)" class="st0" width="1.9" height="2.9"/>
		
			<rect x="107.3" y="95.4" transform="matrix(0.6998 -0.7143 0.7143 0.6998 -36.7223 106.3908)" class="st0" width="1.9" height="2.9"/>
		
			<rect x="46.7" y="162.8" transform="matrix(0.3723 -0.9281 0.9281 0.3723 -122.51 147.3861)" class="st0" width="1.9" height="2.9"/>
		
			<rect x="105.2" y="101" transform="matrix(0.6555 -0.7552 0.7552 0.6555 -40.2713 115.6632)" class="st0" width="2.9" height="2"/>
		
			<rect x="72.2" y="135.3" transform="matrix(0.2486 -0.9686 0.9686 0.2486 -77.5413 173.5051)" class="st0" width="1.8" height="2.9"/>
		
			<rect x="65.7" y="141.6" transform="matrix(0.9171 -0.3986 0.3986 0.9171 -51.2421 38.5835)" class="st0" width="2.9" height="1.9"/>
		
			<rect x="150.2" y="114.1" transform="matrix(0.9841 -0.1777 0.1777 0.9841 -18.0387 28.7814)" class="st0" width="2.9" height="2"/>
		
			<rect x="71.5" y="96.1" transform="matrix(0.9957 -9.213018e-02 9.213018e-02 0.9957 -8.6813 7.0488)" class="st0" width="1" height="2.9"/>
		<polygon class="st0" points="60.9,93.7 60.4,93.4 62,91 62.4,91.3 		"/>
		<rect x="165.1" y="94" transform="matrix(0.4362 -0.8999 0.8999 0.4362 7.6989 203.1501)" class="st0" width="1.7" height="2.9"/>
		
			<rect x="153.1" y="83.5" transform="matrix(0.9506 -0.3103 0.3103 0.9506 -18.7745 51.8167)" class="st0" width="0.8" height="2.9"/>
		
			<rect x="41" y="111.7" transform="matrix(0.7193 -0.6947 0.6947 0.7193 -66.2658 61.0662)" class="st0" width="2.9" height="1.8"/>
		
			<rect x="52.3" y="150.7" transform="matrix(0.6783 -0.7348 0.7348 0.6783 -94.7934 87.8462)" class="st0" width="1.2" height="2.9"/>
		
			<rect x="55.7" y="140.2" transform="matrix(6.062726e-02 -0.9982 0.9982 6.062726e-02 -88.7589 188.9364)" class="st0" width="0.7" height="2.9"/>
		
			<rect x="51.6" y="173.5" transform="matrix(0.9972 -7.541487e-02 7.541487e-02 0.9972 -12.9521 4.4921)" class="st0" width="2.9" height="0.6"/>
		
			<rect x="121.7" y="172.6" transform="matrix(0.1168 -0.9932 0.9932 0.1168 -63.1107 275.1748)" class="st0" width="2.9" height="0.9"/>
		
			<rect x="72.3" y="178.2" transform="matrix(0.9103 -0.4138 0.4138 0.9103 -67.5318 46.576)" class="st0" width="2.9" height="1.9"/>
		
			<rect x="90.4" y="131.6" transform="matrix(0.3621 -0.9321 0.9321 0.3621 -65.6257 170.2782)" class="st0" width="2.3" height="2.9"/>
		
			<rect x="50.9" y="180.3" transform="matrix(0.7518 -0.6594 0.6594 0.7518 -106.9572 79.3326)" class="st0" width="2" height="2.9"/>
		
			<rect x="65.9" y="139.1" transform="matrix(0.1321 -0.9912 0.9912 0.1321 -81.746 187.8368)" class="st0" width="0.9" height="2.9"/>
		
			<rect x="53.6" y="182.5" transform="matrix(5.753645e-03 -1 1 5.753645e-03 -128.2307 236.9771)" class="st0" width="2.9" height="0.8"/>
		
			<rect x="144.9" y="117.1" transform="matrix(5.579105e-02 -0.9984 0.9984 5.579105e-02 20.5601 257.3294)" class="st0" width="2.9" height="1.3"/>
		
			<rect x="99.2" y="144.5" transform="matrix(0.7466 -0.6652 0.6652 0.7466 -71.2227 103.7909)" class="st0" width="2.9" height="1.7"/>
		<rect x="86" y="138" transform="matrix(0.9684 -0.2493 0.2493 0.9684 -32.004 26.0968)" class="st0" width="2" height="2.9"/>
		
			<rect x="154.1" y="88.9" transform="matrix(0.9452 -0.3266 0.3266 0.9452 -20.8003 55.7209)" class="st0" width="2.9" height="1.9"/>
		
			<rect x="135.6" y="150.1" transform="matrix(0.8971 -0.4418 0.4418 0.8971 -52.6218 76.071)" class="st0" width="2.9" height="1.9"/>
		
			<rect x="90.9" y="122.1" transform="matrix(0.2484 -0.9686 0.9686 0.2484 -50.665 181.7911)" class="st0" width="1.9" height="2.9"/>
		
			<rect x="126.8" y="79.3" transform="matrix(0.7736 -0.6337 0.6337 0.7736 -22.259 99.294)" class="st0" width="2.1" height="2.9"/>
		<rect x="60.9" y="150" transform="matrix(0.7342 -0.679 0.679 0.7342 -85.9475 82.4648)" class="st0" width="2.9" height="1.9"/>
		
			<rect x="85.8" y="115.9" transform="matrix(0.817 -0.5766 0.5766 0.817 -51.0485 71.5706)" class="st0" width="2.9" height="0.6"/>
		
			<rect x="118.9" y="129.2" transform="matrix(0.7671 -0.6415 0.6415 0.7671 -56.0169 106.9314)" class="st0" width="0.8" height="2.9"/>
		
			<rect x="70.8" y="79.5" transform="matrix(0.6231 -0.7821 0.7821 0.6231 -36.2046 86.714)" class="st0" width="2.1" height="2.9"/>
		
			<rect x="133.9" y="90.1" transform="matrix(0.2264 -0.974 0.974 0.2264 16.3871 201.9249)" class="st0" width="2.9" height="1.2"/>
		
			<rect x="63.4" y="177.8" transform="matrix(0.795 -0.6066 0.6066 0.795 -95.6785 75.3763)" class="st0" width="0.6" height="2.9"/>
		
			<rect x="61.5" y="174.3" transform="matrix(0.8991 -0.4377 0.4377 0.8991 -70.3459 45.2321)" class="st0" width="2.9" height="1.9"/>
		<rect x="42.5" y="88.1" transform="matrix(0.8266 -0.5628 0.5628 0.8266 -42.5213 40.1933)" class="st0" width="2.9" height="2"/>
		
			<rect x="67.5" y="180.5" transform="matrix(0.8607 -0.5092 0.5092 0.8607 -83.0736 60.233)" class="st0" width="1.9" height="2.9"/>
		
			<rect x="61.7" y="147" transform="matrix(0.6254 -0.7803 0.7803 0.6254 -92.368 104.5868)" class="st0" width="2.1" height="2.9"/>
		<rect x="42.2" y="99" transform="matrix(0.9353 -0.3539 0.3539 0.9353 -32.6044 21.9108)" class="st0" width="2.9" height="2.1"/>
		<rect x="61.8" y="104" transform="matrix(0.818 -0.5752 0.5752 0.818 -49.2802 55.0985)" class="st0" width="1.2" height="2.9"/>
		
			<rect x="120.3" y="155.3" transform="matrix(0.9521 -0.3057 0.3057 0.9521 -42.1441 44.3897)" class="st0" width="0.7" height="2.9"/>
		
			<rect x="111.2" y="87.1" transform="matrix(0.6844 -0.7291 0.7291 0.6844 -29.2696 109.3925)" class="st0" width="1.1" height="2.9"/>
		
			<rect x="90.2" y="172.3" transform="matrix(0.5414 -0.8408 0.8408 0.5414 -104.2311 156.3517)" class="st0" width="2" height="2.9"/>
		
			<rect x="121.9" y="173.4" transform="matrix(0.8291 -0.5591 0.5591 0.8291 -76.4166 98.7837)" class="st0" width="2.9" height="2"/>
		
			<rect x="80.2" y="112.1" transform="matrix(0.8184 -0.5747 0.5747 0.8184 -50.5136 67.2661)" class="st0" width="1.9" height="2.9"/>
		
			<rect x="82.6" y="106.7" transform="matrix(0.7175 -0.6966 0.6966 0.7175 -51.2645 88.9465)" class="st0" width="2.9" height="1.9"/>
		
			<rect x="113.2" y="103.8" transform="matrix(0.7679 -0.6406 0.6406 0.7679 -40.9066 97.5472)" class="st0" width="1.9" height="2.9"/>
		
			<rect x="63.8" y="136.9" transform="matrix(0.9894 -0.1454 0.1454 0.9894 -19.4257 10.8876)" class="st0" width="2.1" height="2.9"/>
		
			<rect x="88.2" y="125.6" transform="matrix(0.2424 -0.9702 0.9702 0.2424 -55.7663 182.6948)" class="st0" width="1.8" height="2.9"/>
		
			<rect x="155.7" y="98" transform="matrix(0.5671 -0.8236 0.8236 0.5671 -14.1765 172.0076)" class="st0" width="1.8" height="2.9"/>
		
			<rect x="143.7" y="149.1" transform="matrix(0.7646 -0.6445 0.6445 0.7646 -62.5639 128.8445)" class="st0" width="2.9" height="2"/>
		
			<rect x="108" y="112.7" transform="matrix(3.369062e-02 -0.9994 0.9994 3.369062e-02 -8.7973 219.2351)" class="st0" width="1.9" height="2.9"/>
		
			<rect x="73.1" y="110.6" transform="matrix(0.9774 -0.2114 0.2114 0.9774 -22.0346 18.0687)" class="st0" width="0.7" height="2.9"/>
		
			<rect x="51.7" y="112.8" transform="matrix(0.9941 -0.1083 0.1083 0.9941 -12.071 6.3246)" class="st0" width="1.1" height="2.9"/>
		
			<rect x="109.1" y="134.4" transform="matrix(0.3623 -0.9321 0.9321 0.3623 -56.4976 189.1957)" class="st0" width="1.9" height="2.9"/>
		<rect x="73.2" y="147" transform="matrix(0.9206 -0.3905 0.3905 0.9206 -51.9004 40.901)" class="st0" width="2.9" height="2.1"/>
		
			<rect x="86.8" y="132.2" transform="matrix(0.4582 -0.8888 0.8888 0.4582 -71.4554 150.0233)" class="st0" width="1.1" height="2.9"/>
		
			<rect x="28.8" y="102.6" transform="matrix(0.8198 -0.5727 0.5727 0.8198 -53.8526 35.9671)" class="st0" width="2.9" height="2"/>
		
			<rect x="40" y="127.7" transform="matrix(0.5097 -0.8603 0.8603 0.5097 -90.2654 98.6719)" class="st0" width="2.9" height="1.7"/>
		
			<rect x="79.2" y="169.4" transform="matrix(0.8944 -0.4472 0.4472 0.8944 -67.344 53.986)" class="st0" width="2.9" height="0.5"/>
		
			<rect x="93.7" y="152.8" transform="matrix(0.7545 -0.6563 0.6563 0.7545 -77.9979 100.0007)" class="st0" width="2" height="2.9"/>
		
			<rect x="65.4" y="181.8" transform="matrix(0.1902 -0.9817 0.9817 0.1902 -126.1099 213.6034)" class="st0" width="2" height="2.9"/>
		
			<rect x="96.5" y="186" transform="matrix(0.1851 -0.9827 0.9827 0.1851 -104.7858 248.4955)" class="st0" width="1.9" height="2.9"/>
		
			<rect x="168.8" y="108.4" transform="matrix(0.877 -0.4805 0.4805 0.877 -31.8849 95.063)" class="st0" width="1.9" height="2.9"/>
		
			<rect x="95.2" y="89.7" transform="matrix(0.4783 -0.8782 0.8782 0.4783 -29.1613 132.0972)" class="st0" width="2.9" height="1.8"/>
		
			<rect x="140.4" y="118.4" transform="matrix(0.257 -0.9664 0.9664 0.257 -10.7761 225.6525)" class="st0" width="1.9" height="2.9"/>
		
			<rect x="171.4" y="173" transform="matrix(0.826 -0.5637 0.5637 0.826 -67.9301 127.7155)" class="st0" width="2.9" height="1.8"/>
		
			<rect x="141.4" y="114.3" transform="matrix(0.8609 -0.5087 0.5087 0.8609 -39.0846 88.4749)" class="st0" width="1.9" height="2.9"/>
		
			<rect x="78.1" y="175.1" transform="matrix(0.2603 -0.9655 0.9655 0.2603 -111.1139 206.9826)" class="st0" width="2.9" height="1.8"/>
		
			<rect x="122.1" y="124.7" transform="matrix(0.8491 -0.5283 0.5283 0.8491 -47.7159 84.2352)" class="st0" width="2.9" height="1.9"/>
		<rect x="146.1" y="90.8" transform="matrix(0.983 -0.1836 0.1836 0.983 -14.4495 28.49)" class="st0" width="1" height="2.9"/>
		
			<rect x="49.9" y="101.4" transform="matrix(8.809043e-02 -0.9961 0.9961 8.809043e-02 -56.7692 143.7238)" class="st0" width="0.5" height="2.9"/>
		
			<rect x="127.3" y="98.5" transform="matrix(0.4207 -0.9072 0.9072 0.4207 -16.5066 173.9592)" class="st0" width="1.2" height="2.9"/>
		<polygon class="st0" points="59.5,138.9 59.5,138.6 62.3,137.9 62.3,138.2 		"/>
		
			<rect x="28.9" y="190.2" transform="matrix(0.925 -0.3799 0.3799 0.925 -70.0317 25.7978)" class="st0" width="2.9" height="0.3"/>
		
			<rect x="54.1" y="164.4" transform="matrix(0.819 -0.5737 0.5737 0.819 -84.7467 61.7948)" class="st0" width="2.9" height="1.6"/>
		
			<rect x="148.7" y="180.9" transform="matrix(0.703 -0.7112 0.7112 0.703 -84.6118 160.7547)" class="st0" width="2.9" height="1.5"/>
		
			<rect x="94.6" y="141.7" transform="matrix(0.4566 -0.8897 0.8897 0.4566 -75.7922 162.1489)" class="st0" width="0.5" height="2.9"/>
		
			<rect x="152.7" y="95.5" transform="matrix(0.7854 -0.619 0.619 0.7854 -26.5566 116.0736)" class="st0" width="2.9" height="1.7"/>
		
			<rect x="100.9" y="143.1" transform="matrix(0.9079 -0.4192 0.4192 0.9079 -50.9993 56.1913)" class="st0" width="2.9" height="2.1"/>
		
			<rect x="159.7" y="122.2" transform="matrix(0.8023 -0.5969 0.5969 0.8023 -41.6384 120.5168)" class="st0" width="2.9" height="1.8"/>
		
			<rect x="64.6" y="118.9" transform="matrix(0.7808 -0.6248 0.6248 0.7808 -60.7866 67.3463)" class="st0" width="1.9" height="2.9"/>
		
			<rect x="164.6" y="137.4" transform="matrix(0.1001 -0.995 0.995 0.1001 10.8608 289.6718)" class="st0" width="1.9" height="2.9"/>
		
			<rect x="108.5" y="167.6" transform="matrix(0.4368 -0.8996 0.8996 0.4368 -89.7379 193.8938)" class="st0" width="2.9" height="2"/>
		
			<rect x="155.2" y="143" transform="matrix(0.6641 -0.7476 0.7476 0.6641 -55.5148 165.2764)" class="st0" width="1.9" height="2.9"/>
		
			<rect x="84.3" y="154.2" transform="matrix(0.3073 -0.9516 0.9516 0.3073 -88.2193 189.1192)" class="st0" width="2.9" height="1.8"/>
		
			<rect x="167.1" y="114.5" transform="matrix(0.2294 -0.9733 0.9733 0.2294 16.5615 252.9125)" class="st0" width="1.8" height="2.9"/>
		
			<rect x="115.4" y="151" transform="matrix(0.7465 -0.6654 0.6654 0.7465 -71.4837 116.2376)" class="st0" width="2.9" height="1.9"/>
		
			<rect x="103.7" y="148" transform="matrix(0.8557 -0.5174 0.5174 0.8557 -62.2788 75.4722)" class="st0" width="1.1" height="2.9"/>
		
			<rect x="101.2" y="128.9" transform="matrix(0.8401 -0.5425 0.5425 0.8401 -54.5308 75.8086)" class="st0" width="0.2" height="2.9"/>
		
			<rect x="94.7" y="124.6" transform="matrix(0.1233 -0.9924 0.9924 0.1233 -41.6054 204.9283)" class="st0" width="1.1" height="2.9"/>
		<rect x="86" y="95" transform="matrix(0.9446 -0.3283 0.3283 0.9446 -26.8792 33.741)" class="st0" width="1" height="2.9"/>
		
			<rect x="152.1" y="91.6" transform="matrix(0.8356 -0.5493 0.5493 0.8356 -25.2604 99.4377)" class="st0" width="2.9" height="0.6"/>
		
			<rect x="134.2" y="182.7" transform="matrix(0.9896 -0.1435 0.1435 0.9896 -25.0288 21.2473)" class="st0" width="1.2" height="2.9"/>
		
			<rect x="145.2" y="104.3" transform="matrix(0.9723 -0.2337 0.2337 0.9723 -20.5435 37.1922)" class="st0" width="2.9" height="1.9"/>
		
			<rect x="127" y="183.4" transform="matrix(0.8764 -0.4816 0.4816 0.8764 -72.9115 84.662)" class="st0" width="2.9" height="1.9"/>
		
			<rect x="121.1" y="166.4" transform="matrix(0.7522 -0.6589 0.6589 0.7522 -80.3458 122.0299)" class="st0" width="1.9" height="2.9"/>
		
			<rect x="102.9" y="101.5" transform="matrix(0.9313 -0.3643 0.3643 0.9313 -30.1691 45.0641)" class="st0" width="2.9" height="1.9"/>
		
			<rect x="76.8" y="176.3" transform="matrix(0.7256 -0.6881 0.6881 0.7256 -100.4389 102.4852)" class="st0" width="2.9" height="1.9"/>
		
			<rect x="155.5" y="153.2" transform="matrix(0.3563 -0.9344 0.9344 0.3563 -42.9349 245.8179)" class="st0" width="2.9" height="1.8"/>
		
			<rect x="94.2" y="188.3" transform="matrix(0.586 -0.8103 0.8103 0.586 -114.3843 155.5882)" class="st0" width="1.8" height="2.9"/>
		<rect x="160.7" y="164.5" transform="matrix(0.5506 -0.8348 0.8348 0.5506 -65.87 209.5)" class="st0" width="1.9" height="2.9"/>
		
			<rect x="182.3" y="108.9" transform="matrix(0.8976 -0.4408 0.4408 0.8976 -29.6085 92.2624)" class="st0" width="2.9" height="2"/>
		
			<rect x="84.2" y="140.6" transform="matrix(0.4957 -0.8685 0.8685 0.4957 -80.6135 145.3289)" class="st0" width="1.2" height="2.9"/>
		
			<rect x="52.7" y="179.8" transform="matrix(0.2692 -0.9631 0.9631 0.2692 -135.9249 183.3577)" class="st0" width="0.4" height="2.9"/>
		
			<rect x="150.4" y="153.8" transform="matrix(0.8553 -0.5181 0.5181 0.8553 -58.5947 100.654)" class="st0" width="1" height="2.9"/>
		
			<rect x="153.4" y="193.9" transform="matrix(0.9568 -0.2908 0.2908 0.9568 -49.936 53.4465)" class="st0" width="2.9" height="1.6"/>
		
			<rect x="82.6" y="190.9" transform="matrix(0.4492 -0.8934 0.8934 0.4492 -126.1399 180.1079)" class="st0" width="0.9" height="2.9"/>
		
			<rect x="59.1" y="173.5" transform="matrix(0.2887 -0.9574 0.9574 0.2887 -123.1997 181.5325)" class="st0" width="2.9" height="0.3"/>
		
			<rect x="148.6" y="101.3" transform="matrix(0.3382 -0.9411 0.9411 0.3382 1.7749 208.0074)" class="st0" width="0.4" height="2.9"/>
		
			<rect x="91" y="191.8" transform="matrix(0.9795 -0.2014 0.2014 0.9795 -36.8962 22.5727)" class="st0" width="2.9" height="1.8"/>
		
			<rect x="169.4" y="109.7" transform="matrix(0.8124 -0.5831 0.5831 0.8124 -32.8432 120.1534)" class="st0" width="1.9" height="2.9"/>
		
			<rect x="152.6" y="163.9" transform="matrix(0.4492 -0.8934 0.8934 0.4492 -63.2128 228.1427)" class="st0" width="1.7" height="2.9"/>
		
			<rect x="93.7" y="120.8" transform="matrix(0.9979 -6.429966e-02 6.429966e-02 0.9979 -7.6312 6.3691)" class="st0" width="2.9" height="1.9"/>
		
			<rect x="121.7" y="122" transform="matrix(0.5653 -0.8249 0.8249 0.5653 -47.8578 155.015)" class="st0" width="2.9" height="1.8"/>
		
			<rect x="139.9" y="109" transform="matrix(0.5469 -0.8372 0.8372 0.5469 -27.9881 168.1408)" class="st0" width="2.9" height="1.9"/>
		
			<rect x="92.7" y="137.8" transform="matrix(0.2096 -0.9778 0.9778 0.2096 -61.2244 201.7722)" class="st0" width="2.9" height="1.9"/>
		
			<rect x="75.2" y="160" transform="matrix(0.4447 -0.8957 0.8957 0.4447 -101.5735 158.0493)" class="st0" width="2.9" height="1.8"/>
		
			<rect x="194.1" y="146.6" transform="matrix(2.593904e-02 -0.9997 0.9997 2.593904e-02 42.002 339.2105)" class="st0" width="1.9" height="2.9"/>
		
			<rect x="151.1" y="130" transform="matrix(0.9589 -0.2836 0.2836 0.9589 -30.8694 48.6499)" class="st0" width="2.9" height="1.9"/>
		
			<rect x="182.6" y="170.6" transform="matrix(0.9498 -0.3129 0.3129 0.9498 -44.4402 66.1956)" class="st0" width="2.9" height="1.9"/>
		
			<rect x="91" y="149" transform="matrix(1.482317e-02 -0.9999 0.9999 1.482317e-02 -60.3968 239.6103)" class="st0" width="0.8" height="2.9"/>
		
			<rect x="66.6" y="193.7" transform="matrix(0.6225 -0.7826 0.7826 0.6225 -126.0784 126.488)" class="st0" width="2.9" height="0.4"/>
		
			<rect x="116.4" y="178" transform="matrix(0.6612 -0.7502 0.7502 0.6612 -94.1222 148.9467)" class="st0" width="2.9" height="1.3"/>
		
			<rect x="107.5" y="153" transform="matrix(0.8753 -0.4836 0.4836 0.8753 -61.1546 71.7002)" class="st0" width="1.9" height="2.9"/>
		
			<rect x="101.7" y="169.6" transform="matrix(0.9488 -0.3158 0.3158 0.9488 -48.5728 41.2961)" class="st0" width="2.9" height="1.8"/>
		
			<rect x="125.7" y="132.3" transform="matrix(0.7528 -0.6582 0.6582 0.7528 -56.2602 116.6041)" class="st0" width="2.9" height="1.9"/>
		
			<rect x="71.7" y="198.7" transform="matrix(0.5703 -0.8215 0.8215 0.5703 -133.1882 145.6711)" class="st0" width="1.9" height="2.9"/>
		
			<rect x="120.3" y="144.1" transform="matrix(0.1355 -0.9908 0.9908 0.1355 -38.3429 246.0039)" class="st0" width="2.9" height="1.8"/>
		<rect x="165" y="116.3" transform="matrix(0.9698 -0.244 0.244 0.9698 -23.5611 44.1708)" class="st0" width="2.9" height="1.9"/>
		
			<rect x="126.4" y="124.4" transform="matrix(5.338976e-02 -0.9986 0.9986 5.338976e-02 -5.0324 246.3042)" class="st0" width="2.1" height="2.9"/>
		
			<rect x="141.7" y="163.8" transform="matrix(0.9298 -0.368 0.368 0.9298 -50.8081 64.0851)" class="st0" width="1.9" height="2.9"/>
		
			<rect x="115.1" y="189.8" transform="matrix(0.8469 -0.5318 0.5318 0.8469 -83.933 91.0097)" class="st0" width="1.9" height="2.9"/>
		
			<rect x="114.7" y="114.3" transform="matrix(0.8454 -0.5341 0.5341 0.8454 -43.5847 79.8427)" class="st0" width="2.9" height="1.9"/>
		
			<rect x="100.4" y="146.1" transform="matrix(0.3928 -0.9196 0.9196 0.3928 -73.2973 182.952)" class="st0" width="2.9" height="1.9"/>
		
			<rect x="185.4" y="122.1" transform="matrix(0.6783 -0.7348 0.7348 0.6783 -30.2479 176.9036)" class="st0" width="2.9" height="1.8"/>
		
			<rect x="168.7" y="195.6" transform="matrix(0.1987 -0.9801 0.9801 0.1987 -57.1624 324.1821)" class="st0" width="1.9" height="2.9"/>
		
			<rect x="191" y="172.8" transform="matrix(0.9998 -2.189951e-02 2.189951e-02 0.9998 -3.7595 4.2567)" class="st0" width="2.9" height="2.1"/>
		
			<rect x="95.3" y="175.1" transform="matrix(0.7905 -0.6124 0.6124 0.7905 -87.3295 96.0214)" class="st0" width="2.9" height="1.2"/>
		
			<rect x="52.3" y="153.3" transform="matrix(0.4109 -0.9117 0.9117 0.4109 -108.1717 139.3266)" class="st0" width="2.9" height="0.2"/>
		
			<rect x="139.7" y="126.7" transform="matrix(0.4677 -0.8839 0.8839 0.4677 -38.7402 191.9077)" class="st0" width="0.5" height="2.9"/>
		
			<rect x="120.6" y="127.9" transform="matrix(0.6474 -0.7622 0.7622 0.6474 -54.5955 138.1928)" class="st0" width="2.9" height="0.4"/>
		
			<rect x="165.3" y="110.9" transform="matrix(0.9046 -0.4263 0.4263 0.9046 -32.0884 81.4133)" class="st0" width="0.9" height="2.9"/>
		
			<rect x="170.4" y="115.5" transform="matrix(0.5752 -0.818 0.818 0.5752 -21.9666 189.9299)" class="st0" width="2.9" height="1.2"/>
		
			<rect x="94.6" y="105.9" transform="matrix(0.158 -0.9874 0.9874 0.158 -25.8171 184.3786)" class="st0" width="1.1" height="2.9"/>
		
			<rect x="95.8" y="159.4" transform="matrix(0.3187 -0.9479 0.9479 0.3187 -85.4541 201.1979)" class="st0" width="2.9" height="1.3"/>
		<rect x="161.7" y="114.9" transform="matrix(0.945 -0.327 0.327 0.945 -28.8913 59.71)" class="st0" width="2.9" height="1.8"/>
		
			<rect x="182" y="160.5" transform="matrix(0.8354 -0.5496 0.5496 0.8354 -58.5794 127.4228)" class="st0" width="2.9" height="2"/>
		
			<rect x="153.5" y="173.8" transform="matrix(0.9477 -0.3191 0.3191 0.9477 -47.8525 58.4532)" class="st0" width="2" height="2.9"/>
		
			<rect x="119.9" y="118.1" transform="matrix(0.9956 -9.364855e-02 9.364855e-02 0.9956 -10.6628 11.8506)" class="st0" width="2.1" height="2.9"/>
		<rect x="89.7" y="164.3" transform="matrix(0.172 -0.9851 0.9851 0.172 -88.1487 226.6083)" class="st0" width="2" height="2.9"/>
		
			<rect x="114.2" y="104.8" transform="matrix(0.1097 -0.994 0.994 0.1097 -3.0771 209.0252)" class="st0" width="1.8" height="2.9"/>
		<rect x="131" y="183.1" transform="matrix(0.9614 -0.2752 0.2752 0.9614 -45.5654 43.5764)" class="st0" width="2.9" height="2"/>
		<rect x="124" y="112.4" transform="matrix(0.521 -0.8535 0.8535 0.521 -36.615 161.3092)" class="st0" width="2.9" height="1.7"/>
		
			<rect x="137.8" y="131.2" transform="matrix(0.9983 -5.862327e-02 5.862327e-02 0.9983 -7.5384 8.3159)" class="st0" width="0.4" height="2.9"/>
		
			<rect x="120.2" y="101.7" transform="matrix(0.6804 -0.7328 0.7328 0.6804 -37.0535 121.2834)" class="st0" width="0.7" height="2.9"/>
		
			<rect x="118.6" y="123.4" transform="matrix(0.4194 -0.9078 0.9078 0.4194 -42.7881 180.993)" class="st0" width="2.9" height="1"/>
		
			<rect x="133.9" y="164.2" transform="matrix(0.1629 -0.9866 0.9866 0.1629 -49.3923 271.5356)" class="st0" width="2.9" height="1.4"/>
		
			<rect x="84" y="189.4" transform="matrix(0.9132 -0.4075 0.4075 0.9132 -70.1503 51.3313)" class="st0" width="2.9" height="1.8"/>
		
			<rect x="84.9" y="100.7" transform="matrix(0.9993 -3.676947e-02 3.676947e-02 0.9993 -3.6807 3.2433)" class="st0" width="2.9" height="1.9"/>
		
			<rect x="160.5" y="114.6" transform="matrix(0.6635 -0.7482 0.7482 0.6635 -32.0226 160.1116)" class="st0" width="2.9" height="2"/>
		
			<rect x="163.3" y="177.8" transform="matrix(0.7971 -0.6039 0.6039 0.7971 -75.0009 135.3414)" class="st0" width="1.2" height="2.9"/>
		
			<rect x="115" y="105.6" transform="matrix(0.9808 -0.1951 0.1951 0.9808 -18.4442 24.7688)" class="st0" width="2.9" height="0.8"/>
		
			<rect x="101.1" y="110.9" transform="matrix(0.6387 -0.7694 0.7694 0.6387 -49.818 118.6692)" class="st0" width="0.8" height="2.9"/>
		
			<rect x="88.2" y="107.8" transform="matrix(0.9347 -0.3554 0.3554 0.9347 -33.0277 38.7104)" class="st0" width="1.3" height="2.9"/>
	</g>
</g>
</svg>
