<?xml version="1.0" encoding="utf-8"?>
<!-- Generator: Adobe Illustrator 25.4.1, SVG Export Plug-In . SVG Version: 6.00 Build 0)  -->
<svg version="1.1" id="Layer_1" xmlns="http://www.w3.org/2000/svg" xmlns:xlink="http://www.w3.org/1999/xlink" x="0px" y="0px"
	 viewBox="0 0 960 1120" style="enable-background:new 0 0 960 1120;" xml:space="preserve">
<style type="text/css">
	.st0{fill:#72FF3E;}
</style>
<g>
	<g>
		<path class="st0" d="M8.1,925.3c2.7,28.3,5.1,57.9,16,84.5c3.9,9.4,7.6,19,13,27.7c5.4,8.8,11.9,17.1,18.9,24.6
			c6.6,7,14.6,12.9,22.3,18.5c4.1,3,8.5,5.6,13.1,7.9c13.5,6.5,27.4,12,42.3,14.3c15.6,2.3,30.7,4.1,46.4,3
			c27-1.9,53.6-7.3,79.2-16.1c48.5-16.7,96.4-38.5,137.3-69.7c22.2-17,43.3-34.8,61-56.7c21.2-26.3,39-53.5,49.7-85.9
			c2.1-6.3,3.6-12.7,4.6-19.3c1.6-10.7,3.5-21.6,2.6-32.5c-0.8-10.6-1.9-22.1-5.6-32.2c-3.2-8.7-6.7-17.8-12.1-25.5
			c-5.3-7.5-11-15.5-18.1-21.5c-7-5.9-14.7-12.4-23.2-16.4c-8.2-3.9-16.8-8-25.9-9.6c-15.9-2.8-26.3-3-42.2,0.1
			c-2.2,0.4-4.2,1-6.3,1.8c-6.4,2.4-13.2,4.9-19.1,8.6c25.9,25.9,51.7,51.7,77.6,77.6c6-9.9,12.6-19.5,19.7-28.7
			c-3,3.8-5.9,7.6-8.9,11.5c19.9-25.7,43.5-48.2,69.2-68.1c-3.8,3-7.6,5.9-11.5,8.9c53.7-41.5,115-71,176-100
			c32.2-15.3,64.4-30.7,95.6-47.9c34.9-19.3,68-41.4,98.8-66.7c16-13.1,30.8-28.8,41.1-46.9c5.9-10.4,11.1-22,13.5-33.9
			c2.3-11.2,4.1-23.6,2.8-35.1c-1.3-11.9-2.6-23.4-7-34.6c-4.2-10.8-8.6-21.5-15.2-31.1c-13.6-19.5-29.9-36.3-50.7-48.2
			c-22.7-13-47.8-18.7-73.6-20.6c-9-0.6-18.1-0.4-27.1,0.7c-13.4,1.5-26.8,3.3-39.9,6.5c-22.2,5.5-43.5,14.4-64.3,23.7
			c-16.8,7.6-33,16.4-48.4,26.4c-10.7,6.9-21.4,14.4-30.7,23.1c-5.9,5.6-10.9,12.5-15.6,18.9c-5.1,7-8,14.9-11.2,23
			c-4.5,11.1-6.1,23.8-6,35.6c0.1,12.5,2,25.7,6,37.6c3.9,11.4,8.7,23.1,15.4,33.3c6.9,10.6,15.1,20.7,23.8,29.9
			c12.1,12.8,26,23.8,38.3,36.4c5.6,5.7,10.8,11.7,15.7,18c-3-3.8-5.9-7.6-8.9-11.5c12.1,15.7,21.8,33,29.5,51.3
			c-1.9-4.5-3.8-9-5.7-13.5c10,24,16.3,49.2,19.8,74.9c-0.7-5-1.4-10-2-15.1c4.7,36.2,3.3,72.8-1.4,108.9c0.7-5,1.4-10,2-15.1
			c-3.4,25-8.3,49.7-14.1,74.2c-2.8,12-5.8,24-9,35.9c-1.5,5.7-3,11.4-4.5,17.1c-3.9,14.7-5.1,29.4-1.8,44.3
			c2.9,12.9,10.5,25.8,20.2,34.8c7.4,6.9,15.7,12,24.3,17.2c10.9,6.5,21.7,13,32.6,19.5c22.2,13.3,44.4,26.6,66.6,39.9
			c24.6,14.7,49.1,29.4,73.7,44.1c-8.7-21.3-17.4-42.7-26.1-64c-0.3,1.3-0.7,2.6-1.2,3.9c1.9-4.5,3.8-9,5.7-13.5
			c-0.7,1.5-1.5,2.9-2.4,4.2c3-3.8,5.9-7.6,8.9-11.5c-1.2,1.6-2.6,2.9-4.1,4.2c3.8-3,7.6-5.9,11.5-8.9c-2.1,1.6-4.4,2.9-6.9,4
			c4.5-1.9,9-3.8,13.5-5.7c-2.6,1-5.2,1.6-7.9,2c5-0.7,10-1.4,15.1-2c-2.8,0.3-5.5,0.3-8.2,0c5,0.7,10,1.4,15.1,2
			c-2.4-0.4-4.6-1-6.9-1.8c4.5,1.9,9,3.8,13.5,5.7c-3.5-1.5-6.7-3.4-9.7-5.7c3.8,3,7.6,5.9,11.5,8.9c-3.6-2.9-6.8-6.2-9.7-9.9
			c3,3.8,5.9,7.6,8.9,11.5c-7.2-9.4-12.4-20.2-17-31c1.9,4.5,3.8,9,5.7,13.5c-18-43.3-24.3-90.7-30.5-136.9c0.7,5,1.4,10,2,15.1
			c-2.8-21.1-4.6-42.4-1.9-63.6c-0.7,5-1.4,10-2,15.1c1.4-9.9,3.9-19.5,7.7-28.8c-1.9,4.5-3.8,9-5.7,13.5
			c3.2-7.6,7.2-14.7,12.2-21.3c-3,3.8-5.9,7.6-8.9,11.5c3.9-5.1,8.4-9.7,13.4-13.7c-3.8,3-7.6,5.9-11.5,8.9
			c4.4-3.4,9.2-6.3,14.3-8.5c-4.5,1.9-9,3.8-13.5,5.7c0.4-0.2,0.7-0.3,1.1-0.5c7.4-1.8,13.8-5.1,19.3-10.1c6.2-4,11-9.3,14.6-15.9
			c4.1-6.5,6.4-13.5,6.7-21.1c1.7-7.5,1.4-15.1-1-22.6c-4.4-13.7-12.9-27-26.1-33.9c-4.5-1.9-9-3.8-13.5-5.7
			c-10-2.7-20.1-2.7-30.1,0c-10,4.2-19.8,7.8-28.5,14.4c-8.6,6.5-17,12.6-23.8,21c-6.6,8.1-13.3,16.4-18.3,25.7
			c-5.1,9.6-9.4,19.8-12.8,30.1c-2.1,6.4-3.6,13-4.6,19.7c-1.9,12.4-3.6,24.7-3.7,37.2c-0.2,21.1,3.1,42,6,62.8
			c4.3,30.7,8.6,61.7,16.4,91.7c5,19.1,11.9,37.2,19.7,55.3c7.3,16.9,16.6,32.6,29.4,46c5.5,5.7,12.2,10.5,18.5,15
			c6.5,4.6,14.4,7.5,21.7,10.3c14.9,5.6,30,4.2,45.2,1.9c12.8-2,24-8.4,34.1-16.1c13.5-10.4,24.1-24.8,28-41.7c0.7-5,1.4-10,2-15.1
			c0.3-7.8-1.3-15.1-4.9-21.8c-1.3-4.8-3.8-9-7.3-12.5c-4-6.2-9.3-11-15.9-14.6c-48.4-29-96.8-58-145.2-87
			c-6.8-4.1-13.7-8.2-20.5-12.3c-6.3-3.8-13.1-7.3-18.9-11.8c3.8,3,7.6,5.9,11.5,8.9c-1.3-1.1-2.4-2.2-3.5-3.4
			c3,3.8,5.9,7.6,8.9,11.5c-0.7-1-1.3-2-1.9-3.1c1.9,4.5,3.8,9,5.7,13.5c-0.5-1.4-0.9-2.6-1.1-4c0.7,5,1.4,10,2,15.1
			c-0.2-1.9-0.2-3.7,0-5.7c-0.7,5-1.4,10-2,15.1c1.1-8.4,4-16.6,6.1-24.8c2.2-8.3,4.3-16.6,6.3-24.9c4.2-16.9,8-33.9,11.2-51.1
			c7.3-38.4,12.5-77.8,12.1-117c-0.2-19.4-2.4-38.4-5.1-57.5c-2-14.4-4.8-28.7-8.8-42.8c-5.1-18.2-12.2-35.8-20.1-52.9
			c-6-13-13.1-25.4-21.4-37.1c-12.1-17-25.3-32.6-40.6-46.8c-12.9-11.9-26.3-23.4-37.2-37.3c3,3.8,5.9,7.6,8.9,11.5
			c-4.8-6.3-8.9-13-12-20.2c1.9,4.5,3.8,9,5.7,13.5c-2.8-6.8-4.9-13.8-5.8-21.1c0.7,5,1.4,10,2,15.1c-0.6-5-0.6-10-0.1-15
			c-0.7,5-1.4,10-2,15.1c0.6-4.5,1.8-8.9,3.5-13.1c-1.9,4.5-3.8,9-5.7,13.5c1.6-3.6,3.6-6.9,5.9-10c-3,3.8-5.9,7.6-8.9,11.5
			c3.6-4.6,7.9-8.5,12.4-12.1c-3.8,3-7.6,5.9-11.5,8.9c21-16.1,45.4-28.7,69.7-39c-4.5,1.9-9,3.8-13.5,5.7
			c20.2-8.5,41.2-15.3,62.9-18.4c-5,0.7-10,1.4-15.1,2c13.1-1.8,26.3-2.1,39.5-0.4c-5-0.7-10-1.4-15.1-2c9.5,1.3,18.8,3.7,27.6,7.3
			c-4.5-1.9-9-3.8-13.5-5.7c7.3,3.1,14,7.1,20.2,11.9c-3.8-3-7.6-5.9-11.5-8.9c6.2,4.9,11.8,10.5,16.8,16.8c-3-3.8-5.9-7.6-8.9-11.5
			c4.8,6.3,8.8,13,11.9,20.3c-1.9-4.5-3.8-9-5.7-13.5c2.5,6.1,4.3,12.4,5.2,18.9c-0.7-5-1.4-10-2-15.1c0.8,6.1,0.8,12.2,0,18.3
			c0.7-5,1.4-10,2-15.1c-0.8,5.3-2.3,10.4-4.3,15.4c1.9-4.5,3.8-9,5.7-13.5c-2.9,7-6.9,13.3-11.5,19.3c3-3.8,5.9-7.6,8.9-11.5
			c-9.6,12.1-21.5,22.1-33.7,31.5c3.8-3,7.6-5.9,11.5-8.9c-58.2,44.9-125.4,75.4-191.3,106.9c-31.6,15.1-63,30.6-93.3,48.2
			c-32.8,19.1-64.1,40.9-93,65.5c-31.9,27.1-59.9,59.5-81.6,95.3c-1.9,4.5-3.8,9-5.7,13.5c-2.4,7.5-2.7,15.1-1,22.6
			c0,5.1,1.3,9.9,3.9,14.3c2.3,7,6.2,13.1,11.7,18.2c7.2,6.6,15.7,11.6,25,14.6c7.5,2.4,15.1,2.7,22.6,1c7.5-0.3,14.6-2.6,21.1-6.7
			c1.5-0.9,3-1.7,4.6-2.5c-4.5,1.9-9,3.8-13.5,5.7c2.8-1.2,5.7-2,8.7-2.4c-5,0.7-10,1.4-15.1,2c3.4-0.4,6.7-0.3,10,0.1
			c-5-0.7-10-1.4-15.1-2c3.8,0.6,7.4,1.6,10.9,3.1c-4.5-1.9-9-3.8-13.5-5.7c4.3,1.9,8.2,4.2,11.9,7.1c-3.8-3-7.6-5.9-11.5-8.9
			c3.7,3,7,6.3,9.9,10c-3-3.8-5.9-7.6-8.9-11.5c2.6,3.5,4.8,7.2,6.6,11.3c-1.9-4.5-3.8-9-5.7-13.5c2,4.8,3.2,9.9,3.9,15
			c-0.7-5-1.4-10-2-15.1c0.9,7,0.8,13.9,0,20.8c0.7-5,1.4-10,2-15.1c-1.4,10.4-4.5,20.4-8.5,30.1c1.9-4.5,3.8-9,5.7-13.5
			c-7.2,16.8-17.1,32.3-28.2,46.8c3-3.8,5.9-7.6,8.9-11.5c-14.9,19.2-32.4,36.1-51.7,51c3.8-3,7.6-5.9,11.5-8.9
			c-27.7,21.3-58.4,38.1-90.5,51.7c4.5-1.9,9-3.8,13.5-5.7c-27.5,11.6-56,21.6-85.6,25.8c5-0.7,10-1.4,15.1-2
			c-14.2,1.9-28.6,2.4-42.9,0.6c5,0.7,10,1.4,15.1,2c-9.1-1.3-17.9-3.5-26.3-7.1c4.5,1.9,9,3.8,13.5,5.7
			c-6.2-2.7-12.1-6.1-17.6-10.2c3.8,3,7.6,5.9,11.5,8.9c-5.8-4.5-10.8-9.6-15.3-15.3c3,3.8,5.9,7.6,8.9,11.5
			c-4.9-6.5-8.8-13.5-11.9-21c1.9,4.5,3.8,9,5.7,13.5c-6-14.6-9.2-30.1-11.3-45.8c0.7,5,1.4,10,2,15.1c-1.1-7.9-1.9-15.8-2.6-23.7
			c0.3-7.8-1.3-15.1-4.9-21.8c-2.3-7-6.2-13.1-11.7-18.2c-9.8-9.8-26-17.2-40.1-16.6c-14.7,0.7-29.9,5.5-40.1,16.6
			C15.1,895.7,6.7,910.6,8.1,925.3L8.1,925.3z"/>
	</g>
</g>
</svg>
