<?xml version="1.0" encoding="utf-8"?>
<!-- Generator: Adobe Illustrator 25.4.1, SVG Export Plug-In . SVG Version: 6.00 Build 0)  -->
<svg version="1.1" id="Layer_1" xmlns="http://www.w3.org/2000/svg" xmlns:xlink="http://www.w3.org/1999/xlink" x="0px" y="0px"
	 viewBox="0 0 2180 660" style="enable-background:new 0 0 2180 660;" xml:space="preserve">
<style type="text/css">
	.st0{fill:#FFFF00;}
</style>
<g>
	<rect x="655" y="414" class="st0" width="10.8" height="234.4"/>
	<rect x="1676" y="516.1" class="st0" width="10.8" height="132.3"/>
	<rect x="1368.8" y="443.3" class="st0" width="10.8" height="205.2"/>
	<rect x="1721.3" y="403" class="st0" width="10.8" height="127.2"/>
	<path class="st0" d="M448.6,652.5c-40.3,0-71.8-31.5-71.8-71.8s31.5-71.8,71.8-71.8c39.6,0,71.8,32.2,71.8,71.8
		C520.4,620.3,488.2,652.5,448.6,652.5z M448.6,519.7c-16.7,0-32.2,6.3-43.5,17.7c-11.3,11.4-17.5,26.7-17.5,43.3
		s6.2,31.9,17.5,43.3c11.3,11.4,26.8,17.7,43.5,17.7c33.6,0,61-27.4,61-61S482.2,519.7,448.6,519.7z"/>
	<path class="st0" d="M1587.2,652.5c-40.3,0-71.8-31.5-71.8-71.8s31.5-71.8,71.8-71.8c39.6,0,71.8,32.2,71.8,71.8
		C1659,620.3,1626.8,652.5,1587.2,652.5z M1587.2,519.7c-16.7,0-32.2,6.3-43.5,17.7c-11.3,11.4-17.5,26.7-17.5,43.3
		s6.2,31.9,17.5,43.3c11.3,11.4,26.8,17.7,43.5,17.7c33.6,0,61-27.4,61-61S1620.9,519.7,1587.2,519.7z"/>
	<path class="st0" d="M586.5,659c-13.7,0-26.3-8.5-35.6-24c-8.8-14.6-13.6-33.9-13.6-54.3s4.8-39.7,13.6-54.3
		c9.3-15.5,21.9-24,35.6-24c29.9,0,49.2,30.7,49.2,78.2l0,0.3l-0.6,12.2C632,633.7,613.4,659,586.5,659z M586.5,513.2
		c-20.8,0-38.4,30.9-38.4,67.5c0,36.6,17.6,67.5,38.4,67.5c20.7,0,35.2-21.4,37.9-55.8l0.6-11.8
		C624.9,539.7,609.8,513.2,586.5,513.2z"/>
	<path class="st0" d="M189.9,652.5c-50.5,0-97.5-6.9-132.3-19.5c-36.4-13.2-56.5-31.8-56.5-52.3s20.1-39.1,56.5-52.3
		c34.7-12.6,81.7-19.5,132.3-19.5c71.9,0,136.2,14.4,167.7,37.5l-6.4,8.7c-29.7-21.8-91.5-35.4-161.3-35.4
		c-49.3,0-95,6.7-128.6,18.9c-31.4,11.4-49.4,26.7-49.4,42.1s18,30.8,49.4,42.1c33.6,12.2,79.3,18.9,128.6,18.9
		c69.8,0,131.7-13.6,161.6-35.6l6.4,8.7C326.3,638.1,261.9,652.5,189.9,652.5z"/>
	<g>
		
			<rect x="804.8" y="539" transform="matrix(0.9034 -0.4288 0.4288 0.9034 -144.2458 448.6094)" class="st0" width="237.2" height="10.8"/>
	</g>
	<path class="st0" d="M875.5,652.5c-50.5,0-97.5-6.9-132.3-19.5c-36.4-13.2-56.5-31.8-56.5-52.3s20.1-39.1,56.5-52.3
		c34.7-12.6,81.7-19.5,132.3-19.5c71.9,0,136.2,14.4,167.7,37.5l-6.4,8.7c-29.7-21.8-91.5-35.4-161.3-35.4
		c-49.3,0-95,6.7-128.6,18.9c-31.4,11.4-49.4,26.7-49.4,42.1s18,30.8,49.4,42.1c33.6,12.2,79.3,18.9,128.6,18.9
		c69.8,0,131.7-13.6,161.6-35.6l6.4,8.7C1011.9,638.1,947.5,652.5,875.5,652.5z"/>
	<g>
		<rect x="1400" y="636.5" class="st0" width="112.2" height="10.8"/>
	</g>
	<path class="st0" d="M1897.9,652.5c-48.8,0-93.9-7-127.2-19.7c-34.7-13.2-53.8-31.7-53.8-52.1s19.1-38.9,53.8-52.1
		c33.3-12.7,78.5-19.7,127.2-19.7c46.9,0,91.4,7,125.3,19.7c36,13.4,55.8,31.9,55.8,52.1c0,20.2-19.8,38.7-55.8,52.1
		C1989.3,645.5,1944.8,652.5,1897.9,652.5z M1897.9,519.7c-47.5,0-91.3,6.7-123.4,19c-29.8,11.4-46.9,26.7-46.9,42
		c0,15.4,17.1,30.7,46.9,42c32.1,12.2,75.9,19,123.4,19c45.6,0,88.8-6.7,121.5-19c31-11.6,48.7-26.9,48.7-42s-17.8-30.5-48.7-42
		C1986.7,526.4,1943.5,519.7,1897.9,519.7z"/>
	<path class="st0" d="M425.4,300.4c-40.3,0-71.8-31.5-71.8-71.8c0-40.3,31.5-71.8,71.8-71.8c39.6,0,71.8,32.2,71.8,71.8
		C497.1,268.1,464.9,300.4,425.4,300.4z M425.4,167.6c-16.7,0-32.2,6.3-43.5,17.7c-11.3,11.4-17.5,26.7-17.5,43.3
		s6.2,31.9,17.5,43.3c11.3,11.4,26.8,17.7,43.5,17.7c33.6,0,61-27.4,61-61C486.4,194.9,459,167.6,425.4,167.6z"/>
	<path class="st0" d="M182.9,172.7v-10.8c49.2,0,94.8-8.1,128.3-22.8c32.1-14.1,49.7-32.6,49.7-52.2s-17.7-38.2-49.7-52.2
		c-33.5-14.7-79.1-22.8-128.3-22.8C113.4,11.8,51.7,28.2,22,54.6l-7.2-8C46.4,18.5,110.8,1,182.9,1c50.7,0,97.7,8.4,132.6,23.7
		c36.2,15.9,56.2,38,56.2,62.1s-20,46.2-56.2,62.1C280.7,164.2,233.6,172.7,182.9,172.7z"/>
	<g>
		<rect x="73.8" y="215.5" class="st0" width="233.3" height="10.8"/>
	</g>
	<path class="st0" d="M563.3,234v-10.8c49.2,0,94.8-8.1,128.3-22.8c32.1-14.1,49.7-32.6,49.7-52.2s-17.7-38.2-49.7-52.2
		c-33.5-14.7-79.1-22.8-128.3-22.8c-69.6,0-131.2,16.4-160.9,42.8l-7.2-8c31.6-28.1,96-45.5,168.1-45.5c50.7,0,97.7,8.4,132.6,23.7
		c36.2,15.9,56.2,38,56.2,62.1c0,24.1-20,46.2-56.2,62.1C661,225.5,614,234,563.3,234z"/>
	<path class="st0" d="M840.4,172.7v-10.8c49.2,0,94.8-8.1,128.3-22.8c32.1-14.1,49.7-32.6,49.7-52.2s-17.7-38.2-49.7-52.2
		c-33.5-14.7-79.1-22.8-128.3-22.8c-69.6,0-131.2,16.4-160.9,42.8l-7.2-8C703.9,18.5,768.3,1,840.4,1c50.7,0,97.7,8.4,132.6,23.7
		c36.2,15.9,56.2,38,56.2,62.1s-20,46.2-56.2,62.1C938.1,164.2,891.1,172.7,840.4,172.7z"/>
	<g>
		<rect x="543.6" y="263.9" class="st0" width="427.4" height="10.8"/>
	</g>
	<rect x="1551.1" y="134.4" class="st0" width="10.8" height="167.7"/>
	<rect x="1892.2" y="8.4" class="st0" width="10.8" height="207.4"/>
	<rect x="1242.5" y="42.5" class="st0" width="10.8" height="233.3"/>
	<path class="st0" d="M1352.2,168.2c-48.8,0-93.9-7-127.2-19.7c-34.7-13.2-53.8-31.7-53.8-52.1s19.1-38.9,53.8-52.1
		c33.3-12.7,78.5-19.7,127.2-19.7c46.9,0,91.4,7,125.3,19.7c36,13.4,55.8,31.9,55.8,52.1s-19.8,38.7-55.8,52.1
		C1443.6,161.2,1399.1,168.2,1352.2,168.2z M1352.2,35.4c-47.5,0-91.3,6.7-123.4,19C1199,65.7,1182,81,1182,96.4s17.1,30.7,46.9,42
		c32.1,12.2,75.9,19,123.4,19c45.6,0,88.8-6.7,121.5-19c31-11.6,48.7-26.9,48.7-42s-17.8-30.5-48.7-42
		C1441,42.1,1397.9,35.4,1352.2,35.4z"/>
	
		<rect x="1434.3" y="83.1" transform="matrix(0.6658 -0.7462 0.7462 0.6658 339.8238 1137.5452)" class="st0" width="10.8" height="212.7"/>
	<path class="st0" d="M1693.1,177.2c-36.5,0-65.2-28.6-65.2-65.2s28.6-65.2,65.2-65.2c35.9,0,65.2,29.2,65.2,65.2h-10.8
		c0-30-24.4-54.4-54.4-54.4c-14.9,0-28.7,5.6-38.8,15.8c-10,10.1-15.6,23.8-15.6,38.6s5.5,28.5,15.6,38.6
		c10.1,10.2,23.9,15.8,38.8,15.8V177.2z"/>
	<path class="st0" d="M1689.1,289.4c-42.6,0-80.6-17-99.3-44.5l8.9-6.1c16.7,24.5,51.4,39.8,90.4,39.8c56.2,0,100.2-31.2,100.2-71
		c0-39.8-44-71-100.2-71V126c29.9,0,57.6,8.2,78.2,23.1c21.1,15.3,32.7,36.1,32.7,58.6s-11.6,43.4-32.7,58.6
		C1746.7,281.2,1718.9,289.4,1689.1,289.4z"/>
	<path class="st0" d="M1990.1,269.8c-72.5,0-137.1-25.5-168.7-66.5l8.5-6.6c29.6,38.4,91,62.3,160.2,62.3c99.8,0,178-49.1,178-111.8
		s-78.2-111.8-178-111.8c-69.3,0-130.8,24-160.6,62.6l-8.5-6.6c31.8-41.2,96.5-66.8,169.1-66.8c50.9,0,98.3,12.3,133.3,34.7
		c35.8,22.9,55.4,54.1,55.4,87.8s-19.7,65-55.4,87.8C2088.4,257.4,2041.1,269.8,1990.1,269.8z"/>
</g>
</svg>
