<?xml version="1.0" encoding="utf-8"?>
<!-- Generator: Adobe Illustrator 25.4.1, SVG Export Plug-In . SVG Version: 6.00 Build 0)  -->
<svg version="1.1" id="Layer_1" xmlns="http://www.w3.org/2000/svg" xmlns:xlink="http://www.w3.org/1999/xlink" x="0px" y="0px"
	 viewBox="0 0 160.2 23.3" style="enable-background:new 0 0 160.2 23.3;" xml:space="preserve">
<style type="text/css">
	.st0{fill-rule:evenodd;clip-rule:evenodd;fill:#FFFFFF;}
</style>
<g>
	<path class="st0" d="M87.9,10.7c0,0-1.6-1-2.5-1.3c0,0-3-1.4-3.6-2c0,0-1.2-1.1-0.5-2.4c0,0,0.3-0.8,1.5-0.8c0,0,1.6,0.1,1.6,1.4
		v1.9h5.7l0-2.7c0,0,0.4-4.5-6.8-4.7c0,0-5.7-0.4-7.3,2.7c0,0-0.6,0.7-0.6,3v1.7c0,0-0.1,2,0.9,3.2c0,0,0.6,0.8,2,1.8
		c0,0,2.9,1.5,4.6,2.4c0,0,1.7,1,1.5,2.6c0,0-0.1,1.6-1.8,1.5c0,0-1.5-0.1-1.5-1.6v-1.9H75v2.7c0,0-0.2,5.2,7.7,5.2
		c0,0,7.5,0.2,7.9-5.3v-2.2C90.5,15.8,90.8,12.5,87.9,10.7L87.9,10.7z"/>
	<polygon class="st0" points="58.5,0.6 56.6,12.7 56.1,12.7 54.3,0.7 44.7,0.7 44.3,22.5 49.9,22.5 50,6.1 50.4,6.1 53.4,22.5 
		59.4,22.5 62.4,6.1 62.8,6.1 62.9,22.5 68.6,22.5 68,0.6 58.5,0.6 	"/>
	<polygon class="st0" points="24.8,0.7 21,22.5 27.1,22.5 29.3,5.6 29.8,5.6 32.1,22.5 38.2,22.5 34.4,0.7 24.8,0.7 	"/>
	<path class="st0" d="M152.9,10.6v3.2h1.6v3.4c0,1.7-1.4,1.7-1.4,1.7c-1.8,0-1.7-1.6-1.7-1.6V5.4c0-1.2,1.6-1.3,1.6-1.3
		c1.5,0,1.5,1.5,1.5,1.5v1.8h5.7c0.2-3.5-0.5-4.4-0.5-4.4c-1.4-3.2-6.8-3-6.8-3c-8.3,0-7.4,6.4-7.4,6.4v11.5c0.2,6,8.3,5.4,8.5,5.4
		c3.6-0.4,4.7-1.6,4.7-1.6c1-0.8,1.3-1.8,1.3-1.8c0.3-0.6,0.4-2.5,0.4-2.5v-6.8H152.9L152.9,10.6z"/>
	<polygon class="st0" points="133.8,14 133.6,14 127.7,0.6 120.7,0.6 120.7,22.5 126.4,22.5 126.1,9.2 126.3,9.2 132.4,22.5 
		139.1,22.5 139.1,0.6 133.4,0.6 133.8,14 	"/>
	<path class="st0" d="M106.9,17.1c0,0,0.1,1.8-1.6,1.8c0,0-1.8,0.1-1.8-1.8l0-16.5h-6.2V17c0,0-0.6,6.2,8.1,6.2c0,0,7.6,0.1,7.6-5.9
		V0.7h-6.1V17.1L106.9,17.1z"/>
	<path class="st0" d="M12.9,10.7c0,0-1.6-1-2.5-1.3c0,0-3-1.4-3.6-2c0,0-1.2-1.1-0.5-2.4c0,0,0.3-0.8,1.5-0.8c0,0,1.6,0.1,1.6,1.4
		v1.9h5.7l0-2.7c0,0,0.4-4.5-6.8-4.7c0,0-0.5,0-1.3,0c0,0-4.4,0.2-5.9,2.6c0,0,0,0,0,0c0,0-0.6,0.7-0.6,3v1.7c0,0-0.1,2,0.9,3.2
		c0,0,0.6,0.8,2,1.8c0,0,2.8,1.5,4.6,2.4c0,0,1.7,1,1.5,2.6c0,0-0.1,1.6-1.8,1.5c0,0-1.5-0.1-1.5-1.6v-1.9H0v2.7
		c0,0-0.2,5.2,7.7,5.2c0,0,7.5,0.2,7.9-5.3v-2.2C15.5,15.8,15.8,12.5,12.9,10.7L12.9,10.7z"/>
</g>
</svg>
