<?xml version="1.0" encoding="utf-8"?>
<!-- Generator: Adobe Illustrator 22.0.1, SVG Export Plug-In . SVG Version: 6.00 Build 0)  -->
<svg version="1.1" id="Layer_1" xmlns="http://www.w3.org/2000/svg" xmlns:xlink="http://www.w3.org/1999/xlink" x="0px" y="0px"
	 viewBox="0 0 310 356" style="enable-background:new 0 0 310 356;" xml:space="preserve">
<style type="text/css">
	.st0{fill:#FFFFFF;}
</style>
<g>
	<g>
		<g>
			<path class="st0" d="M180.5,330H80.8l-0.1-0.4L1.2,5.3h99.7l0.1,0.4L180.5,330z M81.6,329h97.6L100.1,6.3H2.5L81.6,329z"/>
			<path class="st0" d="M143.7,333.8c-19.2,0-37.8-8.6-52.5-24.2c-15.1-16.1-25.3-38.4-29.5-64.5c-10.5-65.4,20.8-134.5,69.8-153.9
				c8.6-3.4,17.4-5.2,26.2-5.2c19.2,0,37.8,8.6,52.5,24.2c15.1,16.1,25.3,38.4,29.5,64.5c10.5,65.4-20.8,134.5-69.8,153.9
				C161.2,332,152.4,333.8,143.7,333.8z M157.7,86.9c-8.6,0-17.3,1.7-25.8,5.1c-48.6,19.3-79.6,87.8-69.2,152.8
				c8.3,51.8,41.6,87.9,81,87.9c8.6,0,17.3-1.7,25.8-5.1c48.6-19.3,79.6-87.8,69.2-152.8C230.4,123.1,197,86.9,157.7,86.9z"/>
			<path class="st0" d="M179.7,355.7c-17.7,0-34-5.3-47.4-15.6c-19.9-15.3-30.9-39.9-30.9-69.2c0-59.8,46.4-120.6,103.5-135.7
				c27.4-7.2,53.3-2.9,72.9,12.1c19.9,15.3,30.9,39.9,30.9,69.2c0,59.8-46.4,120.6-103.5,135.7C196.5,354.5,187.9,355.7,179.7,355.7
				z M230.4,132.9c-8.1,0-16.6,1.1-25.2,3.4c-56.6,14.9-102.7,75.4-102.7,134.7c0,29,10.8,53.2,30.5,68.4c19.3,14.9,44.9,19.1,72,12
				c56.6-14.9,102.7-75.4,102.7-134.7c0-29-10.8-53.2-30.5-68.4C264,138.1,247.9,132.9,230.4,132.9z M201.3,260.5
				c-2.7,0-5.1-0.8-7.2-2.4c-3-2.3-4.7-6-4.7-10.4c0-8.9,6.9-18,15.4-20.2c4.1-1.1,8-0.4,11,1.8c3,2.3,4.7,6,4.7,10.4
				c0,8.9-6.9,18-15.4,20.2l0,0C203.9,260.3,202.6,260.5,201.3,260.5z M208.7,228c-1.2,0-2.3,0.2-3.6,0.5
				c-8.1,2.1-14.7,10.8-14.7,19.2c0,4.1,1.5,7.5,4.3,9.6c2.7,2.1,6.3,2.7,10.1,1.7l0,0c8.1-2.1,14.7-10.8,14.7-19.2
				c0-4.1-1.5-7.5-4.3-9.6C213.4,228.7,211.2,228,208.7,228z"/>
		</g>
		<g>
			<rect x="0.2" y="4.2" class="st0" width="3.3" height="3.3"/>
			<rect x="98.9" y="4.2" class="st0" width="3.3" height="3.3"/>
			<rect x="130" y="89.9" class="st0" width="3.3" height="3.3"/>
			<rect x="237.5" y="173.1" class="st0" width="3.3" height="3.3"/>
			<rect x="306.5" y="214.9" class="st0" width="3.3" height="3.3"/>
			<rect x="203.4" y="226.4" class="st0" width="3.3" height="3.3"/>
			<rect x="203.4" y="257.9" class="st0" width="3.3" height="3.3"/>
			<rect x="218.4" y="238.2" class="st0" width="3.3" height="3.3"/>
			<rect x="188.4" y="246.1" class="st0" width="3.3" height="3.3"/>
			<rect x="100.3" y="269.3" class="st0" width="3.3" height="3.3"/>
			<rect x="60.5" y="243.3" class="st0" width="3.3" height="3.3"/>
			<rect x="156" y="84.8" class="st0" width="3.3" height="3.3"/>
			<rect x="203.4" y="134.1" class="st0" width="3.3" height="3.3"/>
			<rect x="79.6" y="327.9" class="st0" width="3.3" height="3.3"/>
			<rect x="178.2" y="327.9" class="st0" width="3.3" height="3.3"/>
			<rect x="168" y="326.5" class="st0" width="3.3" height="3.3"/>
			<rect x="142.1" y="331.6" class="st0" width="3.3" height="3.3"/>
			<rect x="203.4" y="350.1" class="st0" width="3.3" height="3.3"/>
		</g>
	</g>
	<g>
		<path class="st0" d="M136.3,4.9c0.1-3.3,2.3-4.6,5.7-4.6c1.1,0,5.1,0.3,5.1,3.8v7.9c0,0.6,0.3,0.8,0.8,0.8c0.2,0,0.5-0.1,0.8-0.1
			v1.7c-0.4,0.1-0.7,0.3-1.3,0.3c-2,0-2.4-1.1-2.4-2.1c-0.9,1-2.3,2.2-5,2.2c-2.5,0-4.3-1.6-4.3-4c0-1.2,0.3-3.8,4.2-4.3l3.8-0.5
			c0.6-0.1,1.2-0.3,1.2-1.6c0-1.4-1.1-2.2-3.2-2.2c-2.6,0-3,1.6-3.2,2.7H136.3z M144.7,7.4c-0.4,0.3-0.9,0.5-3.8,0.9
			c-1.1,0.2-2.9,0.5-2.9,2.2c0,1.5,0.8,2.4,2.5,2.4c2.2,0,4.3-1.4,4.3-3.2V7.4z"/>
	</g>
	<g>
		<path class="st0" d="M287.9,112.3c-0.3-1.8-1.3-2.9-3.3-2.9c-2.9,0-3.8,2.7-3.8,5.2c0,2.4,0.6,5.3,3.8,5.3c1.5,0,2.9-1.2,3.3-3.3
			h2.2c-0.2,2.2-1.6,5.3-5.6,5.3c-3.9,0-6.1-2.9-6.1-6.9c0-4.3,2-7.6,6.6-7.6c3.6,0,5,2.6,5.1,5H287.9z"/>
	</g>
	<g>
		<path class="st0" d="M25.7,290.2v-18.9H28v6.9h0.1c1-1.4,2.4-2.1,4-2.1c3.7,0,5.7,3,5.7,6.9c0,3.3-1.4,7.7-6,7.7
			c-2.3,0-3.3-1.3-3.8-2.1h-0.1v1.7H25.7z M31.6,278.1c-3.3,0-3.7,3.6-3.7,5.8c0,3.7,2.3,4.6,3.8,4.6c2.5,0,3.7-2.3,3.7-5.3
			C35.4,281.5,35.2,278.1,31.6,278.1z"/>
	</g>
</g>
</svg>
