<?xml version="1.0" encoding="utf-8"?>
<!-- Generator: Adobe Illustrator 27.7.0, SVG Export Plug-In . SVG Version: 6.00 Build 0)  -->
<svg version="1.1" id="Layer_1" xmlns="http://www.w3.org/2000/svg" xmlns:xlink="http://www.w3.org/1999/xlink" x="0px" y="0px"
	 viewBox="0 0 32 32" style="enable-background:new 0 0 32 32;" xml:space="preserve">
<path d="M30.58,2.6h-7.29c-2.01-1.14-4.26-1.71-6.75-1.71c-2.76,0-5.29,0.68-7.59,2.03C6.63,4.27,4.81,6.1,3.45,8.41
	C2.1,10.71,1.42,13.24,1.42,16s0.68,5.29,2.03,7.59c1.35,2.31,3.18,4.14,5.49,5.49c2.31,1.36,4.84,2.03,7.59,2.03
	c1.96,0,3.78-0.36,5.46-1.07h8.59V2.6z M16.18,28.41c-2.23,0-4.27-0.55-6.1-1.64c-1.83-1.09-3.27-2.59-4.31-4.49
	C4.72,20.37,4.2,18.28,4.2,16c0-2.28,0.52-4.37,1.57-6.27c1.04-1.9,2.48-3.4,4.31-4.49c1.83-1.09,3.86-1.64,6.1-1.64
	c2.09,0,4.05,0.56,5.88,1.68c1.83,1.12,3.29,2.63,4.38,4.53c1.09,1.9,1.64,3.97,1.64,6.2s-0.54,4.3-1.61,6.2
	c-1.07,1.9-2.53,3.41-4.38,4.53C20.24,27.85,18.27,28.41,16.18,28.41z"/>
</svg>
